<svg width="573" height="460" viewBox="0 0 573 460" fill="none" xmlns="http://www.w3.org/2000/svg">
<path d="M531.518 198.117H489.291V249.404H478.423V220.366H424.718V266.341H417.611V158.442H370.939V188.067H347.017V224.908H339.776V201.731H297.342V270.896H284.935V214.663H246.127V171.972H219.739V147.659H189.223V255.51H178.965V210.499H128.679V274.926H121.731V222.344H70.7361V174.964H42.1616V395.623H531.518V198.117Z" fill="#EBEBEB"/>
<path d="M519.197 214.37H526.341V204.564H519.197V214.37Z" fill="white"/>
<path d="M506.815 214.37H513.958V204.564H506.815V214.37Z" fill="white"/>
<path d="M494.42 214.37H501.564V204.564H494.42V214.37Z" fill="white"/>
<path d="M519.197 229.121H526.341V219.315H519.197V229.121Z" fill="white"/>
<path d="M506.815 229.121H513.958V219.315H506.815V229.121Z" fill="white"/>
<path d="M494.42 229.121H501.564V219.315H494.42V229.121Z" fill="white"/>
<path d="M519.197 243.872H526.341V234.067H519.197V243.872Z" fill="white"/>
<path d="M506.815 243.872H513.958V234.067H506.815V243.872Z" fill="white"/>
<path d="M494.42 243.872H501.564V234.067H494.42V243.872Z" fill="white"/>
<path d="M519.197 258.636H526.341V248.83H519.197V258.636Z" fill="white"/>
<path d="M506.815 258.636H513.958V248.83H506.815V258.636Z" fill="white"/>
<path d="M494.42 258.636H501.564V248.83H494.42V258.636Z" fill="white"/>
<path d="M271.832 229.866H278.976V221.684H271.832V229.866Z" fill="white"/>
<path d="M259.45 229.866H266.594V221.684H259.45V229.866Z" fill="white"/>
<path d="M247.055 229.866H254.199V221.684H247.055V229.866Z" fill="white"/>
<path d="M271.832 242.163H278.976V233.981H271.832V242.163Z" fill="white"/>
<path d="M259.45 242.163H266.594V233.981H259.45V242.163Z" fill="white"/>
<path d="M247.055 242.163H254.199V233.981H247.055V242.163Z" fill="white"/>
<path d="M271.832 254.472H278.976V246.29H271.832V254.472Z" fill="white"/>
<path d="M259.45 254.472H266.594V246.29H259.45V254.472Z" fill="white"/>
<path d="M247.055 254.472H254.199V246.29H247.055V254.472Z" fill="white"/>
<path d="M271.832 266.781H278.976V258.599H271.832V266.781Z" fill="white"/>
<path d="M259.45 266.781H266.594V258.599H259.45V266.781Z" fill="white"/>
<path d="M247.055 266.781H254.199V258.599H247.055V266.781Z" fill="white"/>
<path d="M271.832 279.395H278.976V271.214H271.832V279.395Z" fill="white"/>
<path d="M259.45 279.395H266.594V271.214H259.45V279.395Z" fill="white"/>
<path d="M247.055 279.395H254.199V271.214H247.055V279.395Z" fill="white"/>
<path d="M271.832 292.009H278.976V283.828H271.832V292.009Z" fill="white"/>
<path d="M259.45 292.009H266.594V283.828H259.45V292.009Z" fill="white"/>
<path d="M247.055 292.009H254.199V283.828H247.055V292.009Z" fill="white"/>
<path d="M271.832 304.612H278.976V296.43H271.832V304.612Z" fill="white"/>
<path d="M259.45 304.612H266.594V296.43H259.45V304.612Z" fill="white"/>
<path d="M247.055 304.612H254.199V296.43H247.055V304.612Z" fill="white"/>
<path d="M271.832 317.226H278.976V309.044H271.832V317.226Z" fill="white"/>
<path d="M259.45 317.226H266.594V309.044H259.45V317.226Z" fill="white"/>
<path d="M247.055 317.226H254.199V309.044H247.055V317.226Z" fill="white"/>
<path d="M431.19 232.784H472.318V226.654H431.19V232.784Z" fill="white"/>
<path d="M431.19 244.691H472.318V238.56H431.19V244.691Z" fill="white"/>
<path d="M431.19 256.584H472.318V250.454H431.19V256.584Z" fill="white"/>
<path d="M431.19 268.478H472.318V262.348H431.19V268.478Z" fill="white"/>
<path d="M431.19 280.384H472.318V274.254H431.19V280.384Z" fill="white"/>
<path d="M431.19 292.278H472.318V286.148H431.19V292.278Z" fill="white"/>
<path d="M431.19 304.184H472.318V298.054H431.19V304.184Z" fill="white"/>
<path d="M431.19 316.066H472.318V309.936H431.19V316.066Z" fill="white"/>
<path d="M135.053 222.344H172.871V216.214H135.053V222.344Z" fill="white"/>
<path d="M135.053 234.25H172.871V228.12H135.053V234.25Z" fill="white"/>
<path d="M135.053 246.156H172.871V240.026H135.053V246.156Z" fill="white"/>
<path d="M135.053 258.05H172.871V251.92H135.053V258.05Z" fill="white"/>
<path d="M135.053 269.944H172.871V263.813H135.053V269.944Z" fill="white"/>
<path d="M135.053 281.85H172.871V275.72H135.053V281.85Z" fill="white"/>
<path d="M135.053 293.743H172.871V287.613H135.053V293.743Z" fill="white"/>
<path d="M135.053 305.65H172.871V299.519H135.053V305.65Z" fill="white"/>
<path d="M135.053 316.945H172.871V310.815H135.053V316.945Z" fill="white"/>
<path d="M135.053 328.253H172.871V322.123H135.053V328.253Z" fill="white"/>
<path d="M135.053 339.56H172.871V333.43H135.053V339.56Z" fill="white"/>
<path d="M135.053 350.856H172.871V344.726H135.053V350.856Z" fill="white"/>
<path d="M135.053 362.164H172.871V356.033H135.053V362.164Z" fill="white"/>
<path d="M73.923 236.717H113.866V230.586H73.923V236.717Z" fill="white"/>
<path d="M73.923 248.623H113.866V242.492H73.923V248.623Z" fill="white"/>
<path d="M73.923 260.529H113.866V254.399H73.923V260.529Z" fill="white"/>
<path d="M73.923 272.422H113.866V266.292H73.923V272.422Z" fill="white"/>
<path d="M73.923 284.316H113.866V278.186H73.923V284.316Z" fill="white"/>
<path d="M73.923 296.222H113.866V290.092H73.923V296.222Z" fill="white"/>
<path d="M73.923 308.116H113.866V301.986H73.923V308.116Z" fill="white"/>
<path d="M73.923 320.022H113.866V313.892H73.923V320.022Z" fill="white"/>
<path d="M73.923 330.67H113.866V324.54H73.923V330.67Z" fill="white"/>
<path d="M73.923 341.319H113.866V335.189H73.923V341.319Z" fill="white"/>
<path d="M73.923 351.967H113.866V345.837H73.923V351.967Z" fill="white"/>
<path d="M314.657 213.21H327.357V207.287H314.657V213.21Z" fill="white"/>
<path d="M314.657 224.701H327.357V218.778H314.657V224.701Z" fill="white"/>
<path d="M314.657 236.191H327.357V230.269H314.657V236.191Z" fill="white"/>
<path d="M314.657 247.682H327.357V241.76H314.657V247.682Z" fill="white"/>
<path d="M314.657 259.173H327.357V253.251H314.657V259.173Z" fill="white"/>
<path d="M314.657 270.664H327.357V264.742H314.657V270.664Z" fill="white"/>
<path d="M314.657 282.155H327.357V276.232H314.657V282.155Z" fill="white"/>
<path d="M314.657 293.646H327.357V287.723H314.657V293.646Z" fill="white"/>
<path d="M297.378 213.21H310.078V207.287H297.378V213.21Z" fill="white"/>
<path d="M297.378 224.701H310.078V218.778H297.378V224.701Z" fill="white"/>
<path d="M297.378 236.191H310.078V230.269H297.378V236.191Z" fill="white"/>
<path d="M297.378 247.682H310.078V241.76H297.378V247.682Z" fill="white"/>
<path d="M297.378 259.173H310.078V253.251H297.378V259.173Z" fill="white"/>
<path d="M297.378 270.664H310.078V264.742H297.378V270.664Z" fill="white"/>
<path d="M297.378 282.155H310.078V276.232H297.378V282.155Z" fill="white"/>
<path d="M297.378 293.646H310.078V287.723H297.378V293.646Z" fill="white"/>
<path d="M397.291 173.999H410.529V164.657H397.291V173.999Z" fill="white"/>
<path d="M377.57 173.999H390.807V164.657H377.57V173.999Z" fill="white"/>
<path d="M397.291 187.713H410.529V178.371H397.291V187.713Z" fill="white"/>
<path d="M377.57 187.713H390.807V178.371H377.57V187.713Z" fill="white"/>
<path d="M397.291 201.438H410.529V192.096H397.291V201.438Z" fill="white"/>
<path d="M377.57 201.438H390.807V192.096H377.57V201.438Z" fill="white"/>
<path d="M397.291 215.151H410.529V205.81H397.291V215.151Z" fill="white"/>
<path d="M377.57 215.151H390.807V205.81H377.57V215.151Z" fill="white"/>
<path d="M397.291 228.877H410.529V219.535H397.291V228.877Z" fill="white"/>
<path d="M377.57 228.877H390.807V219.535H377.57V228.877Z" fill="white"/>
<path d="M397.291 242.602H410.529V233.261H397.291V242.602Z" fill="white"/>
<path d="M377.57 242.602H390.807V233.261H377.57V242.602Z" fill="white"/>
<path d="M397.291 256.316H410.529V246.974H397.291V256.316Z" fill="white"/>
<path d="M377.57 256.316H390.807V246.974H377.57V256.316Z" fill="white"/>
<path d="M397.291 270.041H410.529V260.7H397.291V270.041Z" fill="white"/>
<path d="M377.57 270.041H390.807V260.7H377.57V270.041Z" fill="white"/>
<path d="M353.111 201.438H366.348V192.096H353.111V201.438Z" fill="white"/>
<path d="M353.111 215.151H366.348V205.81H353.111V215.151Z" fill="white"/>
<path d="M353.111 228.877H366.348V219.535H353.111V228.877Z" fill="white"/>
<path d="M353.111 242.602H366.348V233.261H353.111V242.602Z" fill="white"/>
<path d="M353.111 256.316H366.348V246.974H353.111V256.316Z" fill="white"/>
<path d="M353.111 270.041H366.348V260.7H353.111V270.041Z" fill="white"/>
<path d="M397.291 283.596H410.529V274.254H397.291V283.596Z" fill="white"/>
<path d="M377.57 283.596H390.807V274.254H377.57V283.596Z" fill="white"/>
<path d="M353.111 283.596H366.348V274.254H353.111V283.596Z" fill="white"/>
<path d="M397.291 297.138H410.529V287.796H397.291V297.138Z" fill="white"/>
<path d="M377.57 297.138H390.807V287.796H377.57V297.138Z" fill="white"/>
<path d="M353.111 297.138H366.348V287.796H353.111V297.138Z" fill="white"/>
<path d="M397.291 310.693H410.529V301.351H397.291V310.693Z" fill="white"/>
<path d="M377.57 310.693H390.807V301.351H377.57V310.693Z" fill="white"/>
<path d="M353.111 310.693H366.348V301.351H353.111V310.693Z" fill="white"/>
<path d="M397.291 324.247H410.529V314.906H397.291V324.247Z" fill="white"/>
<path d="M377.57 324.247H390.807V314.906H377.57V324.247Z" fill="white"/>
<path d="M353.111 324.247H366.348V314.906H353.111V324.247Z" fill="white"/>
<path d="M397.291 337.802H410.529V328.46H397.291V337.802Z" fill="white"/>
<path d="M377.57 337.802H390.807V328.46H377.57V337.802Z" fill="white"/>
<path d="M353.111 337.802H366.348V328.46H353.111V337.802Z" fill="white"/>
<path d="M233.598 186.162H240.742V177.98H233.598V186.162Z" fill="white"/>
<path d="M221.216 186.162H228.36V177.98H221.216V186.162Z" fill="white"/>
<path d="M233.598 198.471H240.742V190.289H233.598V198.471Z" fill="white"/>
<path d="M221.216 198.471H228.36V190.289H221.216V198.471Z" fill="white"/>
<path d="M233.598 210.78H240.742V202.598H233.598V210.78Z" fill="white"/>
<path d="M221.216 210.78H228.36V202.598H221.216V210.78Z" fill="white"/>
<path d="M233.598 223.101H240.742V214.919H233.598V223.101Z" fill="white"/>
<path d="M221.216 223.101H228.36V214.919H221.216V223.101Z" fill="white"/>
<path d="M233.598 235.715H240.742V227.534H233.598V235.715Z" fill="white"/>
<path d="M221.216 235.715H228.36V227.534H221.216V235.715Z" fill="white"/>
<path d="M233.598 248.317H240.742V240.136H233.598V248.317Z" fill="white"/>
<path d="M221.216 248.317H228.36V240.136H221.216V248.317Z" fill="white"/>
<path d="M233.598 260.932H240.742V252.75H233.598V260.932Z" fill="white"/>
<path d="M221.216 260.932H228.36V252.75H221.216V260.932Z" fill="white"/>
<path d="M233.598 273.546H240.742V265.364H233.598V273.546Z" fill="white"/>
<path d="M221.216 273.546H228.36V265.364H221.216V273.546Z" fill="white"/>
<path d="M233.598 286.295H240.742V278.113H233.598V286.295Z" fill="white"/>
<path d="M221.216 286.295H228.36V278.113H221.216V286.295Z" fill="white"/>
<path d="M233.598 299.031H240.742V290.849H233.598V299.031Z" fill="white"/>
<path d="M221.216 299.031H228.36V290.849H221.216V299.031Z" fill="white"/>
<path d="M233.598 311.78H240.742V303.598H233.598V311.78Z" fill="white"/>
<path d="M221.216 311.78H228.36V303.598H221.216V311.78Z" fill="white"/>
<path d="M233.598 324.54H240.742V316.359H233.598V324.54Z" fill="white"/>
<path d="M221.216 324.54H228.36V316.359H221.216V324.54Z" fill="white"/>
<path d="M59.111 188.946H66.2546V179.311H59.111V188.946Z" fill="white"/>
<path d="M46.7406 188.946H53.8843V179.311H46.7406V188.946Z" fill="white"/>
<path d="M59.111 203.453H66.2546V193.818H59.111V203.453Z" fill="white"/>
<path d="M46.7406 203.453H53.8843V193.818H46.7406V203.453Z" fill="white"/>
<path d="M59.111 217.948H66.2546V208.313H59.111V217.948Z" fill="white"/>
<path d="M46.7406 217.948H53.8843V208.313H46.7406V217.948Z" fill="white"/>
<path d="M59.111 232.455H66.2546V222.82H59.111V232.455Z" fill="white"/>
<path d="M46.7406 232.455H53.8843V222.82H46.7406V232.455Z" fill="white"/>
<path d="M59.111 247.316H66.2546V237.681H59.111V247.316Z" fill="white"/>
<path d="M46.7406 247.316H53.8843V237.681H46.7406V247.316Z" fill="white"/>
<path d="M59.111 262.177H66.2546V252.542H59.111V262.177Z" fill="white"/>
<path d="M46.7406 262.177H53.8843V252.542H46.7406V262.177Z" fill="white"/>
<path d="M59.111 277.026H66.2546V267.391H59.111V277.026Z" fill="white"/>
<path d="M46.7406 277.026H53.8843V267.391H46.7406V277.026Z" fill="white"/>
<path d="M59.111 291.9H66.2546V282.265H59.111V291.9Z" fill="white"/>
<path d="M46.7406 291.9H53.8843V282.265H46.7406V291.9Z" fill="white"/>
<path d="M59.111 306.919H66.2546V297.285H59.111V306.919Z" fill="white"/>
<path d="M46.7406 306.919H53.8843V297.285H46.7406V306.919Z" fill="white"/>
<path d="M59.111 321.927H66.2546V312.292H59.111V321.927Z" fill="white"/>
<path d="M46.7406 321.927H53.8843V312.292H46.7406V321.927Z" fill="white"/>
<path d="M59.111 336.947H66.2546V327.312H59.111V336.947Z" fill="white"/>
<path d="M46.7406 336.947H53.8843V327.312H46.7406V336.947Z" fill="white"/>
<path d="M59.111 351.967H66.2546V342.332H59.111V351.967Z" fill="white"/>
<path d="M46.7406 351.967H53.8843V342.332H46.7406V351.967Z" fill="white"/>
<path d="M207.1 186.162H214.243V177.98H207.1V186.162Z" fill="white"/>
<path d="M194.717 186.162H201.861V177.98H194.717V186.162Z" fill="white"/>
<path d="M207.1 173.547H214.243V165.366H207.1V173.547Z" fill="white"/>
<path d="M194.717 173.547H201.861V165.366H194.717V173.547Z" fill="white"/>
<path d="M207.1 160.933H214.243V152.751H207.1V160.933Z" fill="white"/>
<path d="M194.717 160.933H201.861V152.751H194.717V160.933Z" fill="white"/>
<path d="M207.1 198.471H214.243V190.289H207.1V198.471Z" fill="white"/>
<path d="M194.717 198.471H201.861V190.289H194.717V198.471Z" fill="white"/>
<path d="M207.1 210.78H214.243V202.598H207.1V210.78Z" fill="white"/>
<path d="M194.717 210.78H201.861V202.598H194.717V210.78Z" fill="white"/>
<path d="M207.1 223.101H214.243V214.919H207.1V223.101Z" fill="white"/>
<path d="M194.717 223.101H201.861V214.919H194.717V223.101Z" fill="white"/>
<path d="M207.1 235.715H214.243V227.534H207.1V235.715Z" fill="white"/>
<path d="M194.717 235.715H201.861V227.534H194.717V235.715Z" fill="white"/>
<path d="M207.1 248.317H214.243V240.136H207.1V248.317Z" fill="white"/>
<path d="M194.717 248.317H201.861V240.136H194.717V248.317Z" fill="white"/>
<path d="M207.1 260.932H214.243V252.75H207.1V260.932Z" fill="white"/>
<path d="M194.717 260.932H201.861V252.75H194.717V260.932Z" fill="white"/>
<path d="M207.1 273.546H214.243V265.364H207.1V273.546Z" fill="white"/>
<path d="M194.717 273.546H201.861V265.364H194.717V273.546Z" fill="white"/>
<path d="M207.1 286.295H214.243V278.113H207.1V286.295Z" fill="white"/>
<path d="M194.717 286.295H201.861V278.113H194.717V286.295Z" fill="white"/>
<path d="M207.1 299.031H214.243V290.849H207.1V299.031Z" fill="white"/>
<path d="M194.717 299.031H201.861V290.849H194.717V299.031Z" fill="white"/>
<path d="M207.1 311.78H214.243V303.598H207.1V311.78Z" fill="white"/>
<path d="M194.717 311.78H201.861V303.598H194.717V311.78Z" fill="white"/>
<path d="M207.1 324.54H214.243V316.359H207.1V324.54Z" fill="white"/>
<path d="M194.717 324.54H201.861V316.359H194.717V324.54Z" fill="white"/>
<path d="M526.316 130.075H394.837C394.837 130.075 407.879 94.4668 427.942 94.4668C448.005 94.4668 454.282 119.048 454.282 119.048C454.282 119.048 467.824 105.689 478.949 105.689C490.073 105.689 499.708 123.334 499.708 123.334C499.708 123.334 515.448 113.846 526.316 130.075Z" fill="#EBEBEB"/>
<path d="M452.731 59.6523H391.283C391.283 59.6523 405.009 39.7601 415.828 39.7601C426.647 39.7601 429.847 53.0216 429.847 53.0216C429.847 53.0216 437.479 46.8304 444.5 47.9417C451.522 49.0529 452.731 59.6523 452.731 59.6523Z" fill="#EBEBEB"/>
<path d="M167.047 119.476H47.3757C47.3757 119.476 63.7633 82.8416 81.2988 80.5947C98.8343 78.3479 107.211 107.777 107.211 107.777C107.211 107.777 118.519 97.3609 127.409 97.3609C136.299 97.3609 143.174 111.086 143.174 111.086C143.174 111.086 160.941 101.684 167.047 119.476Z" fill="#EBEBEB"/>
<path d="M280.795 28.9042H199.944C199.944 28.9042 213.828 2.39341 228.897 2.03928C243.966 1.68515 251.879 22.1025 251.879 22.1025C251.879 22.1025 275.312 3.26042 280.795 28.9042Z" fill="#EBEBEB"/>
<path d="M336.003 459.085C445.959 459.085 535.096 453.186 535.096 445.909C535.096 438.632 445.959 432.733 336.003 432.733C226.047 432.733 136.909 438.632 136.909 445.909C136.909 453.186 226.047 459.085 336.003 459.085Z" fill="#EBEBEB"/>
<path d="M573 395.622L501.454 395.916L429.92 396.025L286.84 396.221L143.76 396.025L72.2258 395.916L0.679688 395.622L72.2258 395.317L143.76 395.207L286.84 395.012L429.92 395.207L501.454 395.317L573 395.622Z" fill="#263238"/>
<path d="M277.913 206.75C298.575 228.242 360.645 323.893 365.481 326.751C365.481 326.751 365.481 389.309 330.911 376.817C296.34 364.325 264.652 252.091 257.887 216.311C254.321 197.421 261.037 189.214 277.913 206.75Z" fill="#D3766A"/>
<path d="M272.651 280.702L336.003 273.497C336.003 273.497 296.707 221.367 276.399 202.757C255.225 183.365 244.845 186.088 254.663 222.82C264.53 259.772 272.651 280.702 272.651 280.702Z" fill="#6DDAD3"/>
<path d="M269.671 246.193C268.975 247.94 268.531 249.778 268.352 251.651C270.562 248.597 271.938 245.019 272.345 241.271C271.215 242.77 270.314 244.429 269.671 246.193ZM305.255 247.621C303.512 246.924 301.678 246.48 299.808 246.302C302.857 248.515 306.431 249.892 310.176 250.296C308.679 249.163 307.02 248.261 305.255 247.621V247.621ZM295.815 272.264C295.07 270.541 294.083 268.934 292.885 267.489C293.165 269.343 293.708 271.148 294.497 272.85C295.218 274.583 296.198 276.197 297.403 277.637C297.129 275.78 296.595 273.971 295.815 272.264V272.264ZM258.644 192.89C258.327 192.218 258.009 191.559 257.643 190.9C257.208 190.857 256.771 190.857 256.336 190.9C256.629 191.791 256.959 192.646 257.325 193.501C258.059 195.23 259.042 196.843 260.244 198.288C259.969 196.422 259.43 194.604 258.644 192.89V192.89ZM331.656 267.794L330.435 268.283C328.706 269.027 327.091 270.009 325.635 271.201C327.497 270.925 329.31 270.387 331.021 269.602C331.509 269.382 331.985 269.15 332.462 268.893L331.656 267.794ZM282.81 217.472C281.086 218.211 279.475 219.189 278.023 220.378C279.886 220.111 281.699 219.576 283.409 218.79C285.135 218.049 286.746 217.067 288.196 215.872C286.324 216.141 284.502 216.679 282.786 217.472H282.81ZM278.561 217.581C278.489 217.63 278.419 217.683 278.353 217.74H278.573C278.573 217.74 278.536 217.618 278.536 217.581H278.561Z" fill="white"/>
<path d="M275.691 269.309C277.169 268.967 278.719 268.832 280.221 268.625L284.886 267.978C288.024 267.538 291.175 267.147 294.325 266.756C300.626 266.024 306.928 265.254 313.241 264.632C314.975 264.461 316.721 264.29 318.455 264.155C320.189 264.021 322.118 264.021 323.95 263.887C324.06 263.887 324.06 264.046 323.95 264.058C322.399 264.29 320.861 264.644 319.31 264.888C317.759 265.132 316.11 265.352 314.511 265.548C311.372 265.95 308.21 266.317 305.059 266.671C298.856 267.343 292.64 268.051 286.413 268.6L281.21 269.04C279.391 269.199 277.547 269.467 275.715 269.455C275.701 269.45 275.689 269.441 275.679 269.429C275.669 269.418 275.663 269.404 275.661 269.389C275.658 269.374 275.66 269.359 275.665 269.345C275.67 269.331 275.679 269.318 275.691 269.309V269.309Z" fill="#263238"/>
<path opacity="0.1" d="M303.386 277.209L272.663 280.702C272.663 280.702 264.542 259.772 254.663 222.82C250.499 207.238 249.974 197.775 252.368 193.513L303.386 277.209Z" fill="black"/>
<path d="M290.223 410.997H193.863C193.069 407.895 192.3 404.891 191.531 401.838C190.652 398.382 189.785 395.012 188.954 391.727C188.771 390.994 188.576 390.262 188.393 389.541C187.758 387.026 187.135 384.583 186.524 382.214C186.158 380.761 185.792 379.333 185.437 377.916C185.083 376.5 184.705 375.059 184.351 373.679C184.253 373.312 184.167 372.946 184.07 372.592L183.777 371.371L183.41 369.942C183.276 369.441 183.154 368.953 183.032 368.465C182.788 367.536 182.556 366.621 182.336 365.729C181.994 364.41 181.664 363.116 181.347 361.858C181.212 361.309 181.066 360.759 180.931 360.222C180.699 359.343 180.48 358.488 180.272 357.645C180.125 357.084 179.991 356.534 179.857 355.997C179.287 353.782 178.758 351.707 178.269 349.769C178.135 349.256 178.013 348.755 177.879 348.267C177.671 347.424 177.463 346.618 177.268 345.825C177.13 345.336 177.008 344.86 176.902 344.396C176.474 342.735 176.084 341.221 175.754 339.89C175.656 339.536 175.571 339.194 175.485 338.864C175.265 337.985 175.058 337.204 174.887 336.508C174.814 336.227 174.752 335.958 174.679 335.714L174.484 334.944C174.484 334.773 174.398 334.603 174.362 334.456L174.191 333.797C174.191 333.691 174.166 333.593 174.118 333.504L173.898 332.637H267.693C267.693 332.637 270.782 343.285 275.728 360.454C276.729 363.946 277.816 367.781 278.976 371.725C282.261 383.179 286.095 396.538 290.223 410.997Z" fill="#37474F"/>
<path d="M209.64 410.997H207.198C203.632 396.237 200.176 381.449 196.83 366.633C196.016 363.026 195.202 359.42 194.388 355.814L194.168 354.8C194.164 354.765 194.173 354.73 194.193 354.7C194.213 354.671 194.243 354.65 194.277 354.641C194.311 354.632 194.347 354.636 194.379 354.652C194.411 354.668 194.436 354.694 194.449 354.727C194.449 354.837 194.51 354.947 194.547 355.057C195.63 358.932 196.708 362.811 197.783 366.694C201.91 381.421 205.863 396.188 209.64 410.997Z" fill="#263238"/>
<path d="M264.652 332.649L260.513 353.408L257.118 370.406L251.342 399.371L250.744 402.339L249.754 407.284L248.985 410.997H193.851C193.07 407.883 192.288 404.891 191.531 401.838C190.652 398.382 189.785 395.012 188.954 391.727C188.771 390.994 188.576 390.262 188.393 389.541C187.758 387.026 187.135 384.583 186.524 382.214C186.158 380.761 185.792 379.333 185.437 377.916C185.083 376.5 184.705 375.059 184.351 373.679C184.253 373.312 184.167 372.946 184.07 372.592L183.777 371.371L183.41 369.942C183.276 369.441 183.154 368.953 183.032 368.465C182.788 367.536 182.556 366.621 182.336 365.729C181.994 364.41 181.664 363.116 181.347 361.858C181.2 361.297 181.066 360.759 180.931 360.222C180.699 359.343 180.48 358.488 180.272 357.645C180.125 357.084 179.991 356.534 179.857 355.997C179.287 353.782 178.758 351.707 178.269 349.769C178.135 349.256 178.013 348.755 177.879 348.267C177.671 347.424 177.463 346.618 177.268 345.825C177.13 345.336 177.008 344.86 176.902 344.396C176.474 342.735 176.084 341.221 175.754 339.89C175.656 339.536 175.571 339.194 175.485 338.864C175.265 337.985 175.058 337.204 174.887 336.508C174.814 336.227 174.752 335.958 174.679 335.714L174.484 334.944C174.484 334.773 174.398 334.603 174.362 334.456L174.191 333.797C174.191 333.691 174.166 333.593 174.118 333.504L173.898 332.637L264.652 332.649Z" fill="#263238"/>
<path d="M264.665 332.612C264.665 333.125 264.274 338.718 263.37 347.266C263.114 349.708 262.808 352.492 262.454 355.423C261.905 360.051 261.233 365.192 260.378 370.553C258.937 379.968 257.057 390.237 254.615 400.275C253.748 403.938 252.795 407.468 251.782 410.972H130.706C132.135 392.521 133.442 375.828 134.48 362.676C135.933 344.164 136.922 332.575 136.922 332.575H246.751L264.665 332.612Z" fill="#37474F"/>
<path d="M264.408 343.737C264.274 348.072 264.09 352.394 263.81 356.705C263.516 361.382 263.089 366.047 262.478 370.711C262.478 370.882 262.478 371.053 262.417 371.224C261.848 375.596 261.192 379.955 260.451 384.303C259.755 388.357 259.23 392.728 257.447 396.514C256.77 397.966 255.806 399.266 254.614 400.336C253.524 401.334 252.188 402.025 250.743 402.339C250.507 402.398 250.266 402.439 250.023 402.461H249.815C249.86 402.486 249.896 402.524 249.92 402.569C249.944 402.615 249.954 402.666 249.95 402.717C249.95 404.17 249.95 405.648 249.779 407.089C249.779 407.15 249.779 407.211 249.779 407.272C249.632 408.493 249.4 409.775 249.168 411.021H247.092V410.948C247.459 409.58 247.764 408.2 248.106 406.82C248.448 405.44 248.936 404.036 249.266 402.607C249.284 402.554 249.318 402.507 249.364 402.473C248.046 402.536 246.74 402.195 245.623 401.494C244.505 400.793 243.629 399.767 243.111 398.553C242.59 396.696 242.557 394.736 243.014 392.863C243.392 390.421 243.759 387.905 244.137 385.426C244.845 380.871 245.761 376.365 246.579 371.835L246.946 369.771C248.57 360.552 250.267 351.332 252.306 342.198C252.38 341.819 252.465 341.441 252.551 341.062C252.636 340.684 253.015 340.879 252.99 341.123C252.929 341.734 252.868 342.345 252.795 342.967C252.437 346.476 252.03 349.968 251.574 353.445C250.988 357.535 250.585 361.651 250.011 365.741C249.815 367.134 249.62 368.526 249.412 369.918C248.472 376.646 247.495 383.35 246.347 390.079C245.81 393.192 243.905 398.773 248.35 399.738C249.377 399.965 250.451 399.832 251.391 399.359C253.37 398.166 254.849 396.297 255.555 394.096C256.654 390.431 257.45 386.682 257.936 382.886C258.669 378.816 259.32 374.709 259.89 370.565C260.622 365.428 261.388 360.295 262.185 355.166C262.584 352.553 262.991 349.94 263.407 347.327L263.993 343.663C264.005 343.407 264.408 343.48 264.408 343.737Z" fill="#263238"/>
<path d="M157.266 375.926C162.308 375.873 167.324 375.197 172.2 373.911C174.447 373.337 176.669 372.616 178.88 371.896C181.07 371.292 183.119 370.263 184.912 368.868C188.307 365.937 189.882 361.333 191.36 357.23C192.964 352.61 194.265 347.891 195.255 343.102C195.255 342.87 195.646 342.955 195.658 343.175C195.775 348.591 195.088 353.994 193.619 359.208C192.398 363.641 190.761 368.574 187.183 371.676C183.605 374.778 178.318 376.097 173.494 376.683C168.086 377.312 162.619 377.238 157.229 376.463C157.158 376.458 157.091 376.425 157.044 376.371C156.997 376.317 156.974 376.247 156.979 376.176C156.984 376.105 157.016 376.038 157.07 375.991C157.124 375.944 157.194 375.921 157.266 375.926V375.926Z" fill="#263238"/>
<path d="M148.852 343.248C148.584 350.021 148.299 356.803 147.997 363.592C147.305 379.394 146.544 395.195 145.714 410.997H143.443C144.485 395.163 145.58 379.337 146.727 363.519C147.224 356.754 147.737 349.993 148.266 343.236C148.268 343.158 148.3 343.084 148.356 343.03C148.412 342.977 148.488 342.947 148.565 342.949C148.643 342.951 148.717 342.983 148.771 343.039C148.825 343.095 148.854 343.17 148.852 343.248V343.248Z" fill="#263238"/>
<path d="M285.509 382.764L121.255 370.308C121.255 370.308 154.298 239.342 219.544 191.193C236.224 178.896 254.48 186.784 262.698 195.98C283.58 219.401 285.998 382.239 285.509 382.764Z" fill="#6DDAD3"/>
<path d="M227.139 197.152C226.45 198.898 226.006 200.73 225.82 202.598C226.944 201.107 227.849 199.462 228.506 197.714C229.196 195.968 229.639 194.135 229.825 192.267C228.706 193.762 227.801 195.406 227.139 197.152V197.152ZM209.31 267.807C208.608 269.552 208.168 271.391 208.004 273.265C210.203 270.206 211.575 266.631 211.985 262.885C210.863 264.39 209.963 266.047 209.31 267.807V267.807ZM150.623 298.103C149.928 299.851 149.484 301.689 149.304 303.561C151.514 300.507 152.89 296.93 153.297 293.182C152.185 294.692 151.285 296.348 150.623 298.103V298.103ZM197.99 342.735C197.281 344.475 196.837 346.31 196.672 348.182C198.871 345.123 200.243 341.547 200.652 337.802C199.533 339.31 198.636 340.971 197.99 342.735ZM269.671 246.168C268.975 247.916 268.531 249.754 268.352 251.627C270.562 248.572 271.938 244.995 272.345 241.247C271.213 242.753 270.311 244.42 269.671 246.193V246.168ZM240.437 335.006C239.727 336.745 239.278 338.581 239.106 340.452C240.229 338.961 241.129 337.316 241.78 335.567C242.475 333.823 242.919 331.99 243.099 330.121C241.98 331.612 241.084 333.257 240.437 335.006V335.006ZM181.249 242.847C180.552 244.59 180.108 246.424 179.93 248.293C182.143 245.241 183.516 241.662 183.911 237.913C182.786 239.418 181.889 241.08 181.249 242.847V242.847ZM246.872 219.401C245.131 218.698 243.296 218.253 241.426 218.082C242.919 219.198 244.564 220.094 246.311 220.744C248.055 221.45 249.895 221.895 251.769 222.063C250.274 220.944 248.624 220.047 246.872 219.401V219.401ZM265.482 278.272C263.74 277.571 261.906 277.127 260.036 276.953C261.526 278.074 263.171 278.971 264.921 279.615C266.662 280.319 268.497 280.768 270.367 280.946C268.875 279.838 267.229 278.954 265.482 278.321V278.272ZM270.477 348.633C268.733 347.937 266.899 347.493 265.031 347.315C266.52 348.439 268.165 349.34 269.915 349.989C271.659 350.682 273.493 351.126 275.361 351.308C273.864 350.209 272.22 349.325 270.477 348.682V348.633ZM153.553 342.845C151.81 342.148 149.976 341.704 148.107 341.526C151.155 343.739 154.73 345.116 158.475 345.519C156.968 344.413 155.311 343.529 153.553 342.894V342.845ZM195.817 297.663C194.074 296.963 192.24 296.515 190.371 296.332C191.862 297.456 193.507 298.36 195.255 299.019C197.001 299.708 198.834 300.152 200.701 300.338C199.207 299.23 197.562 298.342 195.817 297.7V297.663ZM258.644 192.853C258.473 192.487 258.302 192.133 258.119 191.779C257.521 191.327 256.898 190.887 256.226 190.46C256.528 191.484 256.896 192.487 257.325 193.464C258.059 195.194 259.042 196.807 260.244 198.251C259.965 196.398 259.427 194.593 258.644 192.89V192.853ZM210.641 230.831C209.905 229.102 208.922 227.49 207.723 226.044C208.31 229.769 209.868 233.273 212.241 236.204C211.972 234.344 211.433 232.534 210.641 230.831V230.831ZM253.027 375.327C252.29 373.602 251.312 371.99 250.121 370.54C250.391 372.398 250.925 374.207 251.708 375.913C252.404 377.519 253.303 379.03 254.382 380.407H254.578C254.296 378.651 253.774 376.942 253.027 375.327V375.327ZM237.433 290.227C236.69 288.502 235.708 286.89 234.514 285.44C235.121 289.156 236.673 292.655 239.02 295.6C238.75 293.742 238.216 291.933 237.433 290.227ZM125.553 355.118C125.48 355.374 125.406 355.63 125.321 355.875C125.48 356.046 125.626 356.229 125.773 356.4C125.724 355.981 125.65 355.565 125.553 355.154V355.118ZM174.398 322.538C173.657 320.816 172.674 319.208 171.48 317.763C172.07 321.483 173.628 324.983 175.998 327.911C175.707 326.064 175.156 324.267 174.361 322.574L174.398 322.538ZM184.875 369.551C184.134 367.825 183.152 366.214 181.957 364.765C182.562 368.488 184.118 371.992 186.475 374.937C186.188 373.089 185.637 371.291 184.839 369.6L184.875 369.551ZM267.021 312.989C265.297 313.732 263.685 314.715 262.234 315.907C264.092 315.633 265.902 315.094 267.607 314.307C269.339 313.571 270.955 312.588 272.406 311.389C270.529 311.668 268.703 312.219 266.984 313.025L267.021 312.989ZM137.459 320.12L136.836 321.805C138.153 321.17 139.384 320.369 140.499 319.424C139.451 319.561 138.42 319.806 137.422 320.157L137.459 320.12ZM221.204 360.808C219.478 361.543 217.866 362.522 216.417 363.714C218.278 363.442 220.091 362.908 221.802 362.127C223.527 361.379 225.139 360.392 226.589 359.196C224.71 359.473 222.883 360.029 221.167 360.845L221.204 360.808ZM146.312 371.701L145.469 372.103L148.339 372.323C149.539 371.718 150.662 370.972 151.685 370.101C149.813 370.387 147.992 370.938 146.275 371.737L146.312 371.701ZM175.082 271.287C173.362 272.039 171.751 273.021 170.295 274.205C174.017 273.604 177.521 272.052 180.467 269.699C178.591 269.975 176.764 270.522 175.045 271.323L175.082 271.287ZM217.187 318.056C215.46 318.802 213.849 319.788 212.4 320.987C216.125 320.389 219.63 318.832 222.572 316.469C220.696 316.749 218.871 317.296 217.15 318.093L217.187 318.056ZM239.167 253.764C237.445 254.512 235.834 255.494 234.38 256.682C238.102 256.092 241.604 254.538 244.54 252.176C242.656 252.453 240.822 253 239.094 253.8L239.167 253.764Z" fill="white"/>
<path d="M253.393 223.345C243.917 221.941 234.295 202.818 232.634 189.776C232.524 188.873 247.288 160.701 249.595 154.827C250.072 153.606 282.993 178.469 282.993 178.469C282.993 178.469 274.445 189.361 270.452 199.655C270.172 200.51 262.552 224.688 253.393 223.345Z" fill="#D3766A"/>
<path d="M283.043 178.469C283.043 178.469 274.495 189.361 270.489 199.643C270.416 199.851 269.928 201.365 269.122 203.526C252.197 194.978 245.297 179.714 242.513 169.64C245.713 163.229 248.692 157.209 249.645 154.827C250.121 153.618 283.043 178.469 283.043 178.469Z" fill="#263238"/>
<path d="M257.203 109.072C247.569 120.221 237.934 160.432 243.441 172.79C251.44 190.692 272.748 201.45 289.991 190.008C306.757 178.908 318.382 126.277 311.458 114.213C301.274 96.4328 271.417 92.6107 257.203 109.072Z" fill="#D3766A"/>
<path d="M282.945 141.737C281.723 141.835 280.502 141.737 279.281 141.737C277.985 141.913 276.667 141.656 275.532 141.004C275.216 140.729 274.999 140.358 274.915 139.947C274.831 139.537 274.885 139.11 275.068 138.733C275.545 138.044 276.197 137.496 276.957 137.143C277.717 136.791 278.557 136.649 279.391 136.73C281.104 136.629 282.792 137.169 284.129 138.244C284.412 138.511 284.612 138.853 284.706 139.23C284.8 139.607 284.784 140.003 284.659 140.371C284.534 140.739 284.306 141.064 284.002 141.306C283.698 141.548 283.331 141.698 282.945 141.737V141.737Z" fill="#263238"/>
<path d="M281.87 147.635C281.87 147.525 281.626 147.72 281.602 147.843C281.15 150.59 280.161 153.667 277.511 154.082C277.425 154.082 277.401 154.229 277.511 154.241C280.6 154.412 281.87 150.321 281.87 147.635Z" fill="#263238"/>
<path d="M279.989 144.289C275.654 143.068 273.554 151.848 277.547 152.959C281.54 154.07 283.616 145.303 279.989 144.289Z" fill="#263238"/>
<path d="M297.623 151.017C297.623 150.92 297.806 151.201 297.781 151.311C297.049 153.997 296.658 157.209 298.893 158.637C298.966 158.637 298.893 158.821 298.831 158.784C295.937 157.709 296.499 153.46 297.623 151.017Z" fill="#263238"/>
<path d="M300.724 148.771C305.169 149.479 303.423 158.308 299.308 157.648C295.192 156.989 297 148.172 300.724 148.771Z" fill="#263238"/>
<path d="M305.23 144.423C304.108 143.902 303.016 143.319 301.958 142.677C300.717 142.219 299.664 141.359 298.966 140.235C298.813 139.842 298.795 139.409 298.914 139.005C299.034 138.601 299.284 138.247 299.625 138C301.127 137.023 302.862 137.475 304.4 138.232C305.969 138.947 307.218 140.217 307.905 141.798C308.049 142.17 308.081 142.576 307.998 142.966C307.914 143.355 307.717 143.712 307.433 143.992C307.148 144.271 306.788 144.461 306.396 144.538C306.005 144.614 305.6 144.575 305.23 144.423V144.423Z" fill="#263238"/>
<path d="M272.785 171.142C273.274 171.935 273.713 172.961 274.678 173.279C275.696 173.498 276.749 173.498 277.767 173.279C277.788 173.277 277.809 173.281 277.826 173.292C277.844 173.303 277.858 173.319 277.866 173.338C277.874 173.357 277.876 173.378 277.872 173.398C277.867 173.418 277.856 173.436 277.841 173.45C277.327 173.889 276.703 174.181 276.037 174.295C275.371 174.409 274.686 174.34 274.055 174.097C273.535 173.823 273.109 173.4 272.83 172.882C272.552 172.365 272.434 171.776 272.492 171.191C272.492 171.032 272.712 171.02 272.785 171.142Z" fill="#263238"/>
<path d="M277.572 163.705C278.007 164.942 278.693 166.075 279.586 167.035C280.479 167.996 281.56 168.762 282.762 169.286C283.806 169.757 284.912 170.078 286.046 170.238C286.259 170.286 286.476 170.31 286.694 170.311C286.901 170.324 287.109 170.324 287.316 170.311C287.467 170.321 287.617 170.279 287.741 170.192C287.865 170.106 287.956 169.98 288 169.835V169.835C288.006 169.738 288.006 169.64 288 169.542V169.298C288.55 167.222 289.111 163.998 289.111 163.998C289.783 164.56 293.251 167.246 293.459 166.135C295.083 156.977 296.878 146.792 296.56 137.329C296.56 137.261 296.533 137.195 296.485 137.147C296.437 137.099 296.372 137.072 296.304 137.072C296.236 137.072 296.171 137.099 296.123 137.147C296.074 137.195 296.047 137.261 296.047 137.329C294.143 146.072 293.788 155.096 292.006 163.913C290.811 162.931 289.483 162.126 288.061 161.519C287.744 161.519 287.097 167.771 286.767 168.675C286.77 168.708 286.77 168.74 286.767 168.773C283.103 168.382 280.759 166.685 277.914 163.522C277.73 163.314 277.462 163.449 277.572 163.705Z" fill="#263238"/>
<path d="M285.07 168.883C283.565 170.096 281.774 170.904 279.868 171.227C278.824 171.373 277.761 171.189 276.827 170.702C274.8 169.615 275.215 167.613 276.021 166.001C276.46 165.151 276.997 164.356 277.621 163.632C279.479 166.133 282.089 167.973 285.07 168.883Z" fill="#263238"/>
<path d="M279.868 171.227C278.824 171.373 277.761 171.189 276.827 170.702C274.8 169.615 275.215 167.613 276.021 166.001C278.292 166.795 280.209 168.932 279.868 171.227Z" fill="#FF97B8"/>
<path d="M315.146 129.867C298.05 137.023 280.759 117.229 280.759 117.229C278.8 120.233 275.923 122.524 272.556 123.761C269.19 124.997 265.514 125.113 262.076 124.091C262.076 124.091 253.87 148.844 247.178 147.354C237.006 145.18 241.072 109.939 245.676 103.808C250.279 97.6784 259.316 97.7028 259.316 97.7028C259.316 97.7028 261.038 92.5618 268.34 89.0572C276.399 85.174 298.868 97.3487 298.868 97.3487C300.908 94.4239 303.606 92.0188 306.745 90.3272C307.502 89.9013 308.339 89.6337 309.203 89.5406C310.067 89.4474 310.941 89.5306 311.773 89.7852C312.604 90.0398 313.375 90.4605 314.038 91.0217C314.702 91.5829 315.245 92.2731 315.634 93.0503C313.966 94.655 312.685 96.6174 311.886 98.7896C309.138 105.97 315.207 107.228 316.563 100.475C317.151 97.9686 316.822 95.3344 315.634 93.0503C319.542 89.2648 324.732 88.8496 327.211 91.8292C331.766 97.2876 329.372 123.933 315.146 129.867Z" fill="#263238"/>
<path d="M273.212 161.226C271.109 160.552 269.237 159.3 267.81 157.614C266.383 155.928 265.458 153.875 265.14 151.689C264.823 149.503 265.125 147.271 266.014 145.249C266.902 143.226 268.341 141.494 270.165 140.249C271.99 139.004 274.128 138.296 276.335 138.207C278.542 138.117 280.73 138.649 282.65 139.742C284.57 140.835 286.144 142.445 287.193 144.389C288.243 146.333 288.726 148.532 288.586 150.737V150.737C288.471 152.527 287.949 154.267 287.06 155.826C286.172 157.384 284.94 158.72 283.458 159.731C281.976 160.742 280.283 161.402 278.508 161.661C276.732 161.92 274.921 161.772 273.212 161.226ZM279.953 140.284C279.161 140.027 278.341 139.867 277.511 139.807C274.908 139.623 272.333 140.438 270.311 142.087C268.288 143.736 266.972 146.095 266.629 148.681C266.286 151.268 266.943 153.888 268.466 156.007C269.989 158.126 272.263 159.584 274.825 160.083C277.386 160.582 280.041 160.086 282.248 158.694C284.456 157.303 286.049 155.122 286.703 152.596C287.358 150.07 287.024 147.39 285.769 145.102C284.515 142.814 282.435 141.09 279.953 140.284V140.284Z" fill="#FFC727"/>
<path d="M299.235 166.159C295.01 164.572 292.812 158.833 294.35 152.837C295.006 149.968 296.548 147.379 298.758 145.437C299.651 144.537 300.763 143.884 301.983 143.542C303.204 143.2 304.493 143.18 305.724 143.486C306.954 143.791 308.084 144.41 309.004 145.283C309.924 146.156 310.601 147.252 310.97 148.465C312.005 151.221 312.154 154.23 311.397 157.074C309.834 163.375 304.742 167.564 300.041 166.392C299.766 166.339 299.496 166.261 299.235 166.159V166.159ZM305.841 145.217L305.267 145.046C304.281 144.847 303.261 144.888 302.293 145.167C301.326 145.445 300.44 145.952 299.711 146.646C297.76 148.377 296.399 150.674 295.816 153.216C294.46 158.686 296.475 163.913 300.346 164.865C304.217 165.818 308.442 162.154 309.797 156.696C310.477 154.176 310.349 151.507 309.431 149.064C309.136 148.206 308.664 147.421 308.045 146.758C307.427 146.096 306.676 145.57 305.841 145.217V145.217Z" fill="#FFC727"/>
<path d="M287.939 152.007L287.182 150.627C289.221 149.491 293.666 148.319 295.901 151.848L294.558 152.678C292.567 149.515 288.122 151.897 287.939 152.007Z" fill="#FFC727"/>
<path d="M235.821 144.802L234.6 143.825C235.064 143.251 239.179 138.208 242.733 138.33C246.066 138.452 266.41 144.436 267.277 144.741L266.826 146.255C260.989 144.521 245.26 139.991 242.684 139.905C240.315 139.82 236.932 143.41 235.821 144.802Z" fill="#FFC727"/>
<path d="M251.537 145.058C251.537 145.058 248.252 129.33 241.462 130.002C234.673 130.673 233.525 150.908 238.959 156.073C239.608 156.783 240.394 157.355 241.27 157.753C242.145 158.151 243.092 158.368 244.054 158.391C245.016 158.414 245.972 158.242 246.866 157.886C247.759 157.529 248.571 156.996 249.253 156.317L251.537 145.058Z" fill="#D3766A"/>
<path d="M241.28 135.814C241.182 135.753 241.096 135.888 241.17 135.973C244.919 139.734 245.493 144.948 245.309 150.004C244.674 147.757 243.233 146.047 240.303 146.695C240.156 146.695 240.193 146.951 240.303 146.988C241.207 147.071 242.062 147.435 242.75 148.028C243.437 148.622 243.922 149.415 244.137 150.297C244.495 151.77 244.696 153.276 244.735 154.791C244.735 155.291 245.59 155.389 245.639 154.791C245.633 154.75 245.633 154.709 245.639 154.669C248.252 149.027 247.227 139.038 241.28 135.814Z" fill="#263238"/>
<path d="M335.258 255.449C338.347 247.316 409.979 262.043 407.122 274.511C396.632 320.181 367.398 360.991 360.01 370.321C350.315 382.532 331.021 379.821 323.987 372.421C313.791 361.687 332.205 263.508 335.258 255.449Z" fill="#D3766A"/>
<path d="M330.215 277.869C328.623 282.245 327.361 286.736 326.441 291.301C325.403 295.819 324.5 300.362 323.767 304.929C322.319 314.168 321.503 323.494 321.325 332.844C321.191 338.071 321.325 343.285 321.325 348.511C321.325 348.633 321.52 348.621 321.52 348.511C321.52 343.883 321.801 339.218 322.18 334.603C322.558 329.987 323.022 325.285 323.621 320.657C324.781 311.56 326.063 302.475 327.711 293.45C328.167 290.919 328.644 288.395 329.14 285.879C329.665 283.266 330.264 280.665 330.605 278.015C330.605 277.82 330.3 277.649 330.215 277.869Z" fill="#263238"/>
<path d="M317.979 126.729C317.508 132.948 316.577 139.123 315.195 145.205C314.963 146.243 314.706 147.305 314.45 148.355C313.424 152.532 312.203 156.732 310.786 160.774C310.461 161.751 310.119 162.716 309.761 163.668C305.426 175.379 299.699 185.453 293.251 189.727C291.614 190.825 289.876 191.766 288.061 192.536C278.819 187.145 271.099 179.491 265.631 170.295C260.162 161.098 257.123 150.661 256.8 139.966L254.846 139.429C255.152 138.953 255.469 138.464 255.774 137.951C256.08 137.438 256.458 136.791 256.788 136.181C257.277 120.459 263.628 105.488 274.592 94.2104C289.942 90.0829 308.32 95.981 316.05 109.45C317.93 112.784 318.504 119.06 317.979 126.729Z" fill="#D3766A"/>
<path d="M285.802 138.599C284.504 138.666 283.204 138.666 281.907 138.599C280.405 138.599 279.208 138.708 277.926 137.817C277.581 137.525 277.344 137.125 277.256 136.681C277.167 136.238 277.231 135.777 277.437 135.375C278.378 133.714 280.209 133.287 282.017 133.25C283.83 133.143 285.619 133.713 287.035 134.85C287.349 135.128 287.575 135.492 287.685 135.897C287.794 136.303 287.782 136.731 287.651 137.13C287.52 137.528 287.275 137.88 286.947 138.141C286.618 138.402 286.22 138.561 285.802 138.599V138.599Z" fill="#263238"/>
<path d="M284.666 144.912C284.666 144.802 284.41 145.009 284.386 145.119C283.909 148.038 282.859 151.298 280.051 151.738C279.965 151.738 279.941 151.897 280.051 151.909C283.323 152.031 284.666 147.696 284.666 144.912Z" fill="#263238"/>
<path d="M282.676 141.309C278.085 140.027 275.862 149.308 280.112 150.492C284.361 151.677 286.523 142.384 282.676 141.309Z" fill="#263238"/>
<path d="M301.359 148.429C301.359 148.331 301.555 148.624 301.518 148.746C300.736 151.591 300.297 154.986 302.739 156.561C302.812 156.561 302.739 156.757 302.678 156.72C299.576 155.511 300.163 151.017 301.359 148.429Z" fill="#263238"/>
<path d="M304.644 146.047C309.346 146.805 307.489 156.158 303.13 155.462C298.771 154.766 300.7 145.412 304.644 146.047Z" fill="#263238"/>
<path d="M309.407 141.444C308.186 140.919 307.123 140.223 305.951 139.6C304.642 139.119 303.527 138.223 302.776 137.048C302.616 136.633 302.597 136.177 302.723 135.751C302.849 135.325 303.112 134.952 303.472 134.691C305.072 133.653 306.903 134.129 308.528 134.935C310.174 135.696 311.479 137.041 312.191 138.708C312.33 139.095 312.355 139.513 312.263 139.913C312.171 140.314 311.967 140.679 311.674 140.967C311.381 141.255 311.012 141.453 310.61 141.537C310.208 141.622 309.791 141.589 309.407 141.444V141.444Z" fill="#263238"/>
<path d="M275.044 169.75C275.569 170.58 276.033 171.667 277.059 172.009C278.133 172.247 279.245 172.247 280.319 172.009C280.341 172.008 280.362 172.014 280.38 172.025C280.399 172.036 280.413 172.053 280.422 172.072C280.432 172.092 280.435 172.113 280.432 172.135C280.428 172.156 280.419 172.176 280.405 172.192C279.859 172.658 279.198 172.968 278.49 173.089C277.783 173.209 277.056 173.136 276.387 172.876C275.839 172.584 275.389 172.135 275.096 171.588C274.802 171.04 274.678 170.417 274.739 169.799C274.726 169.628 274.958 169.628 275.044 169.75Z" fill="#263238"/>
<path d="M280.124 161.861C280.58 163.173 281.302 164.377 282.246 165.396C283.189 166.415 284.334 167.228 285.607 167.784C286.713 168.283 287.885 168.62 289.087 168.785C289.316 168.837 289.549 168.865 289.783 168.87C289.999 168.884 290.215 168.884 290.43 168.87C290.591 168.881 290.75 168.837 290.883 168.746C291.016 168.656 291.114 168.523 291.163 168.37V168.37C291.176 168.272 291.176 168.174 291.163 168.077V168.077V167.82C291.749 165.622 292.384 162.203 292.384 162.203C293.092 162.801 296.768 165.647 296.976 164.474C298.697 154.705 300.639 143.972 300.273 133.946C300.273 133.875 300.244 133.806 300.194 133.756C300.144 133.706 300.075 133.677 300.004 133.677C299.933 133.677 299.864 133.706 299.814 133.756C299.764 133.806 299.735 133.875 299.735 133.946C297.708 143.202 297.293 152.764 295.449 162.032C294.142 161.021 292.699 160.199 291.163 159.59C290.833 159.59 290.137 166.208 289.795 167.173C289.801 167.205 289.801 167.238 289.795 167.271C285.973 166.856 283.433 165.073 280.429 161.702C280.283 161.458 280.002 161.592 280.124 161.861Z" fill="#263238"/>
<path d="M288.061 167.356C286.466 168.631 284.569 169.472 282.554 169.798C281.451 169.957 280.326 169.76 279.342 169.237C277.181 168.089 277.633 165.964 278.488 164.267C278.948 163.365 279.514 162.52 280.173 161.751C282.136 164.414 284.901 166.379 288.061 167.356V167.356Z" fill="#263238"/>
<path d="M282.542 169.835C281.439 169.993 280.314 169.797 279.33 169.273C277.169 168.126 277.621 166.001 278.475 164.303C280.869 165.146 282.908 167.393 282.542 169.835Z" fill="#FF97B8"/>
<path d="M319.908 126.033C319.261 126.302 318.614 126.534 317.979 126.729C300.492 132.151 283.482 112.637 283.482 112.637C281.416 115.829 278.374 118.268 274.808 119.588C271.243 120.909 267.346 121.04 263.699 119.964C261.803 125.552 259.48 130.986 256.751 136.217C257.08 125.834 259.967 115.691 265.156 106.691C270.345 97.6912 277.676 90.1113 286.498 84.6245C292.068 86.579 297.488 88.938 302.715 91.6826C304.879 88.5851 307.74 86.038 311.067 84.2459C311.869 83.7943 312.754 83.51 313.669 83.4103C314.583 83.3105 315.509 83.3974 316.389 83.6657C317.269 83.934 318.086 84.378 318.789 84.971C319.493 85.564 320.069 86.2936 320.482 87.1156C318.72 88.8287 317.364 90.9151 316.513 93.2213C313.607 100.817 320.03 102.148 321.459 95.0041C322.09 92.3466 321.743 89.5506 320.482 87.1278C324.622 83.1347 330.117 82.6951 332.693 85.9067C337.505 91.5483 334.989 119.744 319.908 126.033Z" fill="#263238"/>
<path d="M287.292 137.756C285.259 136.062 282.74 135.061 280.099 134.899C279.305 134.847 278.507 134.876 277.718 134.984C275.739 135.24 273.85 135.967 272.21 137.103C270.569 138.24 269.225 139.754 268.291 141.517C268.021 142.01 267.792 142.525 267.607 143.056C267.183 144.184 266.932 145.369 266.862 146.573C266.692 149.344 267.447 152.093 269.01 154.387C270.573 156.682 272.855 158.392 275.496 159.248C276.487 159.559 277.512 159.752 278.549 159.822H279.33C282.324 159.828 285.22 158.76 287.494 156.813C289.768 154.866 291.269 152.169 291.725 149.21C291.725 148.856 291.81 148.502 291.834 148.136C291.859 147.769 291.834 147.598 291.834 147.342C291.83 145.508 291.421 143.698 290.636 142.041C289.85 140.383 288.709 138.92 287.292 137.756V137.756ZM278.646 158.149C276.021 157.981 273.547 156.862 271.686 155.001C269.826 153.141 268.708 150.667 268.54 148.041C268.372 145.416 269.167 142.819 270.776 140.737C272.384 138.655 274.696 137.231 277.279 136.73C278.175 136.556 279.09 136.499 280.002 136.559C280.898 136.618 281.784 136.786 282.639 137.06C283.729 137.41 284.756 137.934 285.68 138.611C287.578 139.985 288.978 141.939 289.669 144.178C290.36 146.417 290.304 148.82 289.51 151.025C288.717 153.23 287.228 155.117 285.268 156.402C283.309 157.687 280.985 158.3 278.646 158.149V158.149Z" fill="#6DDAD3"/>
<path d="M315.415 145.73L315.195 145.205C314.447 143.488 313.161 142.061 311.531 141.139C311.005 140.846 310.443 140.624 309.858 140.479C309.008 140.272 308.126 140.222 307.257 140.333C305.487 140.58 303.827 141.34 302.483 142.518C301.473 143.378 300.6 144.387 299.894 145.51C299.356 146.342 298.902 147.226 298.538 148.148C298.289 148.742 298.085 149.355 297.928 149.979C297.884 150.103 297.847 150.23 297.818 150.358C297.094 153.127 297.17 156.044 298.038 158.772C298.4 160.035 299.037 161.202 299.905 162.188C300.773 163.174 301.85 163.955 303.057 164.474C303.313 164.572 303.57 164.645 303.838 164.719C304.849 164.948 305.896 164.973 306.918 164.793C307.939 164.613 308.914 164.23 309.785 163.668C312.895 161.636 315.087 158.467 315.891 154.84C316.688 151.828 316.521 148.642 315.415 145.73V145.73ZM314.193 154.437C313.638 156.818 312.453 159.007 310.762 160.774C309.966 161.702 308.94 162.405 307.787 162.812C306.634 163.219 305.395 163.317 304.192 163.094C300.089 162.081 297.952 156.549 299.393 150.761C300.009 148.07 301.448 145.637 303.508 143.801C304.284 143.067 305.225 142.53 306.251 142.234C307.277 141.939 308.359 141.894 309.407 142.103C309.61 142.151 309.81 142.213 310.005 142.286C310.889 142.663 311.685 143.221 312.341 143.923C312.997 144.626 313.499 145.457 313.815 146.365C314.076 147.007 314.272 147.674 314.401 148.355C314.791 150.37 314.737 152.445 314.242 154.437H314.193Z" fill="#6DDAD3"/>
<path d="M291.09 149.479L290.296 148.013C292.457 146.792 297.171 145.571 299.528 149.357L298.111 150.236C295.999 146.841 291.297 149.369 291.09 149.479Z" fill="#6DDAD3"/>
<path d="M269.195 141.786L268.719 143.385L267.607 143.056C264.86 142.25 260.806 141.077 256.764 139.954L254.81 139.417C255.115 138.94 255.433 138.452 255.738 137.939L256.727 138.22C261.612 139.563 266.337 140.943 268.291 141.517L269.195 141.786Z" fill="#6DDAD3"/>
<g opacity="0.3">
<path opacity="0.3" d="M333.243 199.606C321.077 202.286 308.389 201.297 296.785 196.766C285.181 192.235 275.18 184.364 268.049 174.149C260.918 163.934 256.977 151.833 256.723 139.378C256.469 126.923 259.914 114.672 266.623 104.175C273.332 93.6779 283.003 85.4061 294.413 80.4055C305.823 75.4049 318.46 73.9002 330.725 76.0818C342.991 78.2633 354.334 84.033 363.32 92.6613C372.306 101.29 378.532 112.389 381.209 124.556C382.989 132.633 383.16 140.982 381.712 149.125C380.265 157.269 377.227 165.047 372.773 172.017C368.318 178.986 362.535 185.01 355.752 189.744C348.97 194.477 341.321 197.829 333.243 199.606V199.606Z" fill="white"/>
<path opacity="0.3" d="M264.457 168.333C272.435 182.897 285.84 193.724 301.757 198.46C317.674 203.195 334.817 201.457 349.46 193.623L264.457 168.333Z" fill="#EBEBEB"/>
<path opacity="0.3" d="M266.264 104.798L382.687 139.441C382.788 134.439 382.296 129.442 381.222 124.556C380.004 118.95 378.011 113.541 375.299 108.485L289.356 82.9027C279.913 88.1061 271.962 95.6446 266.264 104.798V104.798Z" fill="#EBEBEB"/>
<path opacity="0.3" d="M257.179 145.449L368.07 178.42C370.712 175.246 373.039 171.823 375.018 168.199L256.934 133.055C256.594 137.184 256.676 141.337 257.179 145.449Z" fill="#EBEBEB"/>
<path opacity="0.3" d="M262.234 112.417L381.905 148.038C382.027 147.281 382.137 146.524 382.223 145.767L263.187 110.354C262.857 111.025 262.527 111.709 262.234 112.417Z" fill="#EBEBEB"/>
<path opacity="0.3" d="M309.285 75.9911L362.404 91.7925C361.024 90.5103 359.571 89.3503 358.069 88.1291L314.926 75.3072C313.035 75.4383 311.152 75.6665 309.285 75.9911Z" fill="#EBEBEB"/>
</g>
<path d="M341.912 277.468L358.083 273.907L342.422 202.795L326.251 206.356L341.912 277.468Z" fill="#EBEBEB"/>
<path d="M388.097 123.041C385.118 109.517 378.197 97.1792 368.207 87.5886C358.217 77.9979 345.607 71.585 331.973 69.1606C318.338 66.7363 304.291 68.4096 291.607 73.9687C278.923 79.5279 268.173 88.7233 260.715 100.392C253.258 112.061 249.428 125.679 249.71 139.525C249.992 153.371 254.373 166.822 262.3 178.177C270.226 189.533 281.342 198.283 294.242 203.321C307.141 208.359 321.245 209.459 334.77 206.481C352.903 202.483 368.706 191.447 378.706 175.801C388.706 160.154 392.084 141.177 388.097 123.041V123.041ZM333.243 199.606C321.077 202.288 308.389 201.302 296.783 196.772C285.178 192.243 275.176 184.373 268.043 174.159C260.91 163.945 256.967 151.845 256.711 139.389C256.456 126.934 259.9 114.682 266.607 104.184C273.315 93.6855 282.986 85.4123 294.396 80.4105C305.806 75.4086 318.443 73.9028 330.709 76.0835C342.975 78.2641 354.318 84.0332 363.305 92.6613C372.292 101.289 378.519 112.389 381.197 124.556C382.977 132.632 383.148 140.98 381.701 149.123C380.254 157.266 377.218 165.044 372.765 172.013C368.312 178.982 362.53 185.006 355.749 189.741C348.967 194.475 341.32 197.828 333.243 199.606V199.606Z" fill="#455A64"/>
<path d="M348.593 327.508L373.052 322.123L359.18 259.075L334.709 264.461L348.593 327.508Z" fill="#263238"/>
<path d="M359.265 129.843C359.239 129.771 359.219 129.698 359.204 129.623C358.911 128.573 359.522 130.637 359.302 129.953C359.082 129.269 358.765 128.304 358.459 127.511C357.391 124.678 356.084 121.941 354.552 119.329C354.344 118.963 354.112 118.596 353.905 118.23C353.831 118.108 354.442 119.085 353.905 118.316L353.477 117.656C352.916 116.814 352.342 115.983 351.743 115.214C350.421 113.427 348.981 111.73 347.433 110.134L346.309 109.011C345.796 108.51 346.908 109.56 346.199 108.913L345.491 108.266C344.575 107.472 343.635 106.703 342.658 105.97C341.681 105.237 340.521 104.431 339.41 103.735C338.897 103.418 338.384 103.112 337.859 102.819C336.955 102.294 338.25 103.003 337.578 102.661L336.613 102.172C333.696 100.737 330.645 99.5916 327.504 98.753H327.345L327.003 98.6797L325.599 98.3744C324.683 98.1913 323.779 98.0325 322.851 97.8982C320.912 97.6207 318.96 97.4413 317.002 97.3609C316.458 97.2992 315.932 97.131 315.454 96.8659C314.975 96.6008 314.553 96.2441 314.213 95.816C313.524 94.9515 313.208 93.849 313.333 92.7511C313.457 91.6532 314.013 90.6498 314.877 89.9617C315.742 89.2735 316.844 88.9569 317.942 89.0816C330.419 89.4676 342.351 94.2861 351.597 102.673C357.739 108.425 362.542 115.458 365.664 123.273C366.379 125.018 366.974 126.809 367.447 128.634C367.616 129.725 367.346 130.839 366.696 131.731C366.046 132.623 365.069 133.222 363.979 133.397C362.891 133.543 361.789 133.264 360.902 132.618C360.015 131.972 359.411 131.009 359.217 129.929L359.265 129.843Z" fill="white"/>
<path d="M360.975 142.115C361.099 142.918 361.458 143.667 362.008 144.265C362.557 144.863 363.272 145.285 364.062 145.477C364.851 145.669 365.68 145.622 366.443 145.342C367.205 145.062 367.868 144.563 368.346 143.906C368.825 143.249 369.097 142.465 369.13 141.653C369.162 140.841 368.953 140.038 368.528 139.346C368.104 138.653 367.483 138.102 366.745 137.762C366.007 137.423 365.184 137.31 364.382 137.438C363.311 137.61 362.352 138.198 361.714 139.074C361.075 139.95 360.81 141.044 360.975 142.115V142.115Z" fill="white"/>
<path d="M402.31 288.786C402.31 288.786 419.797 260.04 398.024 232.614C389.061 221.33 367.911 201.096 325.001 203.917C314.816 204.589 300.786 212.758 317.808 217.704C329.897 221.22 338.628 219.792 345.296 223.113C345.296 223.113 328.676 235.63 329.751 245.802C330.227 250.344 330.581 260.272 333.207 269.724C333.207 269.724 336.65 272.166 339.447 271.751C339.447 271.751 346.981 293.487 374.078 300.167L402.31 288.786Z" fill="#D3766A"/>
<path d="M388.829 228.926C381.82 226.129 366.849 220.463 352.989 220.073C337.59 219.645 307.807 222.979 307.624 234.348C307.477 242.688 318.956 242.407 318.956 242.407C318.956 242.407 306.94 246.376 308.466 253.935C309.846 260.822 318.712 260.04 318.712 260.04C318.712 260.04 311.837 263.704 314.45 270.078C317.588 277.747 331.472 268.857 341.315 273.839C343.586 275.011 388.829 228.926 388.829 228.926Z" fill="#D3766A"/>
<path d="M355.223 236.411C348.202 234.873 331.338 235.459 319.102 242.138C318.821 242.285 318.785 242.578 319.102 242.493C330.859 239.064 342.988 237.071 355.223 236.558C355.333 236.558 355.333 236.497 355.223 236.411Z" fill="#263238"/>
<path d="M354.369 251.944C348.165 251.236 330.813 252.616 318.651 259.808C318.37 259.967 318.357 260.26 318.651 260.162C330.221 256.13 342.212 253.422 354.393 252.091C354.413 252.087 354.43 252.077 354.441 252.061C354.453 252.044 354.457 252.025 354.454 252.005C354.451 251.986 354.44 251.968 354.424 251.957C354.408 251.945 354.388 251.941 354.369 251.944V251.944Z" fill="#263238"/>
<path d="M379.365 302.035C373.149 300.56 367.149 298.29 361.513 295.282C355.837 292.211 350.814 288.063 346.725 283.071C345.503 281.544 344.282 279.957 343.22 278.333C342.158 276.709 340.985 274.865 339.728 273.253C339.63 273.131 339.398 273.253 339.471 273.363C340.886 276.752 342.628 279.995 344.673 283.046C346.506 285.899 348.698 288.505 351.194 290.801C356.122 295.185 361.96 298.421 368.29 300.277C371.884 301.277 375.563 301.944 379.28 302.267C379.463 302.316 379.536 302.072 379.365 302.035Z" fill="#263238"/>
<path d="M201.117 210.047C169.661 252.286 117.164 362.371 109.446 378.563C104.208 389.553 161.638 418.494 164.068 410.508C167.194 400.275 218.542 265.193 225.735 215.945C229.667 188.946 211.997 195.43 201.117 210.047Z" fill="#D3766A"/>
<path d="M165.618 405.013C164.287 414.965 157.522 435.016 152.491 438.081C147.46 441.146 121.023 440.524 107.7 440.524C94.3774 440.524 91.8253 436.799 91.984 432.22C92.1428 427.641 120.156 426.761 120.156 426.761C120.156 426.761 82.8133 437.41 73.4228 439.205C64.0323 441 42.406 446.409 39.2311 438.631C37.8268 435.114 43.7493 431.56 43.7493 431.56C43.7493 431.56 34.6763 434.21 33.2231 429.704C31.5868 424.563 38.8037 421.743 38.8037 421.743C38.8037 421.743 33.1254 422.878 32.9911 418.69C32.7469 409.287 68.2574 404.696 68.2574 404.696C68.2574 404.696 41.075 417.933 40.1714 410.288C38.9502 399.726 94.6827 388.137 100.483 383.533C104.703 380.015 108.651 376.182 112.291 372.067L165.618 405.013Z" fill="#D3766A"/>
<path d="M92.1795 434.491C92.0853 433.843 92.147 433.181 92.3593 432.561C92.5717 431.941 92.9286 431.38 93.4007 430.925C94.3582 430.048 95.4562 429.338 96.6489 428.825C99.1125 427.778 101.667 426.961 104.281 426.383C109.532 425.052 114.917 424.112 120.278 422.719C114.752 422.637 109.238 423.252 103.866 424.551C101.121 425.181 98.478 426.192 96.0139 427.555C94.7381 428.256 93.62 429.212 92.729 430.364C92.291 430.947 92.0104 431.633 91.9141 432.356C91.8179 433.078 91.9093 433.814 92.1795 434.491V434.491Z" fill="#263238"/>
<path d="M43.8347 431.512C47.6813 430.571 51.4668 429.497 55.2401 428.398C59.0134 427.299 62.7745 426.151 66.5356 425.015L77.7822 421.498C81.5311 420.277 85.28 419.154 89.0655 418.018C85.1356 418.45 81.2394 419.148 77.4036 420.106C73.5449 420.985 69.7594 422.084 65.9861 423.232C62.2128 424.38 58.4761 425.675 54.7883 427.042C51.1005 428.41 47.376 429.851 43.8347 431.512Z" fill="#263238"/>
<path d="M80.0045 408.676C76.3822 408.904 72.782 409.402 69.2341 410.166C65.6738 410.874 62.1556 411.779 58.6957 412.877C55.2273 413.953 51.823 415.225 48.4992 416.687C45.1636 418.113 41.9354 419.778 38.8401 421.669C42.2715 420.448 45.6174 419.166 49.0243 418.006C52.4313 416.846 55.826 415.698 59.2574 414.648C62.6888 413.598 66.1202 412.56 69.576 411.546C73.0318 410.533 76.4998 409.653 80.0045 408.676Z" fill="#263238"/>
<path d="M74.5096 399.787C68.6755 400.256 62.9281 401.488 57.4137 403.45C51.8457 405.294 46.5451 407.864 41.6489 411.094C47.1684 409.128 52.5414 407.052 58.0243 405.221C63.5072 403.389 68.9412 401.582 74.5096 399.787Z" fill="#263238"/>
<path d="M214.488 282.448L150.745 280.69C150.745 280.69 185.486 225.397 204.096 205.114C223.525 183.988 234.1 185.808 227.469 223.235C220.789 260.919 214.488 282.448 214.488 282.448Z" fill="#6DDAD3"/>
<path d="M175.045 271.323C173.325 272.075 171.715 273.057 170.259 274.242C173.981 273.641 177.484 272.089 180.431 269.736C178.568 270.003 176.755 270.538 175.045 271.323ZM210.641 230.831C209.905 229.102 208.922 227.49 207.723 226.044C208.31 229.769 209.868 233.273 212.241 236.204C211.972 234.344 211.434 232.534 210.641 230.831V230.831ZM181.249 242.847C180.552 244.59 180.108 246.424 179.93 248.293C182.143 245.241 183.516 241.662 183.911 237.913C182.786 239.418 181.889 241.081 181.249 242.847V242.847ZM209.335 267.807C208.633 269.552 208.192 271.391 208.028 273.265C210.228 270.206 211.599 266.631 212.009 262.885C210.879 264.389 209.971 266.046 209.31 267.807H209.335ZM228.018 195.21C227.713 195.845 227.432 196.492 227.163 197.152C226.474 198.898 226.03 200.73 225.845 202.598C226.969 201.107 227.874 199.462 228.531 197.714C228.592 197.555 228.641 197.408 228.69 197.25C228.515 196.551 228.283 195.869 227.994 195.21H228.018Z" fill="white"/>
<path d="M210.495 271.36C208.981 271.14 207.43 271.14 205.916 271.067L201.214 270.811C198.056 270.656 194.885 270.53 191.702 270.432C185.352 270.237 179.014 270.017 172.676 269.931C170.93 269.931 169.184 269.931 167.438 269.931C165.692 269.931 163.774 270.115 161.943 270.127C161.833 270.127 161.845 270.298 161.943 270.298C163.506 270.395 165.069 270.627 166.644 270.725C168.219 270.823 169.856 270.92 171.467 270.982C174.642 271.104 177.817 271.214 180.992 271.287C187.232 271.433 193.485 271.604 199.725 271.617H205.024C206.844 271.617 208.688 271.714 210.519 271.555C210.568 271.519 210.593 271.372 210.495 271.36Z" fill="#263238"/>
<path d="M226.846 240.99C226.846 240.868 226.699 240.795 226.638 240.917C225.456 243.095 224.444 245.361 223.61 247.695C223.83 246.583 224.086 245.472 224.294 244.349C224.99 240.758 225.625 237.144 226.333 233.554C226.326 233.532 226.311 233.514 226.293 233.5C226.274 233.487 226.252 233.48 226.229 233.48C226.206 233.48 226.184 233.487 226.166 233.5C226.147 233.514 226.133 233.532 226.125 233.554C224.477 239.733 222.56 245.851 221.094 252.078C219.629 258.306 218.151 264.534 216.784 270.786C216.039 274.242 215.367 278.553 214.61 281.996C212.766 282.216 210.397 281.996 208.407 282.253C208.236 282.253 208.285 282.558 208.407 282.558C210.507 282.619 213.01 283.095 215.221 282.961C215.502 282.961 220.85 260.748 223.073 250.112C224.44 247.084 225.71 244.056 226.846 240.99Z" fill="#263238"/>
<path d="M272.187 206.457C271.295 209.375 270.282 212.257 269.122 215.078C268.153 217.619 266.964 220.071 265.568 222.405C262.93 226.569 258.876 230.013 253.735 230C248.851 230 244.381 227.167 241.255 223.553C237.836 219.608 235.565 214.663 233.525 209.9C232.304 206.958 231.083 203.954 230.106 200.913C229.606 199.374 229.081 197.836 228.641 196.273C228.201 194.71 227.823 193.134 227.285 191.608C227.285 191.486 227.017 191.498 227.053 191.608C227.957 195.125 230.583 206.261 231.633 209.095C233.562 214.284 235.736 219.645 239.216 224.017C242.513 228.144 246.995 231.27 252.355 231.783C257.716 232.296 262.308 229.475 265.263 225.226C267 222.549 268.356 219.643 269.292 216.592C270.428 213.246 271.381 209.815 272.248 206.384C272.296 206.432 272.187 206.42 272.187 206.457Z" fill="#263238"/>
<path d="M472.281 443.479H384.714L380.806 366.499H472.281V443.479Z" fill="#DBDBDB"/>
<path d="M472.281 366.499L503.738 327.117L528.771 366.499L524.863 443.479H472.281V366.499Z" fill="#C7C7C7"/>
<path d="M411.371 314.613H504.849L538.565 369.612H527.709L504.849 331.537L478.485 374.155H373.089L411.371 314.613Z" fill="#A6A6A6"/>
<path d="M422.203 332.014H402.103L391.381 344.86H414.583L422.203 332.014Z" fill="#C7C7C7"/>
<path d="M406.975 342.662V358.305H395.79V342.662L401.382 335.665L406.975 342.662Z" fill="#DBDBDB"/>
<path d="M406.975 342.65H415.767L406.975 358.305V342.65Z" fill="#C7C7C7"/>
<path d="M404.276 342.906H397.914V353.64H404.276V342.906Z" fill="#FBFAFF"/>
<path d="M400.747 343.651H398.696V347.107H400.747V343.651Z" fill="#EBEBEB"/>
<path d="M403.482 343.651H401.431V347.107H403.482V343.651Z" fill="#EBEBEB"/>
<path d="M400.747 347.73H398.696V352.846H400.747V347.73Z" fill="#EBEBEB"/>
<path d="M403.482 347.73H401.431V352.846H403.482V347.73Z" fill="#EBEBEB"/>
<path d="M471.414 332.014H451.315L441.252 344.86H463.746L471.414 332.014Z" fill="#C7C7C7"/>
<path d="M456.187 342.662V358.305H445.001V342.662L450.594 335.665L456.187 342.662Z" fill="#DBDBDB"/>
<path d="M456.187 342.65H464.991L456.187 358.305V342.65Z" fill="#C7C7C7"/>
<path d="M453.488 342.906H447.126V353.64H453.488V342.906Z" fill="#FBFAFF"/>
<path d="M449.959 343.651H447.907V347.107H449.959V343.651Z" fill="#EBEBEB"/>
<path d="M452.707 343.651H450.655V347.107H452.707V343.651Z" fill="#EBEBEB"/>
<path d="M449.959 347.73H447.907V352.846H449.959V347.73Z" fill="#EBEBEB"/>
<path d="M452.707 347.73H450.655V352.846H452.707V347.73Z" fill="#EBEBEB"/>
<path d="M488.083 312.39H476.897V327.117H488.083V312.39Z" fill="#DBDBDB"/>
<path d="M488.083 312.39H496.875V314.759L488.083 327.117V312.39Z" fill="#C7C7C7"/>
<path d="M488.083 307.383H475.639V312.39H488.083V307.383Z" fill="#C7C7C7"/>
<path d="M497.839 307.383H488.083V312.39H497.839V307.383Z" fill="#A6A6A6"/>
<path d="M407.818 380.456H393.97V403.841H407.818V380.456Z" fill="#FBFAFF"/>
<path d="M400.137 382.08H395.679V389.615H400.137V382.08Z" fill="#EBEBEB"/>
<path d="M406.108 382.08H401.651V389.615H406.108V382.08Z" fill="#EBEBEB"/>
<path d="M400.137 390.97H395.679V402.131H400.137V390.97Z" fill="#EBEBEB"/>
<path d="M406.108 390.97H401.651V402.131H406.108V390.97Z" fill="#EBEBEB"/>
<path d="M459.252 380.456H445.404V403.841H459.252V380.456Z" fill="#FBFAFF"/>
<path d="M451.571 382.08H447.114V389.615H451.571V382.08Z" fill="#EBEBEB"/>
<path d="M457.542 382.08H453.085V389.615H457.542V382.08Z" fill="#EBEBEB"/>
<path d="M451.571 390.97H447.114V402.131H451.571V390.97Z" fill="#EBEBEB"/>
<path d="M457.542 390.97H453.085V402.131H457.542V390.97Z" fill="#EBEBEB"/>
<path d="M407.818 412.95H393.97V436.335H407.818V412.95Z" fill="#FBFAFF"/>
<path d="M400.137 414.574H395.679V422.109H400.137V414.574Z" fill="#EBEBEB"/>
<path d="M406.108 414.574H401.651V422.109H406.108V414.574Z" fill="#EBEBEB"/>
<path d="M400.137 423.464H395.679V434.626H400.137V423.464Z" fill="#EBEBEB"/>
<path d="M406.108 423.464H401.651V434.626H406.108V423.464Z" fill="#EBEBEB"/>
<path d="M459.252 412.95H445.404V436.335H459.252V412.95Z" fill="#FBFAFF"/>
<path d="M451.571 414.574H447.114V422.109H451.571V414.574Z" fill="#EBEBEB"/>
<path d="M457.542 414.574H453.085V422.109H457.542V414.574Z" fill="#EBEBEB"/>
<path d="M451.571 423.464H447.114V434.626H451.571V423.464Z" fill="#EBEBEB"/>
<path d="M457.542 423.464H453.085V434.626H457.542V423.464Z" fill="#EBEBEB"/>
<path d="M433.462 380.456H419.614V403.841H433.462V380.456Z" fill="#FBFAFF"/>
<path d="M425.781 382.08H421.323V389.615H425.781V382.08Z" fill="#EBEBEB"/>
<path d="M431.764 382.08H427.307V389.615H431.764V382.08Z" fill="#EBEBEB"/>
<path d="M425.781 390.97H421.323V402.131H425.781V390.97Z" fill="#EBEBEB"/>
<path d="M431.764 390.97H427.307V402.131H431.764V390.97Z" fill="#EBEBEB"/>
<path d="M433.462 413.109H419.614V436.494H433.462V413.109Z" fill="#FBFAFF"/>
<path d="M425.781 414.721H421.323V422.255H425.781V414.721Z" fill="#EBEBEB"/>
<path d="M431.764 414.721H427.307V422.255H431.764V414.721Z" fill="#EBEBEB"/>
<path d="M425.781 423.623H421.323V434.784H425.781V423.623Z" fill="#EBEBEB"/>
<path d="M431.764 423.623H427.307V434.784H431.764V423.623Z" fill="#EBEBEB"/>
<path d="M497.168 403.841H511.016V380.456H497.168V403.841Z" fill="#FBFAFF"/>
<path d="M509.306 382.08H504.849V389.615H509.306V382.08Z" fill="#EBEBEB"/>
<path d="M503.323 382.08H498.865V389.615H503.323V382.08Z" fill="#EBEBEB"/>
<path d="M509.306 390.97H504.849V402.131H509.306V390.97Z" fill="#EBEBEB"/>
<path d="M503.323 390.97H498.865V402.131H503.323V390.97Z" fill="#EBEBEB"/>
<path d="M497.168 367.695H511.016V347.901H497.168V367.695Z" fill="#FBFAFF"/>
<path d="M509.306 349.513H504.849V357.047H509.306V349.513Z" fill="#EBEBEB"/>
<path d="M503.323 349.513H498.865V357.047H503.323V349.513Z" fill="#EBEBEB"/>
<path d="M509.306 358.488H504.849V366.022H509.306V358.488Z" fill="#EBEBEB"/>
<path d="M503.323 358.488H498.865V366.022H503.323V358.488Z" fill="#EBEBEB"/>
<path d="M495.198 443.622L511.988 443.701L512.132 413.21L495.341 413.131L495.198 443.622Z" fill="#FBFAFF"/>
<path d="M501.905 415.242L501.884 419.809L505.498 419.826L505.52 415.259L501.905 415.242Z" fill="#EBEBEB"/>
<path d="M497.181 415.217L497.16 419.784L500.774 419.801L500.796 415.234L497.181 415.217Z" fill="#EBEBEB"/>
<path d="M499.808 436.39L507.44 436.426L507.445 435.327L499.813 435.291L499.808 436.39Z" fill="#EBEBEB"/>
<path d="M504.165 412.914V417.481H507.78V412.914H504.165Z" fill="#EBEBEB"/>
<path d="M501.893 421.008L501.872 425.575L505.486 425.592L505.508 421.025L501.893 421.008Z" fill="#EBEBEB"/>
<path d="M497.132 420.971L497.111 425.538L500.725 425.555L500.747 420.989L497.132 420.971Z" fill="#EBEBEB"/>
<path d="M506.629 421.033L506.607 425.6L510.222 425.617L510.243 421.05L506.629 421.033Z" fill="#EBEBEB"/>
<path d="M501.868 426.787L501.846 431.354L505.461 431.371L505.482 426.804L501.868 426.787Z" fill="#EBEBEB"/>
<path d="M497.12 426.762L497.098 431.329L500.713 431.346L500.734 426.779L497.12 426.762Z" fill="#EBEBEB"/>
<path d="M506.604 426.812L506.583 431.379L510.197 431.396L510.219 426.829L506.604 426.812Z" fill="#EBEBEB"/>
<path d="M231.278 443.686H153.492L150.012 405.99H231.278V443.686Z" fill="#DBDBDB"/>
<path d="M231.254 405.941L259.194 370.968L281.443 405.941L277.962 443.638H231.254V405.941Z" fill="#C7C7C7"/>
<path d="M176.706 359.904H261.196L292.494 412.792H283.958L260.049 372.983L237.079 412.792H143.467L176.706 359.904Z" fill="#A6A6A6"/>
<path d="M174.203 419.984H161.894V437.568H174.203V419.984Z" fill="#FBFAFF"/>
<path d="M167.364 421.425H163.408V428.117H167.364V421.425Z" fill="#DBDBDB"/>
<path d="M172.676 421.425H168.72V428.117H172.676V421.425Z" fill="#DBDBDB"/>
<path d="M167.364 429.387H163.408V436.079H167.364V429.387Z" fill="#DBDBDB"/>
<path d="M172.676 429.387H168.72V436.079H172.676V429.387Z" fill="#DBDBDB"/>
<path d="M219.409 419.984H207.1V437.568H219.409V419.984Z" fill="#FBFAFF"/>
<path d="M212.571 421.425H208.614V428.117H212.571V421.425Z" fill="#DBDBDB"/>
<path d="M217.883 421.425H213.926V428.117H217.883V421.425Z" fill="#DBDBDB"/>
<path d="M212.571 429.387H208.614V436.079H212.571V429.387Z" fill="#DBDBDB"/>
<path d="M217.883 429.387H213.926V436.079H217.883V429.387Z" fill="#DBDBDB"/>
<path d="M196.879 419.044H183.312V443.686H196.879V419.044Z" fill="#FBFAFF"/>
<path d="M191.555 420.741H188.636V424.429H191.555V420.741Z" fill="#DBDBDB"/>
<path d="M195.389 420.741H192.471V424.429H195.389V420.741Z" fill="#DBDBDB"/>
<path d="M193.179 436.921H187.013V437.813H193.179V436.921Z" fill="#DBDBDB"/>
<path d="M187.721 420.741H184.802V424.429H187.721V420.741Z" fill="#DBDBDB"/>
<path d="M191.555 425.406H188.636V429.094H191.555V425.406Z" fill="#DBDBDB"/>
<path d="M195.389 425.406H192.471V429.094H195.389V425.406Z" fill="#DBDBDB"/>
<path d="M187.721 425.406H184.802V429.094H187.721V425.406Z" fill="#DBDBDB"/>
<path d="M191.555 430.071H188.636V433.759H191.555V430.071Z" fill="#DBDBDB"/>
<path d="M195.389 430.071H192.471V433.759H195.389V430.071Z" fill="#DBDBDB"/>
<path d="M187.721 430.071H184.802V433.759H187.721V430.071Z" fill="#DBDBDB"/>
<path d="M194.584 357.792H184.644V370.87H194.584V357.792Z" fill="#DBDBDB"/>
<path d="M194.583 357.792H202.399V359.892L194.583 370.87V357.792Z" fill="#C7C7C7"/>
<path d="M194.584 353.335H183.532V357.78H194.584V353.335Z" fill="#C7C7C7"/>
<path d="M203.253 353.335H194.583V357.78H203.253V353.335Z" fill="#A6A6A6"/>
<path d="M262.027 443.699H287.255L289.661 417.701H262.027V443.699Z" fill="#C7C7C7"/>
<path d="M262.027 417.701L249.559 412.071L249.84 443.698H262.027V417.701Z" fill="#DBDBDB"/>
<path d="M281.345 424.429H270.733V443.686H281.345V424.429Z" fill="#FBFAFF"/>
<path d="M277.181 425.748H274.897V428.63H277.181V425.748Z" fill="#DBDBDB"/>
<path d="M280.173 425.748H277.889V428.63H280.173V425.748Z" fill="#DBDBDB"/>
<path d="M278.451 437.104H273.627V437.8H278.451V437.104Z" fill="#DBDBDB"/>
<path d="M274.189 425.748H271.905V428.63H274.189V425.748Z" fill="#DBDBDB"/>
<path d="M247.654 410.777H284.312L296.157 419.789H260.964L247.654 410.777Z" fill="#A6A6A6"/>
<path d="M260.964 419.789H247.654V410.777L260.964 419.789Z" fill="#C7C7C7"/>
<path d="M253.088 397.601C253.088 398.845 253.457 400.062 254.149 401.096C254.84 402.13 255.823 402.936 256.973 403.412C258.123 403.888 259.388 404.012 260.608 403.768C261.828 403.524 262.949 402.924 263.828 402.043C264.707 401.163 265.305 400.041 265.546 398.82C265.787 397.599 265.661 396.335 265.183 395.186C264.705 394.037 263.898 393.055 262.862 392.366C261.826 391.676 260.609 391.31 259.365 391.312C257.699 391.315 256.102 391.979 254.926 393.158C253.749 394.337 253.088 395.935 253.088 397.601V397.601Z" fill="#FBFAFF"/>
<path d="M254.492 397.601C254.492 398.896 255.007 400.139 255.923 401.055C256.839 401.971 258.081 402.485 259.377 402.485C259.789 402.488 260.2 402.435 260.598 402.327C261.735 402.018 262.723 401.308 263.378 400.329C264.033 399.349 264.312 398.165 264.164 396.996C264.015 395.827 263.448 394.751 262.569 393.967C261.689 393.182 260.555 392.743 259.377 392.729C258.964 392.727 258.554 392.78 258.156 392.887C257.587 393.025 257.052 393.274 256.58 393.62C255.939 394.068 255.414 394.663 255.051 395.356C254.688 396.049 254.496 396.819 254.492 397.601Z" fill="#C7C7C7"/>
<path d="M258.693 403.34H260.049V391.764H258.693V403.34Z" fill="#FBFAFF"/>
<path d="M265.165 398.224V396.868H253.588V398.224H265.165Z" fill="#FBFAFF"/>
<path d="M297.977 443.699H258.669L255.982 414.623H297.977V443.699Z" fill="#6DDAD3"/>
<path opacity="0.2" d="M297.977 443.699H258.669L255.982 414.623H297.977V443.699Z" fill="black"/>
<path d="M297.977 414.623L319.53 387.636L336.687 414.623L334.012 443.699H297.977V414.623Z" fill="#6DDAD3"/>
<path d="M300.578 418.177H247.239L279.684 377.379H319.749L343.83 418.177H337.712L319.749 390.225L300.578 418.177Z" fill="#6DDAD3"/>
<path opacity="0.4" d="M300.578 418.177H247.239L279.684 377.379H319.749L343.83 418.177H337.712L319.749 390.225L300.578 418.177Z" fill="black"/>
<path d="M354.405 341.294H343.293V355.924H354.405V341.294Z" fill="#6DDAD3"/>
<path opacity="0.2" d="M354.405 341.294H343.293V355.924H354.405V341.294Z" fill="black"/>
<path d="M363.149 341.294H354.405V355.924H363.149V341.294Z" fill="#6DDAD3"/>
<path d="M354.405 336.312H342.047V341.282H354.405V336.312Z" fill="#6DDAD3"/>
<path opacity="0.5" d="M354.405 336.312H342.047V341.282H354.405V336.312Z" fill="black"/>
<path d="M364.101 336.312H354.405V341.282H364.101V336.312Z" fill="#6DDAD3"/>
<path opacity="0.4" d="M364.101 336.312H354.405V341.282H364.101V336.312Z" fill="black"/>
<path d="M393.457 443.662H306.452L302.556 401.496H393.457V443.662Z" fill="#6DDAD3"/>
<path opacity="0.2" d="M393.457 443.662H306.452L302.556 401.496H393.457V443.662Z" fill="#3A3A3A"/>
<path d="M393.457 401.496L424.706 362.359L449.593 401.496L445.697 443.662H393.457V401.496Z" fill="#6DDAD3"/>
<path d="M424.327 364.838L450.02 404.573H458.995L425.097 349.94H332.547L285.656 409.104H398.696L424.327 364.838Z" fill="#6DDAD3"/>
<path opacity="0.5" d="M424.327 364.838L450.02 404.573H458.995L425.097 349.94H332.547L285.656 409.104H398.696L424.327 364.838Z" fill="black"/>
<path d="M416.586 407.419H430.348V387.746H416.586V407.419Z" fill="#FBFAFF"/>
<path d="M428.65 389.346H424.217V396.831H428.65V389.346Z" fill="#6DDAD3"/>
<path d="M422.715 389.346H418.283V396.831H422.715V389.346Z" fill="#6DDAD3"/>
<path d="M428.65 398.26H424.217V405.746H428.65V398.26Z" fill="#6DDAD3"/>
<path d="M422.715 398.26H418.283V405.746H422.715V398.26Z" fill="#6DDAD3"/>
<path d="M329.604 417.139H315.842V436.811H329.604V417.139Z" fill="#FBFAFF"/>
<path d="M321.972 418.751H317.539V426.236H321.972V418.751Z" fill="#6DDAD3"/>
<path d="M327.919 418.751H323.486V426.236H327.919V418.751Z" fill="#6DDAD3"/>
<path d="M321.972 427.665H317.539V435.151H321.972V427.665Z" fill="#6DDAD3"/>
<path d="M327.919 427.665H323.486V435.151H327.919V427.665Z" fill="#6DDAD3"/>
<path d="M354.894 417.139H341.131V436.811H354.894V417.139Z" fill="#FBFAFF"/>
<path d="M347.25 418.751H342.817V426.236H347.25V418.751Z" fill="#6DDAD3"/>
<path d="M353.196 418.751H348.764V426.236H353.196V418.751Z" fill="#6DDAD3"/>
<path d="M347.25 427.665H342.817V435.151H347.25V427.665Z" fill="#6DDAD3"/>
<path d="M353.196 427.665H348.764V435.151H353.196V427.665Z" fill="#6DDAD3"/>
<path d="M380.171 417.139H366.409V436.811H380.171V417.139Z" fill="#FBFAFF"/>
<path d="M372.539 418.751H368.106V426.236H372.539V418.751Z" fill="#6DDAD3"/>
<path d="M378.474 418.751H374.041V426.236H378.474V418.751Z" fill="#6DDAD3"/>
<path d="M372.539 427.665H368.106V435.151H372.539V427.665Z" fill="#6DDAD3"/>
<path d="M378.474 427.665H374.041V435.151H378.474V427.665Z" fill="#6DDAD3"/>
<path d="M415.877 443.65H431.056V416.089H415.877V443.65Z" fill="#FBFAFF"/>
<path d="M425.109 417.994H421.836V422.121H425.109V417.994Z" fill="#6DDAD3"/>
<path d="M420.823 417.994H417.55V422.121H420.823V417.994Z" fill="#6DDAD3"/>
<path d="M420.017 437.092H426.916V436.091H420.017V437.092Z" fill="#6DDAD3"/>
<path d="M429.383 417.994H426.11V422.121H429.383V417.994Z" fill="#6DDAD3"/>
<path d="M425.109 423.208H421.836V427.335H425.109V423.208Z" fill="#6DDAD3"/>
<path d="M420.823 423.208H417.55V427.335H420.823V423.208Z" fill="#6DDAD3"/>
<path d="M429.383 423.208H426.11V427.335H429.383V423.208Z" fill="#6DDAD3"/>
<path d="M425.109 428.422H421.836V432.55H425.109V428.422Z" fill="#6DDAD3"/>
<path d="M420.823 428.422H417.55V432.55H420.823V428.422Z" fill="#6DDAD3"/>
<path d="M429.383 428.422H426.11V432.55H429.383V428.422Z" fill="#6DDAD3"/>
<path d="M368.375 364.105H348.397L338.127 376.927H360.743L368.375 364.105Z" fill="#6DDAD3"/>
<path opacity="0.4" d="M368.375 364.105H348.397L338.127 376.927H360.743L368.375 364.105Z" fill="black"/>
<path d="M353.245 374.68V390.225H342.121V374.68L347.689 367.732L353.245 374.68Z" fill="#6DDAD3"/>
<path opacity="0.2" d="M353.245 374.68V390.225H342.121V374.68L347.689 367.732L353.245 374.68Z" fill="black"/>
<path d="M353.245 374.68H361.989L353.245 390.225V374.68Z" fill="#6DDAD3"/>
<path d="M350.547 374.924H344.234V385.585H350.547V374.924Z" fill="#FBFAFF"/>
<path d="M347.054 375.657H345.015V379.088H347.054V375.657Z" fill="#6DDAD3"/>
<path d="M349.777 375.657H347.738V379.088H349.777V375.657Z" fill="#6DDAD3"/>
<path d="M347.054 379.723H345.015V384.815H347.054V379.723Z" fill="#6DDAD3"/>
<path d="M349.777 379.723H347.738V384.815H349.777V379.723Z" fill="#6DDAD3"/>
<path d="M484.2 215.64C489.638 220.264 493.684 226.31 495.886 233.1C498.089 239.891 498.36 247.16 496.67 254.096C494.981 261.033 491.396 267.363 486.318 272.38C481.239 277.397 474.866 280.904 467.91 282.509L459.362 300.008L451.07 282.631C444.87 281.303 439.099 278.449 434.28 274.327C430.426 271.049 427.256 267.043 424.951 262.54C422.645 258.036 421.249 253.122 420.843 248.079C420.022 237.894 423.281 227.8 429.902 220.018C436.523 212.235 445.965 207.402 456.15 206.581C466.335 205.76 476.429 209.018 484.212 215.64H484.2Z" fill="white"/>
<path d="M484.2 215.64C489.637 220.266 493.69 226.305 495.911 233.09C496.467 234.777 496.915 236.499 497.254 238.243C497.546 239.996 497.73 241.766 497.803 243.543C497.969 247.105 497.637 250.672 496.814 254.142C496.006 257.62 494.72 260.969 492.992 264.094C492.118 265.652 491.135 267.146 490.049 268.564C489 270.011 487.841 271.374 486.581 272.642C481.489 277.771 475.064 281.375 468.032 283.046L468.411 282.753L459.96 300.301L459.35 301.583L458.739 300.301L450.387 282.961L450.9 283.364C443.623 281.786 436.95 278.158 431.671 272.907C426.392 267.657 422.727 261.004 421.109 253.736C419.492 246.468 419.99 238.889 422.545 231.896C425.1 224.902 429.604 218.786 435.526 214.272C440.223 210.752 445.646 208.324 451.4 207.165C457.152 206.001 463.094 206.158 468.776 207.627C474.458 209.095 479.732 211.835 484.2 215.64V215.64ZM484.2 215.64C479.762 211.851 474.514 209.133 468.86 207.693C463.205 206.253 457.296 206.131 451.587 207.335C445.878 208.54 440.522 211.039 435.931 214.641C431.341 218.242 427.638 222.849 425.109 228.108C422.588 233.306 421.285 239.011 421.299 244.788C421.37 250.538 422.687 256.204 425.158 261.396C427.663 266.562 431.308 271.092 435.819 274.645C440.337 278.181 445.59 280.659 451.193 281.898L451.559 281.984L451.706 282.314L459.948 299.715H458.727L467.409 282.277L467.519 282.033H467.776C474.679 280.522 481.023 277.113 486.093 272.19C487.352 270.962 488.515 269.64 489.573 268.234C490.666 266.854 491.657 265.397 492.54 263.875C494.311 260.82 495.642 257.531 496.497 254.105C497.382 250.679 497.761 247.14 497.62 243.604C497.557 241.837 497.39 240.076 497.119 238.328C496.789 236.59 496.353 234.873 495.813 233.187C493.637 226.378 489.617 220.304 484.2 215.64V215.64Z" fill="#263238"/>
<path d="M469.705 235.202C469.278 234.767 468.802 234.382 468.288 234.054C467.607 233.613 466.892 233.225 466.151 232.894C464.357 232.081 462.436 231.585 460.473 231.429V242.419L461.486 242.627C463.235 243.044 464.96 243.558 466.652 244.165C468.046 244.655 469.359 245.351 470.547 246.229C471.581 247.025 472.417 248.049 472.99 249.221C473.602 250.578 473.898 252.056 473.857 253.544C473.905 255.196 473.562 256.836 472.855 258.331C472.202 259.642 471.248 260.78 470.071 261.652C468.825 262.561 467.421 263.232 465.931 263.63C464.284 264.084 462.585 264.326 460.876 264.351V269.919H458.128V264.241C455.627 264.09 453.16 263.584 450.802 262.739C448.529 261.921 446.402 260.747 444.5 259.259L447.199 254.179C447.71 254.703 448.279 255.166 448.897 255.559C449.723 256.097 450.589 256.575 451.485 256.987C452.541 257.474 453.63 257.882 454.746 258.208C455.943 258.563 457.169 258.812 458.409 258.953V247.963C458.202 247.902 457.97 247.829 457.75 247.78C457.526 247.733 457.306 247.672 457.09 247.597C455.434 247.169 453.803 246.647 452.206 246.034C450.948 245.565 449.777 244.893 448.738 244.043C447.844 243.306 447.13 242.375 446.65 241.32C446.135 240.122 445.889 238.826 445.929 237.522C445.896 235.941 446.204 234.37 446.833 232.919C447.419 231.593 448.286 230.41 449.373 229.451C450.496 228.455 451.797 227.681 453.207 227.167C454.778 226.595 456.423 226.25 458.092 226.142V220.781H460.839V226.142C463.021 226.253 465.17 226.719 467.201 227.521C469.026 228.233 470.754 229.172 472.342 230.318L469.705 235.202ZM452.218 236.57C452.175 237.214 452.295 237.859 452.569 238.444C452.842 239.029 453.259 239.536 453.781 239.916C455.238 240.832 456.84 241.493 458.519 241.87V231.429C456.803 231.387 455.123 231.92 453.744 232.943C453.236 233.396 452.836 233.957 452.572 234.584C452.308 235.212 452.187 235.89 452.218 236.57V236.57ZM467.568 254.167C467.6 253.468 467.445 252.774 467.119 252.155C466.792 251.537 466.307 251.017 465.712 250.65C464.09 249.686 462.338 248.962 460.51 248.5V258.99C462.332 259.079 464.142 258.656 465.736 257.769C466.331 257.382 466.813 256.845 467.134 256.213C467.456 255.581 467.605 254.875 467.568 254.167V254.167Z" fill="#6DDAD3"/>
</svg>
