<svg width="731" height="385" viewBox="0 0 731 385" fill="none" xmlns="http://www.w3.org/2000/svg">
<path d="M713.124 284.395L698.734 284.66L691.429 284.759C688.983 284.807 686.527 284.745 684.081 284.803L683.598 284.802L683.6 284.308L683.57 272.002L683.572 271.454L684.12 271.456L698.641 271.564C703.488 271.578 708.325 271.713 713.161 271.782L713.469 271.783L713.468 272.09C713.462 274.174 713.368 276.246 713.307 278.297L713.124 284.395ZM713.124 284.395L712.989 278.198C712.94 276.157 712.88 274.139 712.864 272.121L713.159 272.429C708.323 272.47 703.486 272.576 698.638 272.562L684.117 272.585L684.667 272.039L684.631 284.311L684.139 283.827C686.529 283.834 688.92 283.841 691.322 283.903L698.462 284.111L713.124 284.395Z" fill="#EBEBEB"/>
<path d="M696.881 299.822L682.49 300.087L675.174 300.186C672.74 300.179 670.283 300.172 667.837 300.231L667.354 300.229L667.356 299.736L667.392 287.463L667.393 286.915L667.942 286.916L682.463 287.035C687.299 287.05 692.147 287.184 696.983 287.253L697.29 287.254L697.289 287.55C697.283 289.634 697.189 291.707 697.129 293.758L696.881 299.822ZM696.881 299.822L696.745 293.625C696.696 291.585 696.636 289.567 696.62 287.548L696.916 287.856C692.079 287.897 687.231 288.004 682.394 287.989L667.873 288.013L668.423 287.466L668.387 299.739L667.895 299.255C670.286 299.262 672.676 299.269 675.078 299.331L682.284 299.483L696.881 299.822Z" fill="#EBEBEB"/>
<path d="M729.278 299.917L714.888 300.182L707.583 300.281C705.137 300.274 702.68 300.267 700.234 300.325L699.752 300.324L699.753 299.83L699.723 287.558L699.725 287.009L700.273 287.011L714.794 287.13C719.642 287.144 724.478 287.279 729.315 287.348L729.622 287.349L729.621 287.645C729.615 289.729 729.51 291.801 729.46 293.852L729.278 299.917ZM729.278 299.917L729.143 293.72C729.148 291.68 729.034 289.661 729.018 287.643L729.313 287.951C724.476 287.992 719.639 288.098 714.791 288.084L700.27 288.108L700.82 287.561L700.784 299.833L700.292 299.349C702.694 299.356 705.074 299.363 707.476 299.425L714.692 299.578L729.278 299.917Z" fill="#EBEBEB"/>
<path d="M299.449 137.154L285.059 137.419L277.754 137.518C275.308 137.511 272.851 137.504 270.406 137.496L269.923 137.495L269.925 137.001L269.895 124.729L269.896 124.18L270.445 124.182L284.966 124.29C289.813 124.304 294.65 124.439 299.486 124.508L299.793 124.509L299.792 124.805C299.786 126.889 299.681 128.951 299.621 131.001L299.449 137.154ZM299.449 137.154L299.314 130.946C299.32 128.906 299.205 126.887 299.189 124.88L299.484 125.177C294.647 125.163 289.81 125.324 284.963 125.31L270.441 125.344L270.991 124.798L270.9 137.07L270.408 136.575C272.799 136.582 275.19 136.589 277.592 136.662L284.808 136.804L299.449 137.154Z" fill="#EBEBEB"/>
<path d="M283.183 152.581L268.793 152.846L261.477 152.945C259.042 152.938 256.586 152.931 254.14 152.978L253.657 152.977L253.659 152.484L253.607 140.232L253.608 139.684L254.157 139.686L268.678 139.794C273.514 139.808 278.362 139.943 283.198 140.012L283.505 140.013L283.504 140.32C283.498 142.404 283.405 144.465 283.344 146.516L283.183 152.581ZM283.183 152.581L283.048 146.373C282.999 144.333 282.939 142.314 282.923 140.307L283.218 140.604C278.382 140.645 273.534 140.751 268.697 140.737L254.176 140.772L254.726 140.225L254.668 152.497L254.176 152.002C256.566 152.009 258.957 152.016 261.359 152.089L268.565 152.231L283.183 152.581Z" fill="#EBEBEB"/>
<path d="M315.603 152.676L301.212 152.941L293.908 153.04C291.462 153.033 289.016 153.026 286.559 153.073L286.076 153.072L286.078 152.579L286.048 140.328L286.05 139.779L286.598 139.781L301.119 139.889C305.967 139.903 310.803 140.038 315.639 140.107L315.947 140.108L315.946 140.415C315.94 142.499 315.835 144.56 315.785 146.611L315.603 152.676ZM315.603 152.676L315.467 146.468C315.473 144.428 315.359 142.409 315.342 140.402L315.638 140.699C310.801 140.74 305.964 140.846 301.116 140.832L286.595 140.867L287.145 140.32L287.054 152.592L286.562 152.097C288.964 152.104 291.344 152.111 293.746 152.184L300.962 152.326L315.603 152.676Z" fill="#EBEBEB"/>
<path d="M62.4172 217.662L48.0268 217.927L40.7111 218.026C38.2763 218.019 35.8196 218.012 33.3736 218.06L32.9349 218.059L32.9364 217.565L32.9723 205.292L32.9739 204.744L33.5223 204.746L48.0432 204.854C52.8799 204.868 57.7272 205.003 62.5637 205.072L62.8708 205.073L62.87 205.369C62.8639 207.453 62.7701 209.514 62.7093 211.565L62.4172 217.662ZM62.4172 217.662L62.2818 211.454C62.2878 209.414 62.1731 207.396 62.157 205.389L62.4523 205.686C57.6154 205.726 52.7674 205.833 47.9307 205.819L33.4093 205.853L33.9593 205.306L33.8686 217.579L33.3765 217.084C35.7674 217.091 38.1583 217.098 40.5601 217.171L47.7654 217.312L62.4172 217.662Z" fill="#EBEBEB"/>
<path d="M544.096 137.859L529.706 138.124L522.401 138.223C519.955 138.271 517.499 138.209 515.053 138.256L514.57 138.255L514.572 137.761L514.542 125.488L514.543 124.94L515.092 124.942L529.613 125.05C534.46 125.064 539.297 125.21 544.133 125.279L544.44 125.28L544.44 125.576C544.433 127.66 544.34 129.732 544.279 131.772L544.096 137.859ZM544.096 137.859L543.961 131.661C543.912 129.61 543.852 127.592 543.836 125.585L544.132 125.882C539.295 125.923 534.458 126.029 529.61 126.026L515.089 126.049L515.639 125.502L515.548 137.775L515.056 137.28C517.447 137.287 519.838 137.294 522.239 137.367L529.456 137.509L544.096 137.859Z" fill="#EBEBEB"/>
<path d="M712.223 19.1573L697.832 19.4223L690.516 19.5215C688.082 19.5144 685.625 19.5072 683.179 19.5658L682.696 19.5644L682.698 19.0709L682.734 6.79814L682.735 6.24976L683.284 6.25136L697.805 6.35966C702.641 6.37381 707.489 6.51961 712.325 6.5886L712.632 6.5895L712.631 6.88562C712.625 8.96947 712.532 11.0421 712.471 13.0819L712.223 19.1573ZM712.223 19.1573L712.087 12.9601C712.038 10.909 711.978 8.8908 711.962 6.88367L712.258 7.18066C707.421 7.16651 702.573 7.3278 697.736 7.32462L683.215 7.34793L683.765 6.80115L683.674 19.0737L683.182 18.5787C685.573 18.5857 687.964 18.5927 690.365 18.6656L697.571 18.8073L712.223 19.1573Z" fill="#EBEBEB"/>
<path d="M728.376 34.6793L713.986 34.9443L706.681 35.0435C704.235 35.0912 701.778 35.0292 699.332 35.0769L698.85 35.0755L698.851 34.5819L698.821 22.309L698.823 21.7606L699.371 21.7622L713.892 21.8705C718.74 21.8847 723.576 22.0305 728.413 22.0995L728.72 22.1004L728.719 22.3965C728.713 24.4803 728.608 26.5529 728.547 28.5927L728.376 34.6793ZM728.376 34.6793L728.241 28.4822C728.247 26.4312 728.132 24.4128 728.116 22.4057L728.411 22.7027C723.574 22.7434 718.737 22.8499 713.889 22.8466L699.368 22.87L699.918 22.3232L699.882 34.5959L699.39 34.1009C701.781 34.1079 704.172 34.1149 706.574 34.1878L713.79 34.3295L728.376 34.6793Z" fill="#EBEBEB"/>
<path d="M30.6061 17.1735L16.2048 17.4385L8.9 17.5378C6.4652 17.5306 4.00846 17.5234 1.56249 17.5821L1.06895 17.5806L1.07039 17.0871L1.10631 4.81437L1.10791 4.26599L1.66726 4.26763L16.1881 4.38689C21.0248 4.40105 25.8612 4.53584 30.7087 4.60487L31.0048 4.60573L31.004 4.90186C30.9979 6.9857 30.8931 9.05829 30.8432 11.1091L30.6061 17.1735ZM30.6061 17.1735L30.4598 10.9764C30.4658 8.92543 30.351 6.90704 30.3349 4.8999L30.6412 5.19693C25.7933 5.24855 20.9563 5.34407 16.1195 5.34088L1.59824 5.3642L2.14823 4.81742L2.04651 17.09L1.56519 16.6608C3.95612 16.6678 6.33609 16.6748 8.738 16.6818L15.9543 16.8236L30.6061 17.1735Z" fill="#EBEBEB"/>
<path d="M385.875 170.442C384.525 171.709 382.853 172.581 381.042 172.961C379.944 173.243 378.726 173.404 377.563 173.609L373.593 173.597C371.959 173.34 370.304 173.138 368.715 172.815C362.775 171.522 357.153 169.06 352.174 165.572C339.064 156.85 328.029 145.353 319.853 131.895C317.111 127.454 315.228 122.537 314.301 117.401C314.064 116.051 313.882 114.691 313.677 113.33L313.689 109.36C314.022 107.836 314.29 106.291 314.7 104.789C315.104 103.38 315.863 102.099 316.905 101.067C317.102 101.243 317.277 101.386 317.452 101.562C323.75 107.89 330.053 114.219 336.359 120.547C336.563 120.718 336.709 120.949 336.775 121.207C336.841 121.465 336.825 121.737 336.728 121.985C336.243 123.548 336.173 125.209 336.526 126.807C336.879 128.404 337.643 129.882 338.741 131.094C344.118 137.238 349.878 143.035 355.986 148.452C357.204 149.564 358.691 150.339 360.3 150.699C361.909 151.06 363.585 150.994 365.16 150.508C365.621 150.388 365.951 150.313 366.344 150.709C372.782 157.22 379.234 163.717 385.7 170.2C385.733 170.233 385.777 170.332 385.875 170.442Z" fill="#EBEBEB"/>
<path d="M398.33 156.296L398.326 157.612C397.751 158.435 397.13 159.224 396.466 159.975C394.507 161.999 392.484 163.956 390.493 165.935L389.877 166.515L370.433 146.968C372.996 144.453 375.548 141.883 378.188 139.38C378.474 139.116 378.81 138.912 379.176 138.78C379.543 138.648 379.932 138.592 380.32 138.613C380.709 138.635 381.089 138.734 381.439 138.906C381.788 139.077 382.1 139.317 382.355 139.611C383.82 141.041 385.242 142.504 386.729 143.945C390.108 147.355 393.509 150.743 396.855 154.175C397.402 154.842 397.895 155.551 398.33 156.296Z" fill="#EBEBEB"/>
<path d="M347.348 109.557C344.928 111.886 342.454 114.16 340.056 116.413L320.766 97.0203C321.195 96.6377 321.69 96.2333 322.141 95.7959C323.923 94.0354 325.672 92.2308 327.486 90.5032C328.223 89.8604 328.998 89.262 329.806 88.7113L331.133 88.7152C331.871 89.1716 332.574 89.6833 333.234 90.2459C337.959 94.9539 342.664 99.6837 347.352 104.435C349.124 106.217 349.119 107.819 347.348 109.557Z" fill="#EBEBEB"/>
<path d="M23.0898 119.368L150.016 119.74L150.252 39.2166L23.3254 38.8452L23.0898 119.368Z" fill="#EBEBEB"/>
<path d="M173.759 119.809L150.014 119.74L150.086 95.0076L173.759 119.809Z" fill="#EBEBEB"/>
<path d="M135.513 53.0912L37.9697 52.8058L37.9652 54.3412L135.509 54.6267L135.513 53.0912Z" fill="white"/>
<path d="M88.3636 61.2227L37.9456 61.0752L37.9411 62.6107L88.3591 62.7582L88.3636 61.2227Z" fill="white"/>
<path d="M116.776 77.8337L37.8972 77.6029L37.8927 79.1384L116.772 79.3692L116.776 77.8337Z" fill="white"/>
<path d="M135.417 86.1464L37.873 85.861L37.8686 87.3964L135.412 87.6818L135.417 86.1464Z" fill="white"/>
<path d="M135.392 94.4048L37.8486 94.1194L37.8441 95.6548L135.388 95.9402L135.392 94.4048Z" fill="white"/>
<path d="M72.4821 102.49L37.8245 102.389L37.82 103.924L72.4776 104.026L72.4821 102.49Z" fill="white"/>
<path d="M707.882 153.527L580.956 153.156L580.748 224.17L707.674 224.541L707.882 153.527Z" fill="#DBDBDB"/>
<path d="M557.004 224.111L580.749 224.181L580.821 199.449L557.004 224.111Z" fill="#DBDBDB"/>
<path d="M680.749 190.529L595.829 190.28L595.824 191.816L680.745 192.064L680.749 190.529Z" fill="white"/>
<path d="M663.266 198.746L595.804 198.549L595.8 200.085L663.262 200.282L663.266 198.746Z" fill="white"/>
<path d="M668.428 173.964L595.877 173.752L595.873 175.288L668.423 175.5L668.428 173.964Z" fill="white"/>
<path d="M690.626 165.771L595.901 165.494L595.897 167.029L690.622 167.306L690.626 165.771Z" fill="white"/>
<path d="M670.24 207.026L595.781 206.808L595.776 208.343L670.235 208.561L670.24 207.026Z" fill="white"/>
<path d="M643.977 77.8628L410.91 77.1808L410.88 87.4024L643.947 88.0844L643.977 77.8628Z" fill="#EBEBEB"/>
<path d="M434.164 87.4817L423.942 87.4518L423.843 121.254L434.065 121.284L434.164 87.4817Z" fill="#EBEBEB"/>
<path d="M434.164 87.4817L423.942 87.4518L423.911 97.9039L434.133 97.9338L434.164 87.4817Z" fill="#DBDBDB"/>
<path d="M630.884 88.0571L620.662 88.0272L620.563 121.829L630.785 121.859L630.884 88.0571Z" fill="#EBEBEB"/>
<path d="M630.884 88.0571L620.662 88.0272L620.632 98.4793L630.853 98.5093L630.884 88.0571Z" fill="#DBDBDB"/>
<path d="M470.824 77.3579L471.015 12.2213L454.607 12.1733L454.417 77.3099L470.824 77.3579Z" fill="#C7C7C7"/>
<path d="M471.004 15.8954L471.025 8.73352L454.617 8.68551L454.596 15.8473L471.004 15.8954Z" fill="#DBDBDB"/>
<path d="M470.958 27.7291L470.966 25.075L454.558 25.0269L454.551 27.6811L470.958 27.7291Z" fill="#DBDBDB"/>
<path d="M472.889 68.8296L472.91 61.6677L454.462 61.6137L454.441 68.7756L472.889 68.8296Z" fill="#DBDBDB"/>
<path d="M482.285 77.3922L482.507 1.40869L471.046 1.37515L470.824 77.3587L482.285 77.3922Z" fill="#DBDBDB"/>
<path d="M480.065 37.7697L480.15 8.54102L473.273 8.52089L473.188 37.7496L480.065 37.7697Z" fill="#EBEBEB"/>
<path d="M563.829 69.5136L509.948 15.9374L501.867 24.0646L555.748 77.6408L563.829 69.5136Z" fill="#C7C7C7"/>
<path d="M549.601 58.5477L528.875 37.9385L524.026 42.8148L544.752 63.424L549.601 58.5477Z" fill="#DBDBDB"/>
<path d="M501.741 77.4701L501.91 19.7477L482.442 19.6907L482.273 77.4132L501.741 77.4701Z" fill="#A6A6A6"/>
<path d="M501.759 71.3381L501.774 65.964L482.307 65.907L482.291 71.2811L501.759 71.3381Z" fill="#C7C7C7"/>
<path d="M501.785 62.4435L501.791 60.3596L482.323 60.3027L482.317 62.3865L501.785 62.4435Z" fill="#C7C7C7"/>
<path d="M454.417 77.3318L454.575 23.0861L441.129 23.0467L440.97 77.2924L454.417 77.3318Z" fill="#A6A6A6"/>
<path d="M454.434 71.5723L454.448 66.5162L441.002 66.4769L440.987 71.533L454.434 71.5723Z" fill="#C7C7C7"/>
<path d="M454.528 39.3173L454.543 34.2612L441.097 34.2219L441.082 39.278L454.528 39.3173Z" fill="#C7C7C7"/>
<path d="M454.512 44.7465L454.518 42.7833L441.072 42.744L441.066 44.7072L454.512 44.7465Z" fill="#C7C7C7"/>
<path d="M619.55 52.5232L618.08 56.3905L617.174 58.7459L615.693 62.6241L609.923 77.7755L578.962 77.6849L573.259 62.4999L571.801 58.6131L570.919 56.2525L569.461 52.3766L580.938 35.7503L575.048 24.7544L614.158 24.8688L608.17 35.83L619.55 52.5232Z" fill="#DBDBDB"/>
<path d="M619.55 52.5227L618.08 56.39L570.919 56.252L569.461 52.3761L619.55 52.5227Z" fill="#A6A6A6"/>
<path d="M617.174 58.745L615.692 62.6232L573.259 62.499L571.801 58.6122L617.174 58.745Z" fill="#A6A6A6"/>
<path d="M14.7399 371.636L102.26 371.629L189.768 371.786L364.795 372.123L539.822 372.811L627.329 373.165L714.847 373.685L627.328 373.703L539.819 373.545L364.792 373.209L189.766 372.521L102.258 372.166L14.7399 371.636Z" fill="#263238"/>
<path d="M355.296 372.612L489.822 373.006L463.463 216.895L362.859 216.6L355.296 372.612Z" fill="#DBDBDB"/>
<path d="M355.296 372.612L367.097 372.647L374.167 216.633L362.859 216.6L355.296 372.612Z" fill="#A6A6A6"/>
<path d="M472.552 247.509C487.676 281.553 524.295 338.087 540.798 324.152C565.481 303.32 582.286 257.131 588.922 238.451C592.648 227.988 539.343 210.306 536.047 219.805C531.358 233.303 523.982 261.523 519.748 265.513C517.548 267.602 500.138 243.017 486.945 231.342C467.9 214.517 467.726 236.637 472.552 247.509Z" fill="#AD6359"/>
<path d="M602.294 222.753C597.514 233.421 579.178 251.432 573.094 254.079C567.01 256.726 535.004 227.645 535.693 220.825C536.382 214.005 555.636 178.329 566.257 172.876C576.879 167.423 607.251 211.69 602.294 222.753Z" fill="#AD6359"/>
<path d="M538.226 213.331C538.226 213.331 539.039 198.132 535.238 185.267C532.045 174.455 526.091 158.764 531.833 156.829C543.646 152.86 558.491 192.003 558.491 192.003C558.491 192.003 562.276 210.331 550.932 215.299C543.816 218.415 538.226 213.331 538.226 213.331Z" fill="#AD6359"/>
<path d="M551.614 184.536C552.364 190.691 559.188 186.28 559.188 186.28C559.188 186.28 550.903 195.03 554.132 201.039C557.274 206.85 565.319 201.225 565.901 200.832C565.461 201.303 558.067 209.507 561.943 215.243C565.973 221.2 573.079 214.179 573.541 213.72C573.265 214.278 569.799 221.847 573.736 225.543C580.496 231.87 589.896 212.77 597.097 210.652C597.097 210.652 602.086 222.435 602.294 222.732C602.294 222.732 611.614 204.728 608.22 195.176C607.744 193.781 606.807 192.589 605.564 191.798C604.32 191.007 602.843 190.663 601.378 190.824C601.378 190.824 605.024 185.351 602.12 180.736C600.614 178.373 595.546 178.666 595.546 178.666C595.546 178.666 598.279 174.166 595.439 170.231C593.178 167.077 588.405 167.863 588.405 167.863C588.405 167.863 589.024 162.316 585.675 159.849C578.868 154.872 549.996 171.359 551.614 184.536Z" fill="#AD6359"/>
<path d="M587.582 167.893C587.681 167.839 587.582 167.696 587.527 167.729C576.704 170.834 565.772 177.536 558.792 186.476C558.561 186.772 558.932 187.266 559.251 186.993C568.256 179.178 576.775 172.984 587.582 167.893Z" fill="#263238"/>
<path d="M595.611 178.522C595.732 178.468 595.612 178.27 595.513 178.303C584.372 181.56 572.273 189.488 565.429 200.709C565.198 201.093 565.372 201.674 565.68 201.259C570.79 194.166 585.859 183.067 595.611 178.522Z" fill="#263238"/>
<path d="M573.329 214.65C580.302 204.142 589.942 196.92 600.916 190.931C601.048 190.855 600.917 190.668 600.796 190.7C594.628 192.163 588.034 196.706 583.219 200.684C578.662 204.283 575.131 209.015 572.979 214.408C572.879 214.649 573.186 214.891 573.329 214.65Z" fill="#263238"/>
<path d="M558.968 186.268C558.693 186.618 559.515 186.631 559.251 186.993C558.15 188.503 552.254 198.192 554.932 201.238C557.118 203.668 561.827 202.454 563.476 201.263L567.597 198.303L564.755 202.561C563.476 204.426 562.507 206.487 561.886 208.662C561.542 209.652 561.413 210.704 561.506 211.748C561.6 212.792 561.914 213.804 562.427 214.717C562.909 215.564 563.668 216.218 564.576 216.571C565.484 216.923 566.486 216.951 567.412 216.651C569.477 215.947 571.327 214.725 572.786 213.102L576.966 208.728L574.449 214.204C573.746 215.719 573.237 217.317 572.933 218.96C572.593 220.504 572.714 222.113 573.281 223.589C573.562 224.239 574.018 224.798 574.598 225.204C575.177 225.611 575.858 225.848 576.565 225.891C578.167 225.733 579.691 225.121 580.957 224.127C583.732 222.019 586.339 219.698 588.754 217.185C590.018 215.961 591.283 214.725 592.614 213.544C593.864 212.301 595.362 211.334 597.009 210.706C595.443 211.493 594.046 212.581 592.898 213.907C591.677 215.165 590.51 216.478 589.344 217.801C587.051 220.534 584.511 223.049 581.754 225.314C580.276 226.561 578.468 227.352 576.549 227.591C575.491 227.598 574.454 227.299 573.563 226.73C572.671 226.161 571.963 225.347 571.524 224.384C570.762 222.573 570.558 220.575 570.938 218.647C571.238 216.812 571.778 215.026 572.544 213.332L574.208 214.434C572.512 216.379 570.338 217.847 567.9 218.693C566.534 219.125 565.06 219.066 563.732 218.527C562.45 217.96 561.367 217.021 560.625 215.831C559.976 214.671 559.579 213.388 559.462 212.064C559.345 210.74 559.51 209.407 559.946 208.151C560.653 205.77 561.753 203.523 563.201 201.503L564.48 202.758C562.283 204.177 557.188 206.114 553.37 202.78C549.152 197.624 557.351 187.93 558.968 186.268Z" fill="#263238"/>
<path d="M559.188 186.28C558.001 186.749 556.75 187.038 555.478 187.135C554.967 187.187 554.452 187.1 553.985 186.884C553.519 186.669 553.119 186.333 552.827 185.91C552.314 184.894 552.107 183.75 552.234 182.618C552.303 181.368 552.439 180.063 552.64 178.715C551.802 179.814 551.207 181.08 550.896 182.428C550.683 183.155 550.616 183.917 550.699 184.67C550.781 185.423 551.012 186.152 551.377 186.816C551.855 187.506 552.53 188.036 553.314 188.335C554.068 188.584 554.878 188.617 555.65 188.43C557.026 188.104 558.264 187.351 559.188 186.28Z" fill="#263238"/>
<path d="M532.798 220.815L588.223 259.66C588.223 259.66 554.846 328.295 534.348 328.049C513.851 327.802 484.39 276.235 474.244 253.952C464.099 231.669 470.241 212.834 490.844 233.162C511.447 253.491 518.826 261.869 519.496 261.597C520.747 261.096 532.798 220.815 532.798 220.815Z" fill="#6DDAD3"/>
<path d="M588.223 259.66C588.223 259.66 565.052 307.256 545.495 323.036C541.571 326.205 537.803 328.091 534.349 328.038C513.851 327.802 484.39 276.224 474.19 253.952C467.88 240.158 467.861 227.688 473.638 225.018C477.207 223.372 482.959 225.429 490.8 233.195C511.578 253.666 518.771 261.891 519.452 261.619C520.747 261.096 532.809 220.826 532.809 220.826L588.223 259.66Z" fill="#6DDAD3"/>
<path d="M553.689 314.944C553.007 315.732 552.314 316.497 551.621 317.241C545.359 321.158 538.34 323.705 531.024 324.716C529.006 324.933 526.976 325.007 524.947 324.939L523.688 324.146C526.109 324.299 528.538 324.244 530.949 323.981C533.836 323.674 536.676 323.027 539.411 322.053L541.486 321.379L543.495 320.541C544.165 320.257 544.857 320.018 545.505 319.691L547.449 318.71C549.612 317.597 551.697 316.339 553.689 314.944ZM511.73 254.27C505.384 257.134 499.592 261.093 494.619 265.966C491.394 269.125 488.411 272.522 485.695 276.129C485.826 276.37 485.968 276.623 486.121 276.865C488.869 273.198 491.897 269.749 495.177 266.549C499.344 262.479 504.088 259.045 509.256 256.358L511.2 255.376C511.557 255.197 511.924 255.037 512.298 254.897L511.73 254.27ZM559.691 257.909C554.431 255.316 548.926 253.253 543.258 251.752C542.666 251.608 542.074 251.463 541.471 251.341C541.088 251.252 540.693 251.163 540.309 251.096C535.518 250.078 530.598 249.812 525.725 250.308C525.012 250.405 524.31 250.512 523.596 250.642C523.519 250.894 523.43 251.157 523.353 251.398C524.165 251.258 524.988 251.139 525.811 251.043C530.334 250.579 534.9 250.78 539.365 251.642L540.559 251.865C541.403 252.043 542.247 252.232 543.091 252.443C548.712 253.909 554.173 255.931 559.393 258.478C567.212 262.343 574.795 266.668 582.102 271.432C582.212 271.246 582.311 271.059 582.399 270.884C575.095 266.111 567.512 261.779 559.691 257.909ZM565.49 243.734C556.597 244.075 547.926 246.604 540.244 251.096L539.299 251.642C537.359 252.797 535.484 254.058 533.683 255.42C524.263 262.543 516.735 271.712 509.568 280.937C505.979 285.565 502.456 290.227 498.736 294.735C498.472 295.063 498.196 295.38 497.921 295.709L498.336 296.313C498.655 295.941 498.975 295.569 499.283 295.219C503.025 290.7 506.559 286.039 510.159 281.421C517.326 272.229 524.843 263.126 534.164 256.101C536.184 254.57 538.298 253.166 540.494 251.898C540.79 251.712 541.098 251.537 541.405 251.374C543.964 249.948 546.63 248.723 549.378 247.712L551.432 246.972C552.112 246.733 552.826 246.571 553.528 246.364L555.625 245.789L557.819 245.368C560.653 244.738 563.551 244.444 566.453 244.494L566.585 244.494L565.49 243.734ZM497.339 239.707C493.503 241.399 489.495 242.67 485.385 243.5L483.245 243.91C482.532 244.04 481.808 244.082 481.051 244.178L478.856 244.424L476.663 244.505C474.66 244.638 472.649 244.596 470.653 244.378L470.848 245.102C480.117 245.806 489.413 244.158 497.875 240.312C497.755 240.103 497.547 239.905 497.339 239.707ZM481.564 226.039C477.673 228.666 473.638 231.075 469.479 233.253C469.478 233.55 469.477 233.846 469.476 234.153C473.914 231.848 478.207 229.275 482.331 226.447C482.068 226.304 481.816 226.161 481.564 226.039Z" fill="white"/>
<path d="M575.077 266.07C573.611 264.849 572.134 263.66 570.646 262.471C567.626 260.071 564.605 257.682 561.585 255.305C555.567 250.582 549.416 246.023 543.222 241.541C539.709 238.986 536.251 236.3 532.627 233.91C532.61 233.897 532.591 233.887 532.57 233.882C532.549 233.876 532.527 233.875 532.505 233.878C532.484 233.881 532.464 233.888 532.445 233.899C532.426 233.91 532.41 233.925 532.397 233.942C532.384 233.959 532.374 233.979 532.369 234C532.364 234.021 532.362 234.042 532.365 234.064C532.368 234.085 532.376 234.106 532.386 234.124C532.397 234.143 532.412 234.159 532.429 234.172C535.306 236.725 538.392 239.059 541.379 241.492C544.366 243.925 547.331 246.368 550.363 248.746C556.388 253.458 562.488 258.078 568.66 262.608C570.378 263.885 572.074 265.228 573.859 266.429C574.767 267.046 575.631 267.728 576.551 268.323C577.471 268.918 578.456 269.426 579.354 270.097C579.374 270.109 579.398 270.113 579.421 270.109C579.445 270.104 579.465 270.091 579.48 270.073C579.495 270.054 579.502 270.031 579.501 270.007C579.5 269.984 579.491 269.961 579.475 269.944C577.976 268.678 576.576 267.303 575.077 266.07Z" fill="#263238"/>
<path d="M519.927 260.37C517.79 266.093 516.029 271.95 514.655 277.903C513.923 280.84 513.344 283.81 512.776 286.77C512.175 289.711 511.771 292.689 511.565 295.683C511.565 295.793 511.729 295.793 511.751 295.684C512.681 292.824 513.37 289.843 514.036 286.916C514.703 283.99 515.457 281.042 516.124 278.148C517.468 272.252 519.043 266.41 520.212 260.48C520.219 260.462 520.223 260.442 520.222 260.422C520.222 260.402 520.217 260.382 520.209 260.363C520.201 260.345 520.189 260.328 520.175 260.315C520.16 260.301 520.143 260.29 520.125 260.283C520.106 260.275 520.086 260.272 520.066 260.272C520.046 260.273 520.026 260.277 520.008 260.285C519.989 260.293 519.973 260.305 519.959 260.319C519.945 260.334 519.934 260.351 519.927 260.37Z" fill="#263238"/>
<path opacity="0.1" d="M545.495 323.036C541.571 326.205 537.803 328.091 534.349 328.037C513.851 327.802 484.39 276.224 474.19 253.952C467.88 240.158 467.862 227.688 473.638 225.018L545.495 323.036Z" fill="black"/>
<path d="M513.555 373.075L380.224 372.685C378.763 369.983 400.951 253.266 446.014 220.507C456.015 213.242 473.703 217.988 478.596 225.099C503.234 260.826 513.555 373.075 513.555 373.075Z" fill="#6DDAD3"/>
<path d="M506.775 321.212C503.45 320.024 500.192 318.656 497.015 317.114C492.558 314.963 488.254 312.581 483.973 310.068L483.349 309.693C478.97 307.081 474.591 304.316 470.3 301.528L469.687 301.132L466.775 299.237C456.923 292.88 447.225 286.337 436.7 281.239C431.498 278.619 425.972 276.699 420.266 275.532C417.402 275.012 414.486 274.842 411.581 275.024C410.857 275.022 410.144 275.173 409.387 275.269C408.893 275.367 408.399 275.431 407.895 275.528C407.972 275.353 408.038 275.189 408.126 275.014C408.521 274.938 408.927 274.873 409.322 274.787C410.047 274.701 410.782 274.594 411.517 274.541C414.45 274.352 417.396 274.519 420.289 275.038C426.056 276.196 431.642 278.12 436.899 280.757C447.479 285.855 457.243 292.398 467.073 298.733L469.963 300.595L470.587 300.992C474.965 303.823 479.344 306.633 483.888 309.289L484.512 309.664C488.672 312.1 492.91 314.415 497.269 316.501C500.314 317.969 503.433 319.277 506.613 320.422L506.775 321.212ZM495.071 265.496L494.62 265.922C486.14 274.134 479.794 284.162 473.809 294.19C472.545 296.329 471.274 298.464 469.996 300.595C469.896 300.781 469.797 300.957 469.687 301.132C468.067 303.847 466.436 306.551 464.739 309.211C463.251 311.554 461.698 313.863 460.047 316.096C459.893 316.304 459.749 316.512 459.595 316.709C457.924 318.952 456.123 321.097 454.202 323.131C452.2 325.243 449.99 327.147 447.605 328.815L446.715 329.437C446.418 329.645 446.089 329.808 445.781 329.994L443.903 331.085C442.608 331.734 441.273 332.297 439.906 332.773C434.368 334.594 428.574 335.514 422.744 335.498C416.936 335.458 411.149 334.782 405.488 333.484C400.007 332.306 394.693 330.733 389.334 329.16C389.334 329.335 389.245 329.51 389.19 329.675C394.538 331.259 399.907 332.854 405.365 334.043C411.094 335.368 416.951 336.062 422.83 336.112C428.725 336.133 434.586 335.209 440.189 333.377C441.588 332.901 442.953 332.33 444.274 331.668L446.196 330.576C446.521 330.404 446.837 330.215 447.141 330.009L448.053 329.375C450.474 327.691 452.718 325.765 454.749 323.626C456.797 321.447 458.716 319.149 460.494 316.744C460.66 316.537 460.803 316.339 460.946 316.132C462.509 314.008 463.986 311.83 465.352 309.619C467.06 306.959 468.658 304.254 470.311 301.55L470.631 301.014L474.455 294.598C480.451 284.58 486.797 274.641 495.189 266.527L495.332 266.396C495.234 266.078 495.147 265.781 495.071 265.496ZM501.323 291.562C500.475 292.656 499.617 293.685 498.748 294.735C495.103 299.289 491.032 303.486 486.592 307.268C485.712 307.956 484.833 308.645 483.921 309.289L483.349 309.693C482.077 310.585 480.745 311.388 479.361 312.095L478.405 312.607C478.087 312.782 477.736 312.901 477.406 313.054L475.408 313.904C474.045 314.391 472.652 314.786 471.236 315.087C467.835 315.805 464.367 316.162 460.891 316.153L460.047 316.151C457.985 316.145 455.923 315.974 453.873 315.749C448.087 315.003 442.401 313.622 436.918 311.63C431.44 309.717 426.04 307.365 420.673 305.002C415.331 302.567 409.843 300.467 404.24 298.714C402.586 298.237 400.953 297.816 399.199 297.504L399.033 297.975C400.743 298.298 402.442 298.709 404.096 299.196C409.667 300.954 415.122 303.058 420.43 305.495C425.798 307.825 431.165 310.188 436.698 312.123C442.228 314.131 447.961 315.531 453.795 316.297C455.724 316.522 457.654 316.67 459.584 316.709C459.869 316.71 460.144 316.71 460.429 316.711C464.111 316.782 467.79 316.447 471.399 315.712C472.842 315.398 474.264 314.996 475.658 314.508L477.701 313.636C478.041 313.484 478.381 313.364 478.711 313.189L479.688 312.666C481.188 311.907 482.628 311.035 483.995 310.057L484.567 309.653C485.402 309.052 486.227 308.419 487.04 307.774C491.526 303.977 495.637 299.758 499.317 295.175C500.05 294.278 500.784 293.37 501.518 292.451C501.453 292.166 501.388 291.858 501.323 291.562ZM487.69 242.991C486.922 243.175 486.154 243.348 485.386 243.5L483.246 243.91C482.532 244.04 481.808 244.082 481.051 244.178L478.857 244.424L476.663 244.505C473.767 244.684 470.859 244.521 468.001 244.019C463.516 243.231 459.174 241.78 455.115 239.715L454.02 239.175C453.254 238.777 452.498 238.358 451.754 237.929C446.742 234.966 442.041 231.506 437.724 227.6L437.24 228.081C441.598 232.029 446.338 235.533 451.39 238.542C451.916 238.85 452.485 239.148 452.989 239.435L454.084 239.986C458.414 242.274 463.07 243.882 467.889 244.754C474.569 245.711 481.373 245.359 487.918 243.716C487.875 243.474 487.777 243.233 487.69 242.991ZM479.928 227.12C474.092 231.01 467.867 234.282 461.353 236.882C458.991 237.794 456.575 238.56 454.119 239.175L453.087 239.435C450.235 240.09 447.337 240.532 444.419 240.759L442.225 240.895C441.501 240.948 440.778 240.891 440.032 240.888L437.838 240.882L435.645 240.7C433.004 240.54 430.387 240.094 427.84 239.372C427.686 239.58 427.532 239.788 427.389 240.007C436.142 242.232 445.313 242.225 454.062 239.986L455.159 239.715C457.349 239.142 459.504 238.446 461.614 237.628C468.161 235.011 474.419 231.721 480.288 227.812L479.928 227.12ZM512.338 361.599C511.241 361.596 510.056 361.691 508.916 361.721L508.828 361.721L508.159 361.774C502.537 362.345 497.069 363.955 492.034 366.519C488.431 368.388 484.987 370.549 481.738 372.982L482.429 372.984C485.529 370.703 488.806 368.673 492.23 366.915C497.309 364.34 502.828 362.745 508.498 362.213L508.903 362.215L509.167 362.215C510.263 362.219 511.295 362.101 512.347 362.115C512.37 361.918 512.359 361.764 512.338 361.599ZM512.893 366.646C511.706 365.129 510.478 363.638 509.211 362.172C509.09 362.018 508.959 361.875 508.828 361.732L508.38 361.204C504.561 356.727 500.165 352.775 495.308 349.452C492.843 347.834 490.187 346.526 487.401 345.558C486.711 345.326 485.988 345.126 485.286 344.927C484.585 344.727 483.85 344.571 483.094 344.47C481.647 344.192 480.167 344.166 478.708 344.019C472.813 343.786 466.928 344.704 461.383 346.721C455.889 348.791 450.64 351.461 445.731 354.681C436.94 360.304 428.926 366.927 420.365 372.802L420.727 372.803C429.244 367.026 437.214 360.524 445.916 355.022C450.807 351.824 456.038 349.18 461.513 347.138C467.003 345.147 472.828 344.244 478.663 344.479C480.099 344.637 481.569 344.663 482.994 344.942C483.717 345.043 484.408 345.253 485.12 345.398C485.833 345.542 486.523 345.786 487.202 346.018C489.948 346.977 492.563 348.275 494.989 349.879C499.804 353.18 504.156 357.11 507.929 361.565C507.995 361.642 508.06 361.708 508.115 361.784L508.498 362.213C510.028 364.006 511.525 365.831 512.967 367.71C512.979 367.359 512.936 367.019 512.872 366.646L512.893 366.646Z" fill="white"/>
<path d="M428.271 234.767C401.035 266.087 364.285 321.442 379.198 333.747C403.717 353.977 475.464 365.834 491.932 367.835C499.036 368.711 513.407 322.295 508.676 316.271C503.945 310.247 428.063 305.781 427.561 301.118C427.273 298.474 438.867 275.52 446.363 247.345C454.98 214.862 435.941 225.939 428.271 234.767Z" fill="#AD6359"/>
<path d="M496.249 312.406C496.249 312.406 518.031 312.306 532.276 312.907C540.226 313.237 553.799 315.032 559.526 317.955C568.09 322.312 601.12 346.043 595.547 354.176C590.491 361.531 564.7 337.547 564.7 337.547C564.7 337.547 592.866 359.454 585.156 367.219C577.445 374.983 551.904 344.002 551.904 344.002C551.904 344.002 580.352 367.117 571.131 373.89C564.162 378.969 539.454 352.224 539.454 352.224C539.454 352.224 563.754 372.289 556.818 377.829C549.122 383.948 524.788 360.692 524.788 360.692C504.795 371.798 490.765 368.906 480.904 365.663C478.592 364.834 496.249 312.406 496.249 312.406Z" fill="#AD6359"/>
<path d="M555.446 329.349C558.849 331.805 562.308 334.261 565.48 337.056C568.653 339.851 571.727 342.657 574.635 345.692C581.753 353.127 585.049 358.884 584.797 358.554C579.073 350.652 567.872 340.649 564.699 337.898C561.527 335.147 558.497 332.253 555.335 329.513C555.259 329.392 555.369 329.294 555.446 329.349Z" fill="#263238"/>
<path d="M545.322 340.627C549.524 343.929 553.825 347.079 557.884 350.589C561.943 354.1 567.434 359.161 571.229 362.923C571.513 363.209 571.226 363.757 570.92 363.482C566.982 359.873 561.129 354.942 557.147 351.377C553.165 347.812 549.326 344.104 545.234 340.703C545.169 340.692 545.257 340.572 545.322 340.627Z" fill="#263238"/>
<path d="M534.858 348.734C541.545 353.48 547.351 359.453 552.906 365.446C553.19 365.743 552.905 365.786 552.554 365.5C546.659 359.835 542.066 355.346 534.692 348.996C534.605 348.864 534.748 348.635 534.858 348.734Z" fill="#263238"/>
<path d="M493.191 311.707C503.128 311.67 532.312 311.678 542.225 312.475C550.996 313.17 558.218 315.077 565.563 319.968C581.326 330.456 591.467 342.747 594.001 346.374C595.53 348.571 597.746 352.12 595.71 354.571C593.212 357.547 584.063 354.603 574.426 345.834C574.076 345.515 574.296 345.318 574.657 345.615C588.192 356.622 593.591 355.388 595.011 353.516C595.936 352.302 595.021 350.226 594.236 348.579C592.922 346.247 591.314 344.093 589.451 342.171C583.239 335.486 576.363 329.45 568.929 324.157C560.965 318.176 551.468 314.577 541.541 313.778C531.387 312.915 503.288 313.096 493.146 312.09C492.938 312.024 492.972 311.717 493.191 311.707Z" fill="#263238"/>
<path d="M586.78 362.837C586.229 360.126 584.284 357.642 582.744 355.4C580.874 352.579 578.725 349.953 576.329 347.561C576.231 347.462 576.044 347.56 576.142 347.714C578.181 350.112 580.075 352.63 581.812 355.255C582.736 356.698 583.574 358.195 584.322 359.737C585.03 361.219 585.87 362.933 585.492 364.621C584.781 367.843 580.679 367.754 578.258 366.881C576.689 366.285 575.179 365.547 573.745 364.674C571.793 363.422 569.942 362.02 568.208 360.479C568.066 360.347 567.671 360.401 567.824 360.544C571.433 363.998 578.267 371.18 583.868 368.575C584.943 368.104 585.821 367.274 586.352 366.228C586.883 365.181 587.035 363.983 586.78 362.837Z" fill="#263238"/>
<path d="M496.588 309.59L470.323 368.737C470.323 368.737 379.201 347.884 373.965 330.562C368.729 313.24 397.435 267.02 423.304 238.185C448.743 209.854 452.438 229.135 446.067 251.084C439.697 273.033 429.28 298.326 430.426 300.227C431.572 302.128 496.588 309.59 496.588 309.59Z" fill="#6DDAD3"/>
<path d="M436.351 280.492C436.285 280.656 436.23 280.832 436.164 280.996C431.106 278.49 425.743 276.653 420.211 275.531C417.347 275.012 414.431 274.841 411.526 275.023C410.802 275.021 410.089 275.173 409.332 275.269C408.575 275.366 407.906 275.484 407.203 275.68C405.776 275.983 404.426 276.527 403.032 276.951C397.652 278.98 392.713 282.026 388.485 285.923L389.179 284.73C393.211 281.19 397.849 278.406 402.868 276.512C404.274 276.077 405.646 275.522 407.095 275.219C407.808 275.023 408.543 274.938 409.29 274.786C410.036 274.635 410.749 274.593 411.484 274.541C414.417 274.352 417.363 274.519 420.256 275.038C425.836 276.148 431.246 277.982 436.351 280.492ZM484.523 309.664L483.899 309.289L481.403 307.801L479.89 307.621C480.984 308.315 482.178 309.021 483.327 309.693L483.951 310.068C487.236 311.997 490.521 313.849 493.894 315.581L494.159 314.978C490.917 313.291 487.709 311.516 484.523 309.664ZM466.733 305.982C466.072 307.076 465.4 308.171 464.717 309.211C463.23 311.554 461.676 313.863 460.025 316.096C459.871 316.304 459.727 316.512 459.573 316.709C457.902 318.952 456.101 321.097 454.18 323.131C452.178 325.243 449.968 327.147 447.583 328.815L446.693 329.437C446.396 329.645 446.067 329.808 445.759 329.994L443.881 331.085C442.586 331.733 441.251 332.297 439.884 332.773C434.346 334.594 428.552 335.514 422.722 335.498C416.921 335.456 411.142 334.781 405.488 333.484C399.777 332.25 394.178 330.578 388.556 328.927C383.57 327.465 378.551 325.991 373.421 325.022C373.421 325.198 373.42 325.373 373.42 325.538C378.495 326.507 383.459 327.991 388.423 329.442C394.033 331.104 399.655 332.765 405.387 334.043C411.116 335.368 416.973 336.062 422.852 336.112C428.747 336.133 434.608 335.209 440.211 333.377C441.61 332.901 442.975 332.33 444.296 331.667L446.218 330.576C446.543 330.404 446.858 330.215 447.163 330.009L448.075 329.375C450.496 327.691 452.74 325.765 454.771 323.626C456.819 321.447 458.738 319.149 460.516 316.744C460.681 316.536 460.825 316.339 460.968 316.131C462.531 314.008 464.007 311.83 465.374 309.619C466.123 308.458 466.85 307.276 467.578 306.105L466.733 305.982ZM485.284 308.229C484.833 308.579 484.372 308.929 483.899 309.256L483.327 309.66C482.055 310.552 480.723 311.355 479.339 312.061L478.384 312.574C478.065 312.749 477.714 312.868 477.384 313.021L475.386 313.871C474.023 314.358 472.63 314.753 471.215 315.054C467.813 315.772 464.346 316.129 460.869 316.12L460.025 316.118C457.963 316.112 455.901 315.941 453.851 315.716C448.065 314.97 442.38 313.589 436.897 311.597C431.418 309.684 426.018 307.332 420.651 304.969C415.31 302.534 409.821 300.434 404.218 298.681C398.597 297.052 392.6 296.157 386.773 297.281C384.919 297.648 383.124 298.266 381.438 299.119C381.327 299.338 381.217 299.568 381.118 299.787C382.923 298.831 384.857 298.142 386.86 297.742C392.588 296.662 398.508 297.534 404.074 299.163C409.645 300.921 415.1 303.025 420.408 305.462C425.776 307.792 431.143 310.155 436.676 312.09C442.212 314.111 447.952 315.522 453.795 316.297C455.724 316.522 457.654 316.67 459.584 316.709C459.869 316.71 460.144 316.71 460.429 316.711C464.111 316.782 467.79 316.447 471.399 315.712C472.842 315.398 474.264 314.996 475.658 314.507L477.7 313.636C478.041 313.483 478.381 313.364 478.711 313.189L479.688 312.666C481.188 311.907 482.628 311.035 483.995 310.057L484.567 309.653C485.138 309.238 485.666 308.801 486.282 308.364L485.284 308.229ZM437.768 227.545C437.297 227.127 436.838 226.72 436.378 226.291L435.785 226.673L437.317 228.048C440.878 231.256 444.683 234.183 448.697 236.801C448.698 236.527 448.699 236.253 448.699 235.989C444.857 233.463 441.21 230.651 437.79 227.578L437.768 227.545ZM444.397 240.726L442.203 240.862C441.479 240.914 440.756 240.858 440.01 240.855L437.816 240.849L435.624 240.667C432.724 240.485 429.855 239.969 427.073 239.129C425.857 238.763 424.652 238.343 423.469 237.857L423.205 238.152L422.952 238.436C424.229 238.976 425.534 239.445 426.863 239.841C433.804 241.716 441.057 242.14 448.169 241.088C448.17 240.813 448.247 240.55 448.292 240.276C447.074 240.514 445.746 240.664 444.419 240.759L444.397 240.726ZM478.708 343.986C472.81 343.764 466.926 344.693 461.383 346.721C455.889 348.791 450.64 351.461 445.731 354.681C442.984 356.45 440.302 358.307 437.654 360.218L438.081 360.34C440.653 358.494 443.257 356.714 445.927 355.022C450.818 351.824 456.049 349.18 461.524 347.138C467.014 345.147 472.839 344.244 478.674 344.479C479.431 344.558 480.187 344.604 480.944 344.672L481.153 344.212C480.375 344.144 479.542 344.098 478.73 344.019L478.708 343.986Z" fill="white"/>
<path d="M459.888 358.913C460.781 357.226 461.642 355.54 462.502 353.842C464.23 350.404 465.952 346.957 467.665 343.504C471.063 336.648 474.286 329.704 477.389 322.694C479.166 318.729 481.097 314.808 482.699 310.766C482.718 310.725 482.72 310.678 482.705 310.636C482.69 310.594 482.658 310.56 482.617 310.54C482.577 310.521 482.53 310.519 482.488 310.535C482.446 310.55 482.411 310.581 482.392 310.622C480.485 313.962 478.83 317.456 477.065 320.883C475.3 324.311 473.502 327.706 471.803 331.167C468.42 338.022 465.139 344.933 461.959 351.9C461.065 353.849 460.095 355.777 459.288 357.77C458.868 358.789 458.383 359.775 457.974 360.805C457.565 361.834 457.255 362.886 456.868 363.905C456.863 363.916 456.86 363.928 456.86 363.94C456.859 363.951 456.861 363.963 456.865 363.975C456.869 363.986 456.875 363.996 456.883 364.005C456.891 364.014 456.901 364.021 456.912 364.026C456.923 364.031 456.934 364.034 456.946 364.035C456.958 364.035 456.97 364.033 456.981 364.029C456.992 364.025 457.003 364.019 457.011 364.011C457.02 364.003 457.027 363.993 457.032 363.982C457.926 362.285 458.973 360.643 459.888 358.913Z" fill="#263238"/>
<path d="M472.298 364.673L470.454 368.813L470.399 368.945L470.223 368.944C461.597 367.318 453.026 365.373 444.51 363.21C435.995 361.046 427.546 358.597 419.186 355.875C410.796 353.196 402.569 350.03 394.548 346.393C390.523 344.568 386.637 342.453 382.919 340.063C381.064 338.846 379.311 337.48 377.678 335.979C375.993 334.526 374.704 332.67 373.932 330.583C374.896 332.543 376.307 334.249 378.052 335.564C379.779 336.899 381.613 338.089 383.536 339.122C387.339 341.251 391.267 343.149 395.298 344.805C403.35 348.173 411.622 351.049 419.938 353.75C428.254 356.45 436.648 358.964 445.064 361.38C453.48 363.795 461.929 366.189 470.389 368.484L470.169 368.593L472.298 364.673Z" fill="#263238"/>
<path d="M495.54 311.891L496.457 309.535L496.555 309.7C487.41 309.07 478.276 308.308 469.143 307.327C460.01 306.347 450.932 305.278 441.855 303.892C439.585 303.534 437.316 303.154 435.047 302.709C433.951 302.476 432.778 302.253 431.606 301.92C431.31 301.832 431.025 301.743 430.707 301.621C430.525 301.561 430.349 301.484 430.181 301.39C430.053 301.321 429.932 301.239 429.82 301.147C429.702 301.048 429.602 300.929 429.525 300.795C429.48 300.71 429.44 300.622 429.405 300.532C429.399 300.488 429.399 300.444 429.405 300.4C429.363 299.983 429.386 299.561 429.475 299.15C429.531 298.854 429.586 298.536 429.664 298.262C430.84 293.714 432.322 289.419 433.826 285.113C436.835 276.447 440.106 267.89 443.553 259.39C440.884 268.156 438.15 276.922 435.426 285.688C434.119 290.072 432.68 294.454 431.669 298.839C431.603 299.113 431.569 299.365 431.514 299.628C431.458 299.891 431.512 300.198 431.457 300.088C431.403 299.978 431.457 300.088 431.457 300.088C431.445 300.03 431.423 299.974 431.392 299.924C431.392 299.814 431.195 299.704 431.239 299.726C431.283 299.748 431.184 299.725 431.239 299.726L431.513 299.836L432.236 300.069C433.332 300.357 434.428 300.569 435.524 300.791C437.717 301.203 440.008 301.561 442.255 301.908C446.772 302.601 451.296 303.254 455.827 303.867L469.433 305.738C478.5 306.971 487.566 308.292 496.632 309.645L496.797 309.646L496.731 309.788L495.54 311.891Z" fill="#263238"/>
<path d="M444.512 265.008C443.864 266.553 443.047 268.022 442.076 269.388C441.163 270.785 440.051 272.042 438.775 273.118C439.612 271.662 440.505 270.282 441.452 268.914C442.372 267.536 443.395 266.23 444.512 265.008Z" fill="#263238"/>
<path d="M471.146 244.83C463.397 247.001 449.479 235.631 443.782 226.171C443.389 225.523 445.024 198.854 444.798 193.534C444.802 192.437 478.494 200.213 478.494 200.213C478.494 200.213 475.686 211.502 476.141 220.771C476.172 221.56 478.621 242.724 471.146 244.83Z" fill="#AD6359"/>
<path d="M444.234 210.236C459.984 221.425 475.373 217.193 476.02 216.998C476.296 211.345 477.095 205.73 478.406 200.224C478.406 200.224 444.648 192.448 444.699 193.545C444.89 196.035 444.594 203.229 444.234 210.236Z" fill="#263238"/>
<path d="M478.392 178.246C479.235 186.123 485.525 191.91 492.426 191.163C499.327 190.415 504.25 183.443 503.439 175.577C502.629 167.711 496.317 161.912 489.405 162.66C482.494 163.407 477.549 170.379 478.392 178.246Z" fill="#455A64"/>
<path d="M474.397 179.177C475.337 187.954 482.326 194.369 490.006 193.546C497.686 192.724 503.192 184.964 502.22 176.198C501.248 167.432 494.302 161.007 486.611 161.829C478.92 162.651 473.458 170.422 474.397 179.177Z" fill="#C7C7C7"/>
<path d="M440.243 153.447C436.524 165.259 442.467 199.517 450.812 207.219C462.921 218.387 482.901 219.619 492.419 205.038C501.652 190.895 493.117 146.396 483.771 139.382C470.015 129.032 445.734 136.013 440.243 153.447Z" fill="#AD6359"/>
<path d="M468.63 175.025C468.63 174.949 468.476 175.168 468.497 175.266C468.995 177.549 469.196 180.259 467.262 181.416C467.196 181.415 467.262 181.569 467.262 181.536C469.776 180.699 469.479 177.112 468.63 175.025Z" fill="#263238"/>
<path d="M466.124 173.011C462.372 173.428 463.48 180.911 466.957 180.526C470.435 180.142 469.273 172.669 466.124 173.011Z" fill="#263238"/>
<path d="M481.949 173.266C481.949 173.178 482.146 173.354 482.157 173.453C482.424 175.779 483.13 178.391 485.333 178.858C485.398 178.858 485.42 178.99 485.332 178.99C482.711 179.004 481.833 175.514 481.949 173.266Z" fill="#263238"/>
<path d="M483.657 170.518C487.345 169.684 488.738 177.113 485.325 177.893C481.911 178.673 480.54 171.243 483.657 170.518Z" fill="#263238"/>
<path d="M462.667 170.028C463.609 169.597 464.526 169.113 465.413 168.578C466.451 168.202 467.335 167.496 467.931 166.567C468.06 166.238 468.077 165.876 467.979 165.536C467.881 165.197 467.673 164.899 467.388 164.69C466.765 164.361 466.065 164.204 465.361 164.237C464.657 164.27 463.974 164.49 463.384 164.876C462.061 165.468 461.006 166.532 460.425 167.861C460.309 168.171 460.286 168.509 460.359 168.832C460.432 169.155 460.598 169.45 460.836 169.68C461.074 169.91 461.374 170.066 461.699 170.128C462.025 170.19 462.361 170.155 462.667 170.028Z" fill="#263238"/>
<path d="M486.039 166.346C485.003 166.292 483.971 166.183 482.947 166.019C481.846 166.057 480.763 165.73 479.867 165.089C479.622 164.832 479.468 164.5 479.432 164.147C479.395 163.793 479.477 163.438 479.665 163.136C480.126 162.601 480.72 162.197 481.387 161.966C482.054 161.735 482.77 161.685 483.463 161.82C484.911 161.884 486.282 162.487 487.308 163.509C487.528 163.754 487.673 164.057 487.724 164.382C487.775 164.707 487.73 165.04 487.596 165.34C487.462 165.641 487.243 165.896 486.966 166.074C486.69 166.253 486.368 166.347 486.039 166.346Z" fill="#263238"/>
<path d="M469.838 196.733C470.473 197.196 471.14 197.834 472.029 197.836C472.888 197.694 473.708 197.371 474.433 196.889C474.447 196.873 474.466 196.863 474.486 196.861C474.507 196.859 474.527 196.865 474.543 196.879C474.559 196.892 474.569 196.911 474.571 196.931C474.573 196.952 474.567 196.972 474.554 196.988C474.292 197.495 473.897 197.921 473.411 198.219C472.925 198.517 472.366 198.677 471.796 198.68C471.306 198.629 470.843 198.433 470.465 198.118C470.087 197.802 469.811 197.381 469.673 196.908C469.575 196.798 469.74 196.667 469.838 196.733Z" fill="#263238"/>
<path d="M471.241 189.445C471.965 190.273 472.853 190.943 473.848 191.412C474.843 191.881 475.925 192.139 477.024 192.171C477.988 192.212 478.952 192.115 479.888 191.883C480.068 191.851 480.245 191.8 480.415 191.731C480.582 191.689 480.747 191.638 480.909 191.579C481.029 191.539 481.133 191.46 481.204 191.356C481.276 191.251 481.311 191.126 481.305 190.999C481.299 190.92 481.281 190.842 481.251 190.768L481.252 190.571C481.027 188.783 480.453 186.094 480.453 186.094C481.154 186.326 484.705 187.324 484.51 186.402C482.909 178.72 481.125 170.247 477.91 162.988C477.889 162.941 477.85 162.902 477.803 162.88C477.755 162.858 477.701 162.854 477.65 162.868C477.6 162.883 477.556 162.915 477.527 162.959C477.499 163.003 477.486 163.056 477.493 163.108C478.744 170.515 481.289 177.651 482.672 185.058C481.408 184.684 480.098 184.492 478.78 184.488C478.538 184.597 479.982 189.657 480.013 190.469C480.019 190.497 480.019 190.528 480.012 190.556C477.071 191.381 474.681 190.815 471.472 189.237C471.231 189.127 471.077 189.28 471.241 189.445Z" fill="#263238"/>
<path d="M478.695 191.133C477.911 192.55 476.774 193.74 475.394 194.589C474.625 195.024 473.74 195.213 472.859 195.13C470.941 194.916 470.671 193.226 470.763 191.724C470.839 190.925 471.007 190.138 471.264 189.378C473.491 190.739 476.094 191.353 478.695 191.133Z" fill="#263238"/>
<path d="M475.383 194.622C474.613 195.057 473.728 195.246 472.848 195.163C470.929 194.949 470.66 193.259 470.752 191.757C472.804 191.631 474.928 192.69 475.383 194.622Z" fill="#FF99BA"/>
<path opacity="0.2" d="M445.823 165.626C444.464 169.022 441.666 176.998 440.085 177.553C438.615 166.449 438.59 156.381 441.361 150.203C442.506 147.652 444.112 145.333 446.097 143.362C446.318 146.335 447.27 162.077 445.823 165.626Z" fill="#263238"/>
<path d="M475.537 149.842C474.593 151.467 473.248 152.822 471.63 153.778C470.012 154.733 468.176 155.257 466.297 155.299C464.385 155.343 462.493 154.899 460.801 154.007C459.108 153.115 457.672 151.806 456.627 150.204C456.622 150.194 456.614 150.185 456.605 150.178C456.596 150.17 456.585 150.165 456.574 150.162C456.563 150.159 456.551 150.158 456.54 150.16C456.528 150.161 456.517 150.165 456.507 150.17C456.497 150.176 456.488 150.184 456.481 150.193C456.474 150.202 456.468 150.213 456.465 150.224C456.462 150.235 456.461 150.247 456.463 150.258C456.464 150.27 456.468 150.281 456.474 150.291C457.422 152.079 458.842 153.573 460.579 154.613C462.315 155.652 464.303 156.197 466.327 156.188C468.31 156.082 470.23 155.456 471.895 154.373C473.559 153.29 474.91 151.788 475.81 150.019C475.834 149.982 475.842 149.938 475.833 149.896C475.824 149.854 475.798 149.817 475.762 149.794C475.725 149.77 475.681 149.762 475.639 149.771C475.597 149.78 475.56 149.806 475.537 149.842Z" fill="#263238"/>
<path d="M498.466 132.263C496.895 129.344 494.341 127.076 491.257 125.859C486.985 124.157 482.693 125.275 478.445 126.479C478.422 126.479 478.399 126.489 478.383 126.505C478.366 126.521 478.357 126.544 478.357 126.567C478.357 126.59 478.366 126.613 478.383 126.629C478.399 126.646 478.421 126.655 478.445 126.655C482.056 125.646 485.787 124.834 489.469 125.963C492.517 126.885 495.153 128.829 496.933 131.469C498.669 134.202 499.363 137.469 498.888 140.671C498.414 143.874 496.802 146.799 494.348 148.911C492.902 150.091 491.23 150.962 489.435 151.472C487.64 151.981 485.76 152.118 483.909 151.875C483.767 151.874 483.701 152.072 483.854 152.094C486.372 152.529 488.962 152.253 491.332 151.297C493.702 150.341 495.758 148.744 497.27 146.684C498.782 144.624 499.69 142.183 499.892 139.636C500.093 137.088 499.581 134.535 498.411 132.263L498.466 132.263Z" fill="#263238"/>
<path d="M439.226 160.277C439.226 160.277 431.326 150.065 435.186 142.717C437.392 138.544 446.838 137.42 446.838 137.42C446.838 137.42 449.046 132.59 456.524 129.475C464.002 126.36 474.076 128.232 474.076 128.232C474.076 128.232 480.794 122.681 488.463 125.467C499.156 129.359 500.472 144.399 491.503 150.844C485.195 155.377 474.81 150.894 474.81 150.894C473.932 151.166 465.686 158.292 457.327 151.281C457.327 151.281 452.538 157.278 446.854 154.629C446.311 156.236 445.289 157.639 443.925 158.648C442.561 159.658 440.922 160.226 439.226 160.277Z" fill="#263238"/>
<path d="M447.302 181.379C447.302 181.379 439.448 170.388 434.461 173.214C429.473 176.04 435.502 191.994 441.375 194.073C442.112 194.4 442.908 194.575 443.714 194.586C444.521 194.598 445.321 194.447 446.068 194.142C446.814 193.837 447.492 193.384 448.059 192.811C448.626 192.238 449.072 191.556 449.369 190.806L447.302 181.379Z" fill="#AD6359"/>
<path d="M436.29 177.76C436.191 177.76 436.18 177.88 436.289 177.914C440.441 179.549 442.657 183.35 444.224 187.303C442.979 185.786 441.303 184.969 439.27 186.455C439.16 186.532 439.269 186.696 439.379 186.675C440.102 186.447 440.878 186.446 441.601 186.674C442.324 186.902 442.96 187.347 443.422 187.948C444.199 188.971 444.862 190.076 445.397 191.244C445.594 191.607 446.252 191.4 446.111 190.983L446.111 190.884C446.127 185.554 441.948 178.226 436.29 177.76Z" fill="#263238"/>
<path d="M440.755 173.684C440.755 173.684 436.538 156.671 439.892 146.262C443.621 134.691 457.594 123.391 474.054 128.254C474.054 128.254 455.764 130.559 446.835 145.811C442.735 152.818 446.591 173.097 446.591 173.097L440.755 173.684Z" fill="#C7C7C7"/>
<path d="M458.44 179.459C460.081 188.238 455.198 196.493 447.517 197.941C439.835 199.388 432.263 193.509 430.61 184.73C428.958 175.951 433.852 167.696 441.533 166.248C449.215 164.801 456.787 170.702 458.44 179.459Z" fill="#C7C7C7"/>
<path d="M454.293 179.733C455.773 187.601 451.375 195.079 444.473 196.342C437.57 197.605 430.764 192.299 429.284 184.441C427.805 176.584 432.192 169.095 439.094 167.832C445.997 166.569 452.803 171.853 454.293 179.733Z" fill="#455A64"/>
<path d="M18.5566 371.626L153.082 372.02L126.713 215.909L26.12 215.615L18.5566 371.626Z" fill="#DBDBDB"/>
<path d="M18.5566 371.626L30.3465 371.661L37.4274 215.648L26.12 215.615L18.5566 371.626Z" fill="#A6A6A6"/>
<path d="M98.9446 147.775C86.4164 160.165 82.7702 180.63 82.7702 180.63C82.7702 180.63 70.7335 201.203 74.0458 212.41C74.9213 215.588 76.5545 218.505 78.8053 220.913C81.0562 223.321 83.8574 225.147 86.9689 226.234L85.8025 220.045C85.8025 220.045 89.7933 228.008 103.197 231.25C116.601 234.491 134.358 230.42 143.606 225.775C149.087 223.051 153.77 218.953 157.197 213.882L153.716 222.865C153.716 222.865 166.735 222.442 174.508 208.613C182.28 194.784 160.13 174.813 158.256 170.52C156.382 166.226 154.083 134.973 121.198 140.262C121.242 140.185 107.612 139.246 98.9446 147.775Z" fill="#263238"/>
<path d="M82.2671 225.333C78.8527 222.767 75.4832 219.829 73.6074 216.204C71.5614 212.447 70.8437 208.109 71.5705 203.893C72.4956 198.839 75.1738 194.383 77.7749 190.037C80.376 185.69 83.5037 181.279 86.1164 176.713C86.2598 176.462 85.8765 176.252 85.7005 176.449C82.7699 179.87 80.0351 183.454 77.5091 187.184C74.926 190.594 72.7508 194.294 71.0278 198.21C69.4175 201.815 68.8804 205.808 69.4806 209.71C70.1183 212.883 71.5173 215.853 73.5572 218.365C75.9722 221.388 79.0265 223.327 82.0908 225.607C82.2659 225.75 82.4531 225.476 82.2671 225.333Z" fill="#263238"/>
<path d="M177.368 194.299C173.454 182.783 163.166 175.448 156.867 165.394C153.483 159.955 150.857 153.938 146.44 149.208C146.32 149.077 146.1 149.284 146.209 149.416C149.838 153.671 151.929 158.788 154.547 163.699C157.337 168.531 160.601 173.074 164.29 177.261C170.782 185.089 178.553 194.358 177.029 205.288C176.324 210.331 173.324 215.916 168.143 217.469C167.945 217.534 168.065 217.864 168.262 217.777C170.306 216.963 172.163 215.741 173.72 214.186C175.276 212.632 176.5 210.776 177.315 208.733C179.073 204.086 179.092 198.959 177.368 194.299Z" fill="#263238"/>
<path d="M177.831 197.393C178.2 193.037 177.208 188.673 174.994 184.904C172.734 181.19 169.178 178.503 165.62 176.102C161.515 173.359 157.191 170.747 154.593 166.407C154.484 166.22 154.22 166.406 154.318 166.593C158.443 173.756 166.352 177.113 171.632 183.15C177.699 190.044 177.68 200.058 173.468 207.909C170.791 212.695 167.021 216.78 162.465 219.832C162.388 219.832 162.465 219.996 162.553 219.942C170.321 214.876 177.177 207.065 177.831 197.393Z" fill="#263238"/>
<path d="M127.973 249.66C161.206 268.029 200.983 291.078 225.412 285.754C236.244 283.394 285.038 219.816 287.121 212.452C288.905 206.129 244.968 180.523 240.04 185.499C231.724 193.843 209.169 240.893 205.876 241.673C202.584 242.453 174.656 236.701 145.586 231.363C117.612 226.258 104.902 236.914 127.973 249.66Z" fill="#EB9481"/>
<path d="M282.371 220.381C286.18 215.61 301.735 192.207 304.597 184.724C307.46 177.242 314.171 155.14 308.673 152.338C303.176 149.536 300.723 155.835 300.723 155.835C300.723 155.835 302.078 146.045 296.283 143.758C290.488 141.47 286.949 151.408 286.949 151.408C286.949 151.408 287.604 141.254 281.654 139.328C275.704 137.402 273.831 148.079 273.831 148.079C273.831 148.079 274.867 138.825 269.316 139.292C262.646 139.919 262.683 157.204 258.886 165.222C258.026 167.04 238.81 200.896 238.81 200.896L282.371 220.381Z" fill="#EB9481"/>
<path d="M273.964 147.213C273.927 159.924 271.717 165.489 265.105 176.065C264.973 176.262 265.247 176.504 265.412 176.307C272.898 166.545 276.668 159.976 274.622 147.182C274.481 146.556 273.966 146.609 273.964 147.213Z" fill="#263238"/>
<path d="M286.885 150.409C285.75 163.567 283.385 169.658 277.198 181.255C277.11 181.419 277.383 181.584 277.483 181.42C284.501 170.561 288.118 163.903 287.542 150.575C287.577 149.972 286.941 149.806 286.885 150.409Z" fill="#263238"/>
<path d="M300.346 156.415C298.302 169.109 296.023 175.859 288.578 186.344C288.559 186.368 288.544 186.395 288.535 186.424C288.526 186.454 288.523 186.484 288.526 186.515C288.529 186.546 288.538 186.575 288.552 186.602C288.567 186.629 288.586 186.653 288.61 186.673C288.634 186.693 288.661 186.707 288.69 186.716C288.72 186.725 288.751 186.728 288.781 186.725C288.812 186.722 288.841 186.713 288.869 186.699C288.896 186.684 288.92 186.665 288.939 186.641C297.578 176.686 300.487 168.293 300.73 156.514C300.721 155.725 300.48 155.614 300.346 156.415Z" fill="#263238"/>
<path d="M229.378 204.706C229.378 204.706 228.492 188.811 229.653 181.741C230.814 174.67 244.805 149.902 250.281 152.616C257.41 156.135 252.143 172.023 248.546 179.471C248.546 179.471 265.04 187.569 263.732 199.794C262.424 212.02 229.378 204.706 229.378 204.706Z" fill="#EB9481"/>
<path d="M251.964 154.222C256.153 162.12 250.817 171.592 247.856 179.074C247.807 179.182 247.786 179.3 247.793 179.418C247.8 179.536 247.836 179.651 247.897 179.753C247.958 179.854 248.043 179.939 248.144 180.001C248.245 180.062 248.36 180.099 248.478 180.107C255.168 183.965 263.481 191.359 264.171 199.478C264.17 199.527 264.19 199.575 264.225 199.61C264.26 199.645 264.307 199.664 264.356 199.665C264.406 199.665 264.453 199.645 264.488 199.61C264.524 199.575 264.543 199.528 264.543 199.479C264.986 190.706 257.409 182.743 249.819 178.981C252.956 171.313 257.909 161.621 252.085 154.179C252.008 154.145 251.943 154.178 251.964 154.222Z" fill="#263238"/>
<path d="M197.966 239.05L157.804 272.515C157.804 272.515 133.384 259.721 115.363 245.049C97.3427 230.377 117.368 223.328 148.368 228.629C179.369 233.929 197.966 239.05 197.966 239.05Z" fill="#6DDAD3"/>
<path d="M150.491 245.657C149.36 244.104 148.05 242.69 146.588 241.445C148.2 244.936 150.535 248.046 153.438 250.568C152.657 248.818 151.667 247.169 150.491 245.657ZM115.396 245.071L115.877 245.446C116.196 245.107 116.516 244.746 116.813 244.352C116.308 244.58 115.835 244.82 115.374 245.115L115.396 245.071ZM182.462 245.487C180.568 245.203 178.647 245.139 176.738 245.295C178.526 245.975 180.387 246.448 182.283 246.704C184.177 246.997 186.098 247.065 188.008 246.907C186.213 246.22 184.345 245.743 182.44 245.487L182.462 245.487ZM169.087 232.462C169.06 233.194 169.083 233.927 169.157 234.656C169.427 233.998 169.656 233.325 169.843 232.64L169.087 232.462Z" fill="white"/>
<path d="M148.853 265.317C157.025 257.51 165.754 250.264 174.604 243.205C177.11 241.216 179.661 239.271 182.298 237.403C182.375 237.349 182.474 237.404 182.397 237.502C178.24 241.318 173.919 244.957 169.62 248.619C165.321 252.281 160.967 255.942 156.558 259.494C154.063 261.504 151.578 263.515 149.05 265.471C148.896 265.547 148.754 265.415 148.853 265.317Z" fill="#263238"/>
<path d="M174.868 258.297L157.794 272.505C157.794 272.505 133.373 259.722 115.352 245.049C108.952 239.843 107.352 235.605 109.324 232.529L174.868 258.297Z" fill="#263238"/>
<path d="M166.287 371.927L38.6162 371.554C38.6162 371.554 66.6662 264.517 92.429 234.432C93.0013 233.742 93.5955 233.086 94.1895 232.474C94.3106 232.331 94.4206 232.233 94.5415 232.113C96.5353 229.995 98.8546 228.21 101.412 226.824C101.862 226.584 102.312 226.355 102.785 226.159C112.669 221.637 123.12 225.44 130.636 231.911C133.021 233.958 159.985 269.286 162.293 282.684C164.331 294.546 156.288 307.256 156.288 307.256L166.287 371.927Z" fill="#6DDAD3"/>
<path d="M137.174 302.615C131.737 303.129 126.345 304.048 121.044 305.364C118.409 306.059 115.841 306.863 113.261 307.722C111.976 308.157 110.692 308.548 109.397 308.928C108.048 309.362 106.651 309.631 105.238 309.727C105.211 309.727 105.186 309.737 105.168 309.756C105.149 309.774 105.139 309.799 105.139 309.826C105.138 309.852 105.149 309.877 105.167 309.895C105.186 309.914 105.211 309.924 105.237 309.925C106.576 309.985 107.917 309.952 109.251 309.827C110.536 309.67 111.808 309.424 113.059 309.092C115.737 308.409 118.372 307.616 121.039 306.922C126.418 305.512 131.785 304.102 137.25 303.076C137.311 303.066 137.365 303.032 137.402 302.982C137.438 302.931 137.452 302.869 137.442 302.808C137.432 302.746 137.399 302.692 137.348 302.656C137.298 302.62 137.235 302.605 137.174 302.615Z" fill="#263238"/>
<path d="M150.65 307.359C146.165 306.915 141.658 306.722 137.15 306.782C134.957 306.831 132.664 306.999 130.415 307.223C129.318 307.341 128.221 307.469 127.211 307.609C126.202 307.748 124.885 308.073 123.711 308.213C123.59 308.212 123.59 308.421 123.71 308.41C124.807 308.315 125.959 308.417 127.078 308.365L130.445 308.254C132.639 308.195 134.931 308.147 137.18 308.055C141.677 307.881 146.163 307.752 150.66 307.721C150.901 307.733 150.88 307.382 150.65 307.359Z" fill="#263238"/>
<path d="M80.2252 259.577C79.6242 258.807 79.0123 258.049 78.3452 257.378L77.8707 258.364C78.3074 259.045 78.7771 259.715 79.2577 260.364C80.3894 261.906 81.6996 263.308 83.1609 264.543C82.3655 262.786 81.3811 261.121 80.2252 259.577ZM95.1243 231.522C94.8959 233.234 94.8541 234.966 94.9995 236.687C95.6861 234.891 96.152 233.018 96.3868 231.109C96.3876 230.824 96.4653 230.528 96.499 230.243C96.0372 230.647 95.5753 231.073 95.1243 231.522ZM133.768 267.323C133.079 269.117 132.603 270.986 132.347 272.89C132.066 274.788 131.997 276.712 132.144 278.626C132.838 276.835 133.308 274.965 133.542 273.058C133.849 271.163 133.925 269.237 133.768 267.323ZM109.184 329.02C108.503 330.807 108.034 332.668 107.786 334.565C107.503 336.463 107.438 338.388 107.594 340.301C108.908 336.693 109.45 332.85 109.184 329.02ZM67.8423 282.265C67.1674 284.066 66.6983 285.937 66.4441 287.843C66.1594 289.738 66.0949 291.659 66.2519 293.568C66.9283 291.772 67.3939 289.904 67.6391 288.001C67.9321 286.103 68.0003 284.178 67.8423 282.265ZM102.193 274.535C100.299 274.251 98.3778 274.187 96.4686 274.343C98.257 275.023 100.118 275.496 102.014 275.752C103.908 276.045 105.829 276.113 107.738 275.955C105.956 275.255 104.099 274.764 102.204 274.491L102.193 274.535ZM147.97 327.313C146.072 327.029 144.148 326.964 142.235 327.12C145.842 328.435 149.686 328.976 153.516 328.711C151.731 328.028 149.874 327.552 147.981 327.291L147.97 327.313ZM62.2423 322.006C60.3804 321.73 58.4941 321.659 56.6166 321.792L56.507 321.792L56.6057 321.792C58.3754 322.451 60.2135 322.908 62.0854 323.157C63.9798 323.441 65.9007 323.505 67.8099 323.349C66.0122 322.688 64.1439 322.237 62.2423 322.006ZM110.278 367.431C108.384 367.147 106.463 367.083 104.554 367.239C108.165 368.555 112.013 369.093 115.846 368.818C114.034 368.143 112.152 367.678 110.235 367.431L110.278 367.431ZM58.4849 361.73C56.5868 361.446 54.6623 361.381 52.7495 361.538C54.5389 362.21 56.3996 362.676 58.2949 362.925C60.1915 363.225 62.1179 363.29 64.0303 363.117C62.2268 362.441 60.3513 361.976 58.441 361.73L58.4849 361.73ZM111.88 247.298C110.332 248.443 108.919 249.759 107.668 251.223C109.421 250.432 111.079 249.447 112.612 248.287C114.158 247.147 115.561 245.826 116.791 244.351C115.051 245.15 113.404 246.138 111.88 247.298ZM125.374 306.046C123.829 307.175 122.426 308.486 121.195 309.95C122.942 309.163 124.59 308.174 126.106 307.003C127.653 305.877 129.056 304.566 130.285 303.1C128.539 303.897 126.891 304.893 125.374 306.068L125.374 306.046ZM77.3524 341.791C75.799 342.918 74.3915 344.232 73.1624 345.706C74.9028 344.907 76.5498 343.919 78.0734 342.759C79.6185 341.619 81.0313 340.31 82.2854 338.856C80.5224 339.629 78.8648 340.622 77.3523 341.813L77.3524 341.791ZM157.083 290.401C155.952 288.848 154.642 287.434 153.18 286.189C154.792 289.68 157.126 292.79 160.029 295.312C159.247 293.57 158.257 291.929 157.083 290.423L157.083 290.401ZM140.558 356.782C139.418 355.237 138.109 353.824 136.655 352.571C137.418 354.334 138.405 355.991 139.591 357.503C140.719 359.051 142.03 360.458 143.494 361.693C142.699 359.953 141.714 358.306 140.558 356.782ZM92.6298 304.393C91.4961 302.843 90.1863 301.43 88.7268 300.181C89.4993 301.942 90.4892 303.599 91.6736 305.114C92.7989 306.665 94.1096 308.072 95.5767 309.304C94.7831 307.561 93.7945 305.914 92.6298 304.393Z" fill="white"/>
<path d="M89.8165 235.257C65.2027 254.982 2.08623 333.247 16.214 351.418C30.3417 369.588 124.619 361.606 152.008 353.109C160.153 350.589 138.106 298.878 129.318 296.473C121.997 294.466 81.339 306.356 80.5562 304.007C79.6756 301.35 90.6421 286.697 104.62 254.921C120.74 218.271 100.689 226.548 89.8165 235.257Z" fill="#EB9481"/>
<path d="M173.692 292.292C192.451 294.54 196.927 297.964 213.759 291.433C224.805 287.155 232.281 292.365 224.182 301.652C210.976 316.848 186.139 319.089 177.315 317.353L173.692 292.292Z" fill="#EB9481"/>
<path d="M121.046 297.106C121.046 297.106 144.347 291.153 164.57 291.541C178.563 291.812 208.932 295.795 229.444 332.168C234.31 340.791 235.13 356.543 222.057 345.307C212.78 337.35 209.305 329.499 203.064 325.85C203.064 325.85 201.722 345.993 192.89 350.541C185.166 354.506 177.17 357.917 168.963 360.747C168.098 359.364 167.325 357.926 166.65 356.441C166.65 356.441 157.998 359.904 144.719 355.028L121.046 297.106Z" fill="#EB9481"/>
<path d="M177.888 293.938C183.358 298.867 194.645 309.495 200.84 321.424C207.777 334.671 217.567 362.053 207.737 367.081C200.531 370.767 195.866 360.63 195.866 360.63C195.866 360.63 197.531 372.809 190.341 374.707C183.756 376.443 180.61 368.383 180.61 368.383C180.61 368.383 180.346 375.939 173.677 376.391C165.647 376.916 167.514 361.019 158.912 354.512C156.975 353.047 177.888 293.938 177.888 293.938Z" fill="#EB9481"/>
<path d="M185.667 326.479C190.038 331.976 196.696 346.911 196.086 360.432C196.085 360.74 195.832 360.892 195.789 360.607C193.766 348.891 190.326 337.464 185.546 326.577C185.533 326.561 185.527 326.541 185.529 326.52C185.531 326.5 185.541 326.481 185.557 326.468C185.573 326.455 185.594 326.448 185.615 326.451C185.635 326.453 185.654 326.463 185.667 326.479Z" fill="#263238"/>
<path d="M172.496 333.811C175.771 338.92 181.965 354.677 180.873 368.329C180.872 368.636 180.597 368.766 180.565 368.481C179.15 356.669 176.399 345.056 172.364 333.865C172.364 333.85 172.368 333.835 172.376 333.822C172.385 333.809 172.397 333.799 172.411 333.793C172.425 333.787 172.441 333.786 172.456 333.789C172.471 333.792 172.485 333.8 172.496 333.811Z" fill="#263238"/>
<path d="M203.096 325.762C208.57 329.069 211.619 332.949 215.685 337.71C217.672 340.094 219.789 342.367 222.026 344.518C224.083 346.443 227.112 349.336 230.209 347.974C231.933 347.212 232.411 345.151 232.559 343.441C232.699 341.518 232.424 339.587 231.753 337.779C231.753 337.691 231.885 337.626 231.917 337.725C232.586 339.319 233.024 341.001 233.219 342.719C233.475 344.334 233.236 345.988 232.536 347.466C230.816 350.488 226.869 349.906 224.395 348.308C222.932 347.289 221.573 346.127 220.336 344.842C219.123 343.643 217.964 342.389 216.838 341.113C214.531 338.474 212.379 335.715 210.105 333.065C207.877 330.538 205.488 328.157 202.953 325.937C202.855 325.849 202.987 325.696 203.096 325.762Z" fill="#263238"/>
<path d="M210.002 349.758C209.366 345.994 204.763 329.814 202.932 325.871C202.92 325.851 202.917 325.827 202.923 325.804C202.93 325.782 202.945 325.763 202.965 325.751C202.985 325.739 203.01 325.736 203.032 325.743C203.055 325.749 203.074 325.764 203.086 325.784C206.546 331.355 210.894 344.869 211.649 349.028C212.405 353.187 213.124 358.333 212.049 362.421C210.429 368.58 206.042 368.677 204.452 368.584C202.574 368.441 200.8 367.662 199.424 366.376C197.858 364.732 196.64 362.789 195.844 360.662C195.844 360.563 195.943 360.476 195.997 360.575C197.502 363.563 200.421 366.894 203.885 367.332C204.652 367.453 205.436 367.42 206.19 367.234C206.944 367.048 207.653 366.712 208.276 366.248C209.581 365.006 210.392 363.333 210.56 361.539C211.049 357.609 210.861 353.624 210.002 349.758Z" fill="#263238"/>
<path d="M180.873 368.328C181.539 369.284 182.638 372.303 185.299 373.583C186.224 374.114 187.265 374.412 188.331 374.452C189.397 374.491 190.457 374.271 191.419 373.81C193.254 372.678 194.577 370.876 195.107 368.786C195.558 366.112 195.805 363.406 195.844 360.694C195.844 360.563 196.009 360.552 196.019 360.695C196.352 363.638 196.24 366.614 195.687 369.523C195.426 370.663 194.939 371.739 194.257 372.688C193.574 373.637 192.708 374.44 191.711 375.05C190.655 375.623 189.461 375.892 188.261 375.829C187.061 375.765 185.902 375.371 184.912 374.69C183.916 373.996 181.03 370.862 180.543 368.404C180.555 368.327 180.84 368.284 180.873 368.328Z" fill="#263238"/>
<path d="M159.76 353.548C160.55 354.429 161.235 355.399 161.802 356.438C162.446 357.537 163.057 358.58 163.635 359.679C164.784 361.899 165.7 364.232 166.368 366.64C167.063 369.055 167.603 371.689 169.254 373.679C170.026 374.663 171.088 375.378 172.29 375.725C173.492 376.071 174.772 376.029 175.949 375.607C177.195 375.116 178.233 374.208 178.885 373.038C179.641 371.777 180.147 370.382 180.378 368.93C180.373 368.917 180.371 368.902 180.373 368.888C180.375 368.874 180.38 368.861 180.388 368.849C180.396 368.838 180.407 368.828 180.42 368.822C180.432 368.815 180.446 368.812 180.46 368.812C180.474 368.812 180.488 368.815 180.501 368.822C180.513 368.828 180.524 368.838 180.532 368.85C180.54 368.861 180.545 368.875 180.547 368.889C180.549 368.903 180.547 368.917 180.542 368.93C180.445 370.248 180.213 371.551 179.851 372.822C179.433 373.963 178.723 374.974 177.791 375.755C176.815 376.496 175.654 376.954 174.434 377.078C173.215 377.202 171.985 376.988 170.88 376.459C168.426 375.355 167.051 372.872 166.203 370.413C165.257 367.679 164.629 364.859 163.551 362.157C162.996 360.73 162.463 359.303 161.787 357.93C161.111 356.557 160.172 355.128 159.606 353.657C159.54 353.569 159.672 353.449 159.76 353.548Z" fill="#263238"/>
<path d="M151.184 356.922C154.65 357.434 158.157 357.617 161.657 357.468C161.766 357.469 161.831 357.787 161.722 357.809C159.986 358.129 158.22 358.26 156.456 358.199C154.667 358.119 152.901 357.77 151.216 357.164C151.074 357.086 151.075 356.9 151.184 356.922Z" fill="#263238"/>
<path d="M43.6163 315.644C49.4875 312.832 55.5533 310.445 61.7668 308.503C67.9153 306.6 74.1953 305.152 80.5562 304.171C84.1882 303.578 87.8307 303.161 91.5281 302.722C91.6378 302.722 91.6593 302.876 91.5276 302.887C85.1362 303.902 78.8081 305.282 72.5743 307.021C66.369 308.692 60.2 310.476 54.0671 312.374C50.5981 313.46 47.1727 314.679 43.7363 315.864C43.6154 315.952 43.5064 315.721 43.6163 315.644Z" fill="#263238"/>
<path d="M38.3717 282.74L90.3306 288.54C90.3306 288.54 103.661 264.45 110.625 242.239C117.588 220.028 97.9876 224.292 75.0352 245.776C52.0827 267.26 38.3717 282.74 38.3717 282.74Z" fill="#6DDAD3"/>
<path d="M38.3717 282.74L90.3306 288.54C90.3306 288.54 103.661 264.45 110.625 242.239C117.588 220.028 97.9876 224.292 75.0352 245.776C52.0827 267.26 38.3717 282.74 38.3717 282.74Z" fill="#6DDAD3"/>
<path d="M95.2153 230.798C95.2205 230.853 95.2204 230.908 95.2149 230.963C94.931 232.861 94.8665 234.785 95.0226 236.698C95.7092 234.902 96.1751 233.029 96.4099 231.12C96.4108 230.791 96.4995 230.473 96.5334 230.144L95.2153 230.798ZM67.8429 282.266C67.3634 283.461 66.9927 284.697 66.7353 285.959L67.8318 286.072C67.956 284.807 67.9598 283.532 67.8429 282.266ZM49.8464 270.511L49.3404 271.036C49.9107 271.038 50.4371 271.039 51.0626 270.942C50.6463 270.777 50.2519 270.633 49.8464 270.511ZM96.4809 274.3C96.7877 274.421 97.1054 274.543 97.4231 274.643C97.4803 274.5 97.5467 274.361 97.6218 274.226C97.2489 274.236 96.8649 274.257 96.4809 274.3ZM80.226 259.578C79.0863 258.032 77.7771 256.619 76.3229 255.365C77.089 257.131 78.0754 258.792 79.2587 260.31C80.3904 261.852 81.7006 263.254 83.162 264.489C82.363 262.751 81.3786 261.104 80.226 259.578Z" fill="white"/>
<path d="M88.2246 288.05C88.5098 288.051 90.4181 288.057 90.4181 288.057C90.6504 287.388 95.1553 277.103 96.2585 274.912C98.531 270.411 101.066 266.032 103.536 261.641C103.613 261.499 103.832 261.642 103.755 261.74C102.011 265.574 100.333 269.408 98.5556 273.263C98.9958 272.749 99.436 272.235 99.8653 271.709C100.735 270.615 101.528 269.521 102.354 268.361C102.431 268.262 102.584 268.361 102.529 268.482C101.739 270.066 100.743 271.538 99.5658 272.86C99.066 273.441 98.5256 273.985 97.9488 274.49C97.8052 274.807 97.6617 275.136 97.5073 275.443C96.4041 277.633 90.9647 288.672 90.7673 288.661L88.2676 288.346C88.081 288.39 88.0821 288.039 88.2246 288.05Z" fill="#263238"/>
<path d="M48.1911 273.938C59.4636 274.728 70.7008 276.307 81.8717 278.095C85.0435 278.608 88.1932 279.192 91.3207 279.844C91.4085 279.844 91.408 279.998 91.3203 279.987C85.7063 279.477 80.104 278.737 74.5016 278.029C68.8992 277.322 63.253 276.559 57.6512 275.655C54.4939 275.163 51.3257 274.671 48.1796 274.124C48.048 274.135 48.0486 273.927 48.1911 273.938Z" fill="#263238"/>
<path d="M108.066 227.656C108.257 229.938 116.699 245.822 126.863 246.828C130.153 247.145 132.739 229.154 132.739 229.154L133.225 227.873L140.111 209.884L120.309 192.661L117.432 190.35C117.432 190.35 115.871 195.39 113.999 201.691C113.91 201.987 113.81 202.283 113.722 202.59C113.633 202.897 113.5 203.28 113.401 203.609C113.113 204.551 112.814 205.505 112.548 206.469C112.337 207.203 112.127 207.915 111.927 208.661C111.728 209.406 111.528 210.195 111.306 210.962C109.847 216.447 108.765 222.024 108.066 227.656Z" fill="#EB9481"/>
<path d="M113.999 201.691C115.113 207.188 117.41 212.377 120.73 216.898C124.05 221.419 128.313 225.164 133.225 227.872L140.111 209.884L120.309 192.661L117.432 190.35C117.432 190.35 115.87 195.39 113.999 201.691Z" fill="#263238"/>
<path d="M146.201 182.242C147.922 189.924 154.817 195 161.599 193.496C168.382 191.991 172.473 184.49 170.751 176.764C169.03 169.038 162.135 163.994 155.353 165.51C148.57 167.025 144.479 174.504 146.201 182.242Z" fill="#455A64"/>
<path d="M142.325 183.612C144.252 192.206 151.913 197.811 159.464 196.133C167.015 194.455 171.558 186.122 169.642 177.518C167.726 168.913 160.054 163.319 152.514 164.997C144.974 166.675 140.409 174.997 142.325 183.612Z" fill="#C7C7C7"/>
<path d="M164.535 172.689C173.653 205.234 155.189 214.338 148.164 216.336C141.787 218.116 119.858 223.36 107.425 191.923C94.9918 160.486 107.241 145.957 121.601 141.119C135.961 136.28 155.417 140.132 164.535 172.689Z" fill="#EB9481"/>
<path d="M153.227 168.564C152.454 168.638 151.678 168.669 150.902 168.656C150.085 168.809 149.241 168.687 148.501 168.309C148.29 168.145 148.14 167.916 148.073 167.658C148.007 167.4 148.027 167.127 148.132 166.882C148.413 166.431 148.81 166.063 149.282 165.818C149.753 165.572 150.282 165.458 150.812 165.486C151.893 165.369 152.979 165.657 153.859 166.295C154.049 166.455 154.189 166.666 154.262 166.903C154.335 167.141 154.339 167.394 154.272 167.633C154.206 167.872 154.072 168.087 153.886 168.252C153.701 168.417 153.472 168.525 153.227 168.564Z" fill="#263238"/>
<path d="M131.764 176.069C132.51 175.84 133.243 175.571 133.96 175.263C134.772 175.086 135.505 174.65 136.047 174.019C136.176 173.786 136.225 173.517 136.186 173.253C136.147 172.99 136.023 172.746 135.832 172.56C135.398 172.252 134.89 172.066 134.36 172.02C133.83 171.974 133.297 172.071 132.817 172.299C131.776 172.609 130.886 173.294 130.321 174.222C130.205 174.441 130.155 174.689 130.177 174.936C130.199 175.182 130.291 175.418 130.444 175.613C130.596 175.808 130.802 175.955 131.036 176.036C131.271 176.117 131.523 176.128 131.764 176.069Z" fill="#263238"/>
<path d="M138.327 181.824C138.328 181.736 138.184 181.977 138.217 182.065C138.913 184.26 139.3 186.893 137.541 188.194C137.486 188.193 137.541 188.336 137.596 188.314C139.924 187.279 139.32 183.768 138.327 181.824Z" fill="#263238"/>
<path d="M135.678 180.061C132.035 180.796 133.769 188.018 137.149 187.337C140.529 186.656 138.729 179.445 135.678 180.061Z" fill="#263238"/>
<path d="M134.35 180.781C133.822 181.35 133.369 182.215 132.634 182.476C131.898 182.737 130.924 182.175 130.18 181.58C130.103 181.525 130.048 181.58 130.07 181.701C130.384 183.084 131.257 184.38 132.793 184.231C134.329 184.082 134.871 182.636 134.875 181.155C134.887 180.881 134.57 180.562 134.35 180.781Z" fill="#263238"/>
<path d="M151.16 177.902C151.16 177.814 151.368 177.968 151.379 178.056C151.833 180.317 152.725 182.831 154.928 183.1C154.994 183.101 155.016 183.221 154.928 183.232C152.383 183.455 151.23 180.106 151.16 177.902Z" fill="#263238"/>
<path d="M152.605 175.098C156.139 174.012 158.071 181.147 154.777 182.179C151.484 183.211 149.652 176.022 152.605 175.098Z" fill="#263238"/>
<path d="M154.25 175.158C154.918 175.379 155.662 175.919 156.354 175.778C157.045 175.638 157.519 174.685 157.818 173.797C157.818 173.71 157.928 173.798 157.95 173.798C158.363 175.159 158.303 176.705 157.051 177.327C155.799 177.948 154.716 176.958 154.018 175.684C153.887 175.508 153.976 175.037 154.25 175.158Z" fill="#263238"/>
<path d="M143.341 199.869C143.976 200.298 144.654 200.969 145.532 200.829C146.372 200.65 147.165 200.297 147.86 199.794C147.873 199.778 147.892 199.768 147.913 199.766C147.934 199.764 147.954 199.77 147.97 199.784C147.986 199.797 147.996 199.816 147.998 199.836C148 199.857 147.994 199.877 147.981 199.893C147.742 200.4 147.371 200.832 146.906 201.146C146.442 201.459 145.902 201.641 145.343 201.673C144.854 201.647 144.384 201.475 143.993 201.179C143.603 200.882 143.311 200.475 143.155 200.011C143.078 199.89 143.243 199.814 143.341 199.869Z" fill="#263238"/>
<path d="M150.733 188.748C150.733 188.748 152.029 191.965 152.43 193.535C152.43 193.688 147.026 196.305 143.548 193.07C143.511 193.045 143.487 193.007 143.478 192.964C143.47 192.921 143.48 192.876 143.505 192.84C143.529 192.803 143.568 192.779 143.611 192.77C143.654 192.762 143.699 192.772 143.735 192.797C146.085 193.66 148.651 193.741 151.05 193.026C151.051 192.566 148.631 187.59 148.872 187.536C150.12 187.335 151.389 187.302 152.646 187.438C150.121 180.663 146.542 174.346 144.138 167.55C144.117 167.5 144.115 167.443 144.133 167.392C144.151 167.34 144.188 167.297 144.236 167.272C144.284 167.246 144.34 167.239 144.393 167.252C144.446 167.265 144.492 167.297 144.522 167.343C148.748 173.706 151.819 181.447 154.595 188.375C154.965 189.221 151.468 188.86 150.733 188.748Z" fill="#263238"/>
<path d="M151.037 193.782C150.45 195.236 149.503 196.517 148.284 197.503C147.6 198.013 146.776 198.302 145.923 198.33C144.048 198.324 143.559 196.777 143.497 195.318C143.473 194.545 143.538 193.773 143.691 193.015C145.994 194.05 148.569 194.319 151.037 193.782Z" fill="#263238"/>
<path d="M148.284 197.503C147.6 198.013 146.776 198.302 145.924 198.33C144.048 198.324 143.559 196.776 143.498 195.317C145.418 194.983 147.609 195.735 148.284 197.503Z" fill="#FF99BA"/>
<path d="M108.996 190.842C115.291 191.266 116.057 176.868 116.057 176.868C116.057 176.868 142.397 170.814 143.404 149.013C143.404 149.013 148.771 162.563 163.09 168.001C163.09 168.001 160.779 144.304 141.684 140.782C141.684 140.782 117.817 133.627 105.751 152.939C93.685 172.251 104.775 190.555 108.996 190.842Z" fill="#263238"/>
<path d="M143.408 147.401C143.918 150.729 143.71 154.128 142.797 157.369C141.936 160.663 140.395 163.74 138.274 166.404C137.754 167.074 137.192 167.709 136.591 168.307L135.711 169.237C135.403 169.521 135.073 169.783 134.743 170.057C134.083 170.581 133.446 171.15 132.764 171.641C132.083 172.133 131.336 172.536 130.567 172.973C130.204 173.18 129.853 173.409 129.468 173.606L128.37 174.129L126.075 175.164C124.494 175.708 122.891 176.164 121.299 176.598C122.782 175.846 124.319 175.247 125.78 174.494L127.923 173.294L129.021 172.694C129.362 172.476 129.681 172.224 130.01 171.984C130.67 171.503 131.329 171.034 132 170.575C132.67 170.116 133.209 169.482 133.814 168.99L134.726 168.192L135.541 167.295C136.1 166.721 136.626 166.115 137.114 165.479C139.115 162.942 140.67 160.084 141.713 157.026C142.246 155.49 142.654 153.914 142.933 152.313C143.229 150.692 143.388 149.049 143.408 147.401Z" fill="#263238"/>
<path d="M113.692 190.514C113.692 190.514 104.483 181.505 100.273 184.991C96.0617 188.478 104.345 202.475 110.254 203.479C111.002 203.661 111.78 203.69 112.54 203.564C113.3 203.438 114.027 203.16 114.677 202.746C115.327 202.332 115.886 201.791 116.321 201.155C116.756 200.519 117.058 199.802 117.209 199.047L113.692 190.514Z" fill="#EB9481"/>
<path d="M102.751 188.936C102.73 188.936 102.711 188.944 102.696 188.958C102.682 188.973 102.674 188.992 102.674 189.013C102.673 189.033 102.681 189.053 102.696 189.067C102.71 189.081 102.73 189.09 102.75 189.09C106.926 189.924 109.637 193.135 111.776 196.585C110.354 195.374 108.634 194.887 106.973 196.571C106.885 196.669 106.972 196.801 107.115 196.758C107.756 196.415 108.488 196.278 109.21 196.366C109.932 196.455 110.61 196.764 111.149 197.252C112.047 198.072 112.854 198.986 113.554 199.979C113.795 200.298 114.388 199.982 114.18 199.619L114.126 199.531C113.285 194.659 108.137 188.436 102.751 188.936Z" fill="#263238"/>
<path d="M107.387 185.924C107.387 185.924 101.446 169.949 103.549 159.535C105.886 147.938 120.304 134.743 136.73 139.748C136.73 139.748 117.166 142.619 110.21 158.316C107.008 165.545 112.963 184.723 112.963 184.723L107.387 185.924Z" fill="#C7C7C7"/>
<path d="M116.557 208.693C123.822 206.453 127.641 197.923 125.087 189.64C122.534 181.356 114.575 176.457 107.31 178.696C100.046 180.935 96.2267 189.466 98.7801 197.749C101.333 206.032 109.292 210.932 116.557 208.693Z" fill="#C7C7C7"/>
<path d="M121.128 190.295C123.421 197.738 119.987 205.405 113.401 207.415C106.814 209.425 99.7203 205.028 97.4169 197.585C95.1135 190.142 98.5579 182.475 105.144 180.454C111.731 178.433 118.836 182.896 121.128 190.295Z" fill="#455A64"/>
<path d="M133.148 227.981L127.071 243.186L108.154 223.992L102.816 230.163C102.816 230.163 121.372 260.685 121.442 259.303L127.688 246.161L136.743 255.257L135.987 232.42L133.148 227.981Z" fill="#EBEBEB"/>
<path d="M137.05 243.961C136.787 240.199 136.644 236.382 136.217 232.629C136.217 232.498 135.987 232.442 135.953 232.629C135.208 236.268 136.251 250.693 136.241 254.148C135.87 253.752 127.853 246.139 127.775 246.259C126.42 248.339 121.841 257.89 121.531 258.755C118.595 253.91 106.17 234.801 102.706 230.184C102.686 230.163 102.659 230.15 102.629 230.146C102.6 230.142 102.57 230.148 102.545 230.163C102.52 230.178 102.5 230.202 102.49 230.229C102.479 230.257 102.478 230.287 102.487 230.315C105.071 235.434 121.12 260.651 121.35 260.586C123.762 256.082 125.943 251.458 127.884 246.731C129.239 248.391 137.33 256.981 137.353 256.422C137.467 252.266 137.366 248.107 137.05 243.961Z" fill="#263238"/>
<path d="M243.207 126.878C242.53 133.185 240.114 139.18 236.228 144.194C232.343 149.207 227.14 153.043 221.202 155.272C215.263 157.501 208.822 158.037 202.597 156.818C196.371 155.599 190.607 152.675 185.948 148.371L168.809 150.833L177.429 136.052C175.502 131.23 174.697 126.033 175.075 120.854C175.454 115.675 177.005 110.651 179.612 106.16C182.22 101.67 185.815 97.8311 190.125 94.9353C194.435 92.0395 199.347 90.1622 204.49 89.4456C209.633 88.7289 214.871 89.1917 219.809 90.7988C224.746 92.406 229.254 95.1154 232.989 98.722C236.725 102.329 239.591 106.738 241.371 111.616C243.151 116.494 243.797 121.713 243.262 126.878L243.207 126.878Z" fill="white"/>
<path d="M243.207 126.878C242.526 133.189 240.117 139.189 236.247 144.22C234.345 146.732 232.076 148.944 229.515 150.78C226.986 152.685 224.202 154.224 221.243 155.352C218.282 156.5 215.176 157.229 212.013 157.518C210.434 157.658 208.847 157.683 207.264 157.592C205.674 157.55 204.09 157.38 202.527 157.085C196.213 155.929 190.346 153.037 185.585 148.733L185.99 148.854L168.873 151.437L167.633 151.619L168.261 150.524L176.849 135.71L176.847 136.303C174.852 131.389 174.014 126.082 174.397 120.793C174.779 115.503 176.372 110.373 179.053 105.797C181.73 101.238 185.405 97.3455 189.802 94.411C194.195 91.5201 199.186 89.6612 204.4 88.9736C209.614 88.2861 214.916 88.7878 219.909 90.441C224.84 92.1422 229.329 94.9246 233.046 98.5846C236.769 102.226 239.617 106.663 241.377 111.564C243.137 116.465 243.763 121.701 243.207 126.878ZM243.207 126.878C243.769 121.724 243.141 116.509 241.369 111.636C239.598 106.763 236.732 102.362 232.991 98.7717C229.251 95.1813 224.736 92.4977 219.794 90.9277C214.853 89.3576 209.617 88.9431 204.49 89.7159C199.411 90.4637 194.57 92.3628 190.337 95.268C186.144 98.1906 182.638 101.99 180.06 106.403C177.524 110.832 176.024 115.779 175.675 120.871C175.326 125.963 176.136 131.068 178.044 135.802L178.164 136.109L177.998 136.383L169.334 151.142L168.723 150.23L185.872 147.878L186.114 147.879L186.278 148.044C190.859 152.345 196.547 155.285 202.704 156.537C204.233 156.848 205.784 157.04 207.342 157.11C208.901 157.224 210.466 157.229 212.025 157.123C215.153 156.889 218.233 156.222 221.178 155.143C224.14 154.086 226.928 152.593 229.45 150.714C232.027 148.891 234.305 146.677 236.203 144.154C240.085 139.151 242.509 133.172 243.207 126.878Z" fill="#263238"/>
<path d="M224.095 128.444C226.385 128.451 228.246 126.6 228.253 124.311C228.26 122.021 226.409 120.159 224.119 120.153C221.83 120.146 219.968 121.997 219.962 124.286C219.955 126.576 221.805 128.438 224.095 128.444Z" fill="#263238"/>
<path d="M209.234 128.401C211.524 128.407 213.385 126.557 213.392 124.267C213.399 121.977 211.548 120.116 209.259 120.109C206.969 120.102 205.107 121.953 205.101 124.243C205.094 126.532 206.945 128.394 209.234 128.401Z" fill="#263238"/>
<path d="M194.385 128.357C196.674 128.364 198.536 126.513 198.543 124.223C198.549 121.934 196.699 120.072 194.409 120.066C192.119 120.059 190.258 121.91 190.251 124.199C190.244 126.489 192.095 128.35 194.385 128.357Z" fill="#263238"/>
<path d="M583.763 127.874C583.086 134.181 580.67 140.176 576.784 145.19C572.899 150.204 567.696 154.04 561.758 156.269C555.819 158.498 549.378 159.033 543.153 157.815C536.927 156.596 531.163 153.672 526.503 149.368L509.365 151.829L517.974 137.048C516.038 132.224 515.227 127.022 515.601 121.838C515.974 116.653 517.523 111.622 520.131 107.125C522.738 102.628 526.334 98.7841 530.648 95.8839C534.962 92.9836 539.879 91.1036 545.027 90.3862C550.175 89.6688 555.419 90.1329 560.362 91.7433C565.304 93.3538 569.814 96.0683 573.552 99.681C577.289 103.294 580.154 107.71 581.931 112.595C583.708 117.48 584.349 122.705 583.807 127.874L583.763 127.874Z" fill="white"/>
<path d="M583.763 127.874C583.077 134.184 580.669 140.183 576.803 145.216C575.836 146.461 574.796 147.649 573.688 148.771C572.543 149.861 571.331 150.88 570.06 151.821C567.534 153.73 564.749 155.269 561.788 156.392C558.831 157.541 555.728 158.27 552.569 158.558C550.986 158.698 549.395 158.723 547.809 158.632C546.219 158.589 544.635 158.42 543.072 158.125C536.764 156.947 530.909 154.036 526.163 149.718L526.568 149.84L509.451 152.422L508.211 152.605L508.839 151.51L517.405 136.696L517.403 137.288C515.409 132.374 514.57 127.069 514.951 121.78C515.331 116.491 516.921 111.36 519.598 106.782C522.279 102.223 525.957 98.3304 530.358 95.3963C534.751 92.5054 539.742 90.6465 544.956 89.9589C550.17 89.2714 555.472 89.7731 560.465 91.4263C565.397 93.1261 569.886 95.9087 573.602 99.5699C577.328 103.211 580.179 107.65 581.939 112.553C583.699 117.456 584.323 122.695 583.763 127.874ZM583.763 127.874C584.325 122.72 583.697 117.506 581.925 112.633C580.154 107.76 577.288 103.358 573.547 99.768C569.807 96.1776 565.292 93.494 560.35 91.9239C555.409 90.3539 550.173 89.9393 545.046 90.7122C539.967 91.46 535.126 93.3591 530.893 96.2643C526.7 99.1869 523.194 102.986 520.616 107.399C518.062 111.826 516.547 116.776 516.187 121.875C515.85 126.963 516.655 132.062 518.545 136.798L518.676 137.105L518.51 137.379L509.847 152.138L509.235 151.226L526.384 148.874L526.626 148.875L526.79 149.04C531.356 153.332 537.023 156.272 543.162 157.533C544.69 157.844 546.241 158.036 547.799 158.106C549.358 158.22 550.923 158.225 552.482 158.119C555.61 157.885 558.69 157.218 561.635 156.139C564.596 155.08 567.384 153.587 569.907 151.71C572.478 149.883 574.752 147.67 576.649 145.15C580.574 140.161 583.037 134.18 583.763 127.874Z" fill="#263238"/>
<path d="M564.596 129.441C566.886 129.447 568.748 127.597 568.754 125.307C568.761 123.017 566.91 121.156 564.621 121.149C562.331 121.142 560.469 122.993 560.463 125.283C560.456 127.572 562.307 129.434 564.596 129.441Z" fill="#263238"/>
<path d="M549.747 129.397C552.036 129.404 553.898 127.553 553.905 125.263C553.911 122.974 552.061 121.112 549.771 121.105C547.481 121.099 545.62 122.949 545.613 125.239C545.606 127.529 547.457 129.39 549.747 129.397Z" fill="#263238"/>
<path d="M539.055 125.22C539.055 126.04 538.811 126.842 538.355 127.524C537.899 128.206 537.25 128.737 536.492 129.05C535.734 129.364 534.9 129.445 534.095 129.284C533.291 129.123 532.552 128.727 531.973 128.146C531.394 127.565 531 126.825 530.842 126.02C530.683 125.215 530.767 124.381 531.083 123.624C531.398 122.866 531.932 122.22 532.615 121.766C533.298 121.312 534.101 121.071 534.921 121.073C536.019 121.076 537.071 121.515 537.845 122.292C538.62 123.069 539.055 124.122 539.055 125.22Z" fill="#263238"/>
<path d="M185.816 369.439L178.479 369.417L178.464 374.21L185.802 374.232L185.816 369.439Z" fill="#455A64"/>
<path d="M195.336 369.148L187.999 369.127L187.985 373.92L195.322 373.941L195.336 369.148Z" fill="#455A64"/>
<path d="M204.857 368.858L197.52 368.837L197.506 373.63L204.843 373.651L204.857 368.858Z" fill="#455A64"/>
<path d="M214.366 368.568L207.029 368.547L207.015 373.339L214.352 373.361L214.366 368.568Z" fill="#455A64"/>
<path d="M223.887 368.278L216.55 368.256L216.536 373.049L223.873 373.071L223.887 368.278Z" fill="#455A64"/>
<path d="M233.408 367.999L226.07 367.977L226.056 372.77L233.394 372.792L233.408 367.999Z" fill="#455A64"/>
<path d="M242.917 367.708L235.58 367.687L235.566 372.48L242.903 372.501L242.917 367.708Z" fill="#455A64"/>
<path d="M252.438 367.418L245.1 367.397L245.086 372.189L252.424 372.211L252.438 367.418Z" fill="#455A64"/>
<path d="M261.947 367.128L254.61 367.106L254.596 371.899L261.933 371.921L261.947 367.128Z" fill="#455A64"/>
<path d="M263.717 377.212L176.658 376.957L176.675 371.123L263.741 368.954L263.717 377.212Z" fill="#37474F"/>
<path d="M348.759 354.474L205.043 354.054L228.212 247.123L371.928 247.544L348.759 354.474Z" fill="#455A64"/>
<path d="M354.078 354.49L210.351 354.069L233.52 247.138L377.247 247.559L354.078 354.49Z" fill="#37474F"/>
<path d="M306.238 294.654C305.79 297.088 304.52 299.296 302.641 300.907C300.762 302.518 298.387 303.436 295.913 303.508C294.796 303.539 293.687 303.317 292.669 302.858C291.65 302.399 290.749 301.716 290.033 300.859C289.317 300.002 288.804 298.993 288.533 297.91C288.262 296.826 288.241 295.695 288.47 294.602C288.913 292.166 290.179 289.957 292.057 288.343C293.934 286.729 296.309 285.809 298.784 285.737C299.902 285.704 301.014 285.925 302.035 286.383C303.055 286.842 303.959 287.526 304.676 288.385C305.394 289.244 305.908 290.254 306.178 291.34C306.448 292.426 306.469 293.559 306.238 294.654Z" fill="#263238"/>
<path d="M313.352 382.315L242.666 382.108L242.682 376.613L313.375 374.539L313.352 382.315Z" fill="#455A64"/>
<path d="M332.567 382.362L294.608 382.25L271.927 322.224L309.886 322.335L332.567 382.362Z" fill="#455A64"/>
<path d="M338.807 382.38L300.859 382.269L278.178 322.242L316.126 322.353L338.807 382.38Z" fill="#263238"/>
<path d="M173.932 383.366L101.085 383.153C94.8669 383.135 103.912 365.449 126.635 358.726C149.358 352.003 181.135 376.741 173.932 383.366Z" fill="#37474F"/>
<path d="M145.415 383.282C145.47 381.265 145.808 379.264 146.42 377.341C147.01 375.396 147.837 373.531 148.882 371.787C149.929 370.033 151.239 368.45 152.767 367.094C154.282 365.747 156.023 364.68 157.909 363.939C157.129 364.573 156.239 365.031 155.524 365.72L154.424 366.671L153.39 367.764C152.039 369.171 150.853 370.728 149.856 372.404C148.843 374.081 147.972 375.839 147.252 377.661C146.515 379.492 145.902 381.37 145.415 383.282Z" fill="#263238"/>
<path d="M154.041 366.45C158.372 367.835 162.467 369.87 166.187 372.485C168.069 373.794 169.771 375.344 171.251 377.095C172.803 378.838 173.744 381.04 173.931 383.366C173.333 381.219 172.181 379.268 170.591 377.708C169.042 376.12 167.346 374.683 165.526 373.415C163.72 372.105 161.826 370.926 159.899 369.769C157.972 368.611 156.034 367.52 154.041 366.45Z" fill="#263238"/>
<path d="M522.358 370.424L515.021 370.402L515.006 375.195L522.344 375.217L522.358 370.424Z" fill="#455A64"/>
<path d="M531.878 370.133L524.541 370.112L524.527 374.905L531.864 374.926L531.878 370.133Z" fill="#455A64"/>
<path d="M541.399 369.843L534.062 369.822L534.047 374.614L541.385 374.636L541.399 369.843Z" fill="#455A64"/>
<path d="M550.908 369.553L543.571 369.531L543.557 374.324L550.894 374.346L550.908 369.553Z" fill="#455A64"/>
<path d="M560.429 369.263L553.092 369.241L553.078 374.034L560.415 374.056L560.429 369.263Z" fill="#455A64"/>
<path d="M569.95 368.983L562.612 368.962L562.598 373.755L569.936 373.776L569.95 368.983Z" fill="#455A64"/>
<path d="M579.459 368.693L572.122 368.672L572.108 373.465L579.445 373.486L579.459 368.693Z" fill="#455A64"/>
<path d="M588.98 368.403L581.642 368.382L581.628 373.174L588.966 373.196L588.98 368.403Z" fill="#455A64"/>
<path d="M598.5 368.113L591.163 368.091L591.149 372.884L598.486 372.906L598.5 368.113Z" fill="#455A64"/>
<path d="M600.27 378.197L513.211 377.942L513.228 372.108L600.294 369.938L600.27 378.197Z" fill="#37474F"/>
<path d="M685.301 355.459L541.585 355.038L564.754 248.108L708.47 248.528L685.301 355.459Z" fill="#455A64"/>
<path d="M690.62 355.475L546.904 355.054L570.073 248.124L713.789 248.544L690.62 355.475Z" fill="#37474F"/>
<path d="M642.779 295.639C642.332 298.071 641.064 300.277 639.187 301.888C637.31 303.499 634.938 304.419 632.466 304.492C631.348 304.525 630.238 304.305 629.218 303.847C628.198 303.388 627.295 302.705 626.578 301.848C625.86 300.991 625.347 299.982 625.075 298.897C624.804 297.813 624.782 296.681 625.012 295.587C625.457 293.152 626.724 290.943 628.601 289.33C630.478 287.717 632.851 286.796 635.325 286.722C636.444 286.688 637.555 286.909 638.576 287.368C639.597 287.827 640.5 288.511 641.218 289.37C641.936 290.228 642.449 291.239 642.72 292.325C642.99 293.41 643.01 294.544 642.779 295.639Z" fill="#263238"/>
<path d="M649.895 383.3L579.208 383.093L579.225 377.598L649.917 375.523L649.895 383.3Z" fill="#455A64"/>
<path d="M669.109 383.346L631.15 383.235L608.469 323.209L646.428 323.32L669.109 383.346Z" fill="#455A64"/>
<path d="M675.36 383.365L637.402 383.254L614.72 323.227L652.679 323.338L675.36 383.365Z" fill="#263238"/>
<path d="M510.507 384.351L437.627 384.138C431.409 384.119 440.454 366.433 463.177 359.711C485.9 352.988 517.677 377.725 510.507 384.351Z" fill="#37474F"/>
<path d="M481.902 384.267C481.962 382.25 482.3 380.251 482.907 378.326C483.502 376.383 484.329 374.518 485.369 372.772C486.423 371.023 487.733 369.441 489.254 368.078C490.769 366.732 492.51 365.664 494.396 364.924C493.616 365.558 492.726 366.016 492.011 366.705L490.912 367.656L489.877 368.749C488.519 370.153 487.329 371.71 486.332 373.389C485.319 375.066 484.448 376.824 483.728 378.646C482.995 380.477 482.385 382.355 481.902 384.267Z" fill="#263238"/>
<path d="M490.583 367.435C494.914 368.82 499.009 370.855 502.729 373.47C504.612 374.782 506.318 376.331 507.804 378.08C509.352 379.811 510.299 381.995 510.506 384.307C509.904 382.16 508.749 380.209 507.155 378.649C505.606 377.061 503.91 375.624 502.09 374.356C500.295 373.046 498.39 371.867 496.463 370.71C494.536 369.552 492.587 368.505 490.583 367.435Z" fill="#263238"/>
</svg>
