<svg width="34" height="34" viewBox="0 0 34 34" fill="none" xmlns="http://www.w3.org/2000/svg">
<path d="M17 0C7.61205 0 0 7.61205 0 17C0 26.3879 7.61205 34 17 34C26.3879 34 34 26.3879 34 17C34 7.61205 26.3879 0 17 0ZM25.1699 12.8145C25.1813 12.9929 25.1812 13.1788 25.1812 13.3609C25.1812 18.9315 20.9388 25.3482 13.1864 25.3482C10.7958 25.3482 8.57969 24.6538 6.71272 23.4585C7.05424 23.4964 7.38058 23.5116 7.72969 23.5116C9.7029 23.5116 11.5167 22.8438 12.9625 21.7129C11.1107 21.675 9.55491 20.4607 9.02366 18.7911C9.67254 18.8859 10.2569 18.8859 10.9248 18.7152C9.97128 18.5215 9.11426 18.0036 8.4993 17.2496C7.88435 16.4956 7.54939 15.552 7.55134 14.579V14.5259C8.10915 14.8408 8.76563 15.0344 9.45246 15.0609C8.87507 14.6761 8.40156 14.1548 8.0739 13.5432C7.74625 12.9316 7.57458 12.2485 7.57411 11.5547C7.57411 10.7692 7.77902 10.052 8.1471 9.42969C9.20543 10.7325 10.5261 11.7981 12.0232 12.5571C13.5203 13.3161 15.1604 13.7516 16.8368 13.8353C16.2411 10.9703 18.3813 8.65179 20.954 8.65179C22.1683 8.65179 23.2612 9.16027 24.0315 9.97991C24.9839 9.80156 25.8946 9.44487 26.7067 8.96674C26.3917 9.94196 25.7315 10.7654 24.8549 11.2853C25.7049 11.1942 26.5246 10.9589 27.2835 10.6288C26.7105 11.4712 25.9933 12.2188 25.1699 12.8145Z" fill="white"/>
</svg>
