<svg width="36" height="35" viewBox="0 0 36 35" fill="none" xmlns="http://www.w3.org/2000/svg">
<g clip-path="url(#clip0_9_1302)">
<path d="M7.36315 0.0090332C3.59339 0.0090332 0.508057 3.09429 0.508057 6.86413V28.1367C0.508057 31.9065 3.59332 34.9907 7.36315 34.9907H28.6357C32.4055 34.9907 35.4897 31.9065 35.4897 28.1367V6.86413C35.4897 3.09436 32.4055 0.0090332 28.6357 0.0090332H7.36315ZM9.08731 5.78171C10.8948 5.78171 12.0082 6.96831 12.0426 8.52809C12.0426 10.0534 10.8948 11.2734 9.05235 11.2734H9.01844C7.24532 11.2734 6.09927 10.0535 6.09927 8.52809C6.09927 6.96835 7.28 5.78171 9.08728 5.78171H9.08731ZM24.6637 13.0719C28.14 13.0719 30.7459 15.344 30.7459 20.2265V29.3415H25.463V20.8377C25.463 18.7008 24.6984 17.2428 22.7865 17.2428C21.327 17.2428 20.4571 18.2255 20.0751 19.1748C19.9356 19.5144 19.9013 19.9887 19.9013 20.4638V29.3415H14.6184C14.6184 29.3415 14.6877 14.9363 14.6184 13.4447H19.9024V15.6958C20.6044 14.6127 21.8602 13.0719 24.6637 13.0719V13.0719ZM6.41088 13.4459H11.6938V29.3415H6.41088V13.4459Z" fill="white"/>
</g>
<defs>
<clipPath id="clip0_9_1302">
<rect width="34.9969" height="34.9969" fill="white" transform="translate(0.501465)"/>
</clipPath>
</defs>
</svg>
