<svg width="35" height="35" viewBox="0 0 35 35" fill="none" xmlns="http://www.w3.org/2000/svg">
<g clip-path="url(#clip0_9_1300)">
<path fill-rule="evenodd" clip-rule="evenodd" d="M0 17.5962C0 26.2958 6.3184 33.53 14.5821 34.9969V22.3587H10.2074V17.4985H14.5821V13.6094C14.5821 9.23481 17.4008 6.80544 21.3875 6.80544C22.6503 6.80544 24.0123 6.99938 25.2751 7.19333V11.6656H23.0396C20.9005 11.6656 20.4149 12.7345 20.4149 14.0965V17.4985H25.0811L24.3039 22.3587H20.4149V34.9969C28.6785 33.53 34.9969 26.2973 34.9969 17.5962C34.9969 7.91805 27.1226 0 17.4985 0C7.87431 0 0 7.91805 0 17.5962Z" fill="white"/>
</g>
<defs>
<clipPath id="clip0_9_1300">
<rect width="34.9969" height="34.9969" fill="white"/>
</clipPath>
</defs>
</svg>
